{"glyphs":{"0":{"ha":529,"x_min":39,"x_max":489,"o":"m 264 11 l 264 11 q 189 11 139 -30 q 89 -71 64 -152 q 39 -234 39 -357 l 39 -357 q 39 -478 62 -559 q 85 -641 135 -683 q 184 -725 263 -725 l 263 -725 q 340 -725 390 -682 q 439 -640 464 -558 q 489 -476 489 -357 l 489 -357 q 489 -271 477 -202 q 465 -134 438 -86 q 411 -39 369 -14 q 326 11 264 11 z m 264 -93 l 264 -93 q 293 -93 314 -110 q 334 -128 346 -162 q 357 -196 362 -245 q 366 -294 366 -357 l 366 -357 q 366 -419 362 -468 q 357 -517 345 -551 q 333 -586 313 -603 q 293 -621 264 -621 l 264 -621 q 234 -621 214 -603 q 194 -585 183 -551 q 172 -517 167 -468 q 162 -420 162 -357 l 162 -357 q 162 -293 167 -243 q 172 -194 183 -161 q 194 -128 214 -110 q 234 -93 264 -93 z"},"1":{"ha":529,"x_min":64,"x_max":369,"o":"m 369 -714 l 369 0 l 247 0 l 247 -444 q 247 -473 249 -510 q 250 -547 251 -577 l 251 -577 q 246 -571 233 -557 q 219 -544 206 -532 l 206 -532 l 127 -464 l 64 -538 l 268 -714 l 369 -714 z"},"2":{"ha":529,"x_min":39,"x_max":490,"o":"m 490 0 l 39 0 l 39 -89 l 207 -279 q 258 -336 288 -375 q 318 -415 333 -449 q 347 -484 347 -524 l 347 -524 q 347 -555 336 -575 q 324 -596 304 -607 q 283 -618 254 -618 l 254 -618 q 214 -618 179 -602 q 143 -586 104 -557 l 104 -557 l 41 -640 q 71 -664 103 -682 q 135 -701 174 -712 q 213 -724 261 -724 l 261 -724 q 324 -724 371 -700 q 418 -676 444 -633 q 470 -591 470 -535 l 470 -535 q 470 -479 450 -431 q 429 -384 391 -336 q 352 -288 298 -230 l 298 -230 l 190 -113 l 190 -107 l 490 -107 l 490 0 z"},"3":{"ha":529,"x_min":38,"x_max":484,"o":"m 225 11 l 225 11 q 171 11 124 2 q 77 -7 38 -24 l 38 -24 l 38 -133 q 80 -113 126 -102 q 171 -92 213 -92 l 213 -92 q 289 -92 322 -123 q 355 -154 355 -211 l 355 -211 q 355 -246 339 -269 q 322 -293 286 -305 q 249 -317 188 -317 l 188 -317 l 136 -317 l 136 -418 l 190 -418 q 247 -418 281 -432 q 314 -446 329 -471 q 343 -496 343 -529 l 343 -529 q 343 -572 319 -596 q 294 -621 240 -621 l 240 -621 q 195 -621 161 -606 q 127 -591 97 -572 l 97 -572 l 39 -658 q 83 -688 133 -706 q 183 -724 249 -724 l 249 -724 q 315 -724 364 -704 q 412 -685 439 -646 q 465 -608 465 -552 l 465 -552 q 465 -507 448 -471 q 430 -436 398 -412 q 366 -388 323 -376 l 323 -376 l 323 -372 q 402 -362 443 -318 q 484 -275 484 -204 l 484 -204 q 484 -139 455 -90 q 425 -42 368 -15 q 310 11 225 11 z"},"4":{"ha":529,"x_min":18,"x_max":512,"o":"m 427 0 l 307 0 l 307 -152 l 18 -152 l 18 -243 l 309 -716 l 427 -716 l 427 -252 l 512 -252 l 512 -152 l 427 -152 l 427 0 z m 269 -491 l 126 -252 l 307 -252 l 307 -430 q 307 -450 308 -478 q 309 -507 310 -532 q 311 -558 312 -570 l 312 -570 l 308 -570 q 300 -549 291 -529 q 281 -509 269 -491 l 269 -491 z"},"5":{"ha":529,"x_min":51,"x_max":482,"o":"m 223 11 l 223 11 q 173 11 128 2 q 83 -8 51 -24 l 51 -24 l 51 -135 q 85 -117 130 -105 q 175 -94 219 -94 l 219 -94 q 264 -94 295 -109 q 325 -124 341 -153 q 357 -183 357 -225 l 357 -225 q 357 -285 323 -315 q 288 -346 217 -346 l 217 -346 q 192 -346 164 -341 q 135 -337 112 -331 l 112 -331 l 63 -364 l 87 -714 l 435 -714 l 435 -606 l 194 -606 l 181 -441 q 200 -444 220 -447 q 240 -450 267 -450 l 267 -450 q 331 -450 380 -424 q 428 -399 455 -351 q 482 -303 482 -236 l 482 -236 q 482 -159 453 -103 q 423 -48 365 -18 q 307 11 223 11 z"},"6":{"ha":529,"x_min":41,"x_max":492,"o":"m 274 11 l 274 11 q 221 11 178 -10 q 135 -31 105 -71 q 74 -111 58 -169 q 41 -228 41 -304 l 41 -304 q 41 -373 51 -435 q 60 -498 81 -550 q 102 -603 139 -642 q 175 -681 229 -702 q 283 -723 356 -723 l 356 -723 q 378 -723 403 -721 q 428 -719 446 -715 l 446 -715 l 446 -612 q 429 -617 408 -619 q 387 -622 366 -622 l 366 -622 q 290 -622 245 -593 q 200 -565 180 -510 q 159 -455 156 -376 l 156 -376 l 161 -376 q 175 -402 195 -420 q 215 -438 243 -448 q 271 -459 305 -459 l 305 -459 q 364 -459 406 -431 q 448 -404 470 -353 q 492 -303 492 -234 l 492 -234 q 492 -161 467 -105 q 441 -50 392 -19 q 343 11 274 11 z m 272 -92 l 272 -92 q 317 -92 345 -126 q 372 -161 372 -233 l 372 -233 q 372 -293 348 -326 q 323 -360 274 -360 l 274 -360 q 241 -360 216 -344 q 191 -328 177 -302 q 163 -277 163 -250 l 163 -250 q 163 -222 170 -194 q 177 -166 191 -143 q 204 -120 224 -106 q 244 -92 272 -92 z"},"7":{"ha":529,"x_min":31,"x_max":493,"o":"m 239 0 l 110 0 l 364 -605 l 31 -605 l 31 -713 l 493 -713 l 493 -630 l 239 0 z"},"8":{"ha":529,"x_min":37,"x_max":491,"o":"m 266 10 l 266 10 q 195 10 144 -12 q 93 -34 65 -76 q 37 -119 37 -180 l 37 -180 q 37 -225 53 -260 q 69 -296 99 -324 q 128 -352 168 -373 l 168 -373 q 134 -396 110 -423 q 85 -450 72 -482 q 58 -514 58 -553 l 58 -553 q 58 -609 86 -647 q 114 -685 162 -704 q 209 -724 264 -724 l 264 -724 q 323 -724 370 -704 q 416 -685 444 -647 q 471 -610 471 -553 l 471 -553 q 471 -513 457 -480 q 442 -448 415 -422 q 388 -397 349 -376 l 349 -376 q 389 -354 421 -326 q 453 -299 472 -264 q 491 -229 491 -184 l 491 -184 q 491 -123 462 -79 q 433 -36 382 -13 q 331 10 266 10 z m 264 -85 l 264 -85 q 317 -85 347 -111 q 376 -138 376 -186 l 376 -186 q 376 -213 362 -235 q 348 -257 325 -276 q 301 -295 271 -312 l 271 -312 l 256 -320 q 223 -303 200 -282 q 176 -262 165 -238 q 153 -215 153 -185 l 153 -185 q 153 -140 181 -112 q 209 -85 264 -85 z m 264 -431 l 264 -431 q 292 -445 312 -461 q 332 -477 343 -498 q 354 -519 354 -546 l 354 -546 q 354 -587 329 -608 q 304 -629 264 -629 l 264 -629 q 225 -629 200 -607 q 174 -585 174 -546 l 174 -546 q 174 -518 186 -497 q 198 -476 219 -460 q 239 -445 264 -431 z"},"9":{"ha":529,"x_min":36,"x_max":488,"o":"m 171 11 l 171 11 q 152 11 125 9 q 98 6 81 2 l 81 2 l 81 -101 q 99 -96 120 -93 q 141 -90 162 -90 l 162 -90 q 220 -90 260 -107 q 299 -125 323 -158 q 347 -191 359 -236 q 370 -281 372 -336 l 372 -336 l 367 -336 q 353 -312 334 -293 q 314 -275 287 -264 q 260 -254 221 -254 l 221 -254 q 163 -254 122 -281 q 80 -309 58 -359 q 36 -410 36 -479 l 36 -479 q 36 -553 62 -608 q 88 -663 138 -693 q 187 -723 255 -723 l 255 -723 q 308 -723 351 -702 q 393 -682 424 -642 q 455 -603 472 -545 q 488 -488 488 -414 l 488 -414 q 488 -343 479 -279 q 469 -215 447 -162 q 425 -110 389 -71 q 352 -32 298 -10 q 244 11 171 11 z m 254 -353 l 254 -353 q 289 -353 314 -370 q 338 -387 352 -412 q 365 -437 365 -464 l 365 -464 q 365 -489 359 -516 q 353 -544 340 -567 q 326 -591 306 -605 q 285 -620 257 -620 l 257 -620 q 212 -620 184 -585 q 156 -551 156 -479 l 156 -479 q 156 -418 181 -385 q 206 -353 254 -353 z"},"\r":{"ha":277,"x_min":0,"x_max":0,"o":""}," ":{"ha":277,"x_min":0,"x_max":0,"o":""},"ഀ":{"ha":0,"x_min":-430,"x_max":-125,"o":"m -430 -716 l -430 -716 q -430 -781 -389 -822 q -348 -864 -278 -864 l -278 -864 q -207 -864 -166 -822 q -125 -781 -125 -716 l -125 -716 q -125 -651 -166 -609 q -207 -568 -278 -568 l -278 -568 q -350 -568 -390 -609 q -430 -651 -430 -716 z m -341 -716 l -341 -716 q -341 -688 -326 -666 q -311 -645 -278 -645 l -278 -645 q -245 -645 -229 -666 q -214 -688 -214 -717 l -214 -717 q -214 -746 -230 -766 q -247 -787 -278 -787 l -278 -787 q -311 -787 -326 -766 q -341 -746 -341 -716 z"},"ഁ":{"ha":0,"x_min":-453,"x_max":-103,"o":"m -278 -643 l -278 -643 q -362 -643 -407 -686 q -453 -729 -453 -806 l -453 -806 q -453 -823 -451 -837 q -449 -851 -445 -863 l -445 -863 l -365 -849 q -367 -839 -368 -828 q -370 -818 -370 -809 l -370 -809 q -370 -776 -357 -757 q -345 -738 -324 -730 q -303 -722 -278 -722 l -278 -722 q -255 -722 -234 -729 q -213 -737 -199 -756 q -186 -776 -186 -811 l -186 -811 q -186 -818 -187 -828 q -188 -839 -191 -849 l -191 -849 l -110 -863 q -107 -851 -105 -836 q -103 -822 -103 -807 l -103 -807 q -103 -729 -148 -686 q -194 -643 -278 -643 z m -279 -755 l -279 -755 q -306 -755 -319 -769 q -332 -784 -332 -808 l -332 -808 q -332 -830 -319 -845 q -306 -861 -279 -861 l -279 -861 q -252 -861 -238 -846 q -225 -831 -225 -808 l -225 -808 q -225 -784 -238 -769 q -252 -755 -279 -755 z"},"ം":{"ha":450,"x_min":30,"x_max":419,"o":"m 225 12 l 225 12 q 165 12 121 -12 q 77 -36 54 -79 q 30 -122 30 -178 l 30 -178 q 30 -237 55 -279 q 80 -322 124 -345 q 167 -369 224 -369 l 224 -369 q 283 -369 327 -346 q 370 -323 395 -280 q 419 -238 419 -178 l 419 -178 q 419 -120 395 -77 q 370 -34 326 -11 q 282 12 225 12 z m 224 -281 l 224 -281 q 188 -281 165 -256 q 142 -232 142 -177 l 142 -177 q 142 -125 166 -100 q 189 -76 225 -76 l 225 -76 q 260 -76 284 -100 q 308 -124 308 -178 l 308 -178 q 308 -232 285 -256 q 261 -281 224 -281 z"},"ഃ":{"ha":333,"x_min":30,"x_max":303,"o":"m 30 -437 l 30 -437 q 30 -496 68 -533 q 105 -571 166 -571 l 166 -571 q 228 -571 266 -533 q 303 -496 303 -437 l 303 -437 q 303 -379 266 -341 q 229 -304 166 -304 l 166 -304 q 104 -304 67 -341 q 30 -379 30 -437 z m 115 -438 l 115 -438 q 115 -412 129 -395 q 142 -379 166 -379 l 166 -379 q 192 -379 205 -395 q 218 -412 218 -438 l 218 -438 q 218 -464 205 -479 q 191 -495 166 -495 l 166 -495 q 142 -495 129 -479 q 115 -464 115 -438 z m 30 -122 l 30 -122 q 30 -180 68 -217 q 105 -255 166 -255 l 166 -255 q 228 -255 266 -218 q 303 -181 303 -122 l 303 -122 q 303 -63 266 -25 q 229 12 166 12 l 166 12 q 104 12 67 -25 q 30 -63 30 -122 z m 115 -122 l 115 -122 q 115 -96 129 -80 q 142 -64 166 -64 l 166 -64 q 192 -64 205 -80 q 218 -96 218 -122 l 218 -122 q 218 -148 205 -164 q 191 -180 166 -180 l 166 -180 q 142 -180 129 -164 q 115 -148 115 -122 z"},"ഄ":{"ha":581,"x_min":33,"x_max":548,"o":"m 49 -332 l 49 -332 l 160 -312 q 154 -291 151 -267 q 148 -244 148 -221 l 148 -221 q 148 -156 181 -119 q 214 -83 290 -83 l 290 -83 q 367 -83 400 -119 q 433 -156 433 -221 l 433 -221 q 433 -243 431 -267 q 428 -291 422 -312 l 422 -312 l 532 -332 q 538 -311 543 -280 q 548 -250 548 -218 l 548 -218 q 548 -152 524 -100 q 499 -49 442 -20 q 385 9 290 9 l 290 9 q 195 9 139 -20 q 83 -49 58 -100 q 33 -152 33 -218 l 33 -218 q 33 -250 38 -280 q 43 -311 49 -332 z m 242 -180 l 242 -412 l 340 -412 l 340 -180 l 242 -180 z"},"അ":{"ha":1461,"x_min":37,"x_max":1424,"o":"m 361 -571 l 361 -571 q 408 -571 462 -561 q 516 -552 563 -531 l 563 -531 q 571 -528 578 -522 q 584 -516 591 -512 l 591 -512 q 625 -500 650 -479 q 674 -459 689 -432 q 703 -406 703 -371 l 703 -371 q 703 -345 695 -323 q 686 -302 667 -284 q 648 -267 617 -253 l 617 -253 l 615 -262 q 660 -247 687 -215 q 713 -183 713 -136 l 713 -136 q 713 -96 694 -62 q 675 -29 633 -8 q 591 12 520 12 l 520 12 q 440 12 390 -20 q 340 -53 317 -109 q 293 -165 293 -237 l 293 -237 q 293 -293 310 -345 q 326 -397 361 -441 q 395 -485 451 -517 l 451 -517 q 457 -520 461 -524 q 465 -528 471 -530 l 471 -530 q 508 -549 554 -560 q 599 -571 652 -571 l 652 -571 q 715 -571 759 -557 q 802 -543 833 -519 q 864 -495 888 -463 l 888 -463 l 931 -237 l 931 0 l 812 0 l 812 -275 q 812 -348 802 -386 q 791 -425 763 -449 l 763 -449 q 742 -467 715 -476 q 688 -485 647 -485 l 647 -485 q 620 -485 596 -480 q 571 -476 552 -470 l 552 -470 q 512 -458 484 -433 q 456 -408 439 -375 q 422 -343 414 -307 q 406 -272 406 -237 l 406 -237 q 406 -152 435 -114 q 463 -76 517 -76 l 517 -76 q 557 -76 578 -92 q 598 -109 598 -142 l 598 -142 q 598 -174 575 -192 q 551 -210 503 -210 l 503 -210 l 486 -210 l 486 -300 l 499 -300 q 546 -300 567 -319 q 588 -338 588 -370 l 588 -370 q 588 -406 562 -432 q 536 -459 475 -471 l 475 -471 q 450 -479 424 -481 q 397 -484 371 -484 l 371 -484 q 298 -484 251 -458 q 204 -432 181 -386 q 158 -340 158 -281 l 158 -281 q 158 -231 170 -191 q 182 -152 204 -119 q 226 -86 257 -57 l 257 -57 l 177 11 q 137 -23 106 -64 q 74 -106 56 -160 q 37 -214 37 -284 l 37 -284 q 37 -339 55 -390 q 72 -441 110 -482 q 148 -523 210 -547 q 272 -571 361 -571 z m 1213 12 l 1213 12 q 1146 12 1104 -17 q 1062 -46 1042 -95 q 1021 -144 1021 -203 l 1021 -203 q 1021 -297 1068 -352 q 1114 -407 1198 -407 l 1198 -407 q 1250 -407 1288 -381 q 1326 -355 1350 -312 q 1374 -270 1381 -221 l 1381 -221 l 1339 -219 q 1333 -243 1318 -266 q 1302 -289 1280 -304 q 1257 -320 1226 -320 l 1226 -320 q 1179 -320 1158 -288 q 1137 -257 1137 -200 l 1137 -200 q 1137 -163 1146 -135 q 1154 -107 1172 -92 q 1190 -78 1218 -78 l 1218 -78 q 1247 -78 1267 -94 q 1287 -110 1298 -146 q 1309 -182 1309 -241 l 1309 -241 q 1309 -253 1308 -271 q 1306 -289 1303 -306 l 1303 -306 q 1302 -312 1303 -319 q 1304 -326 1302 -330 l 1302 -330 q 1296 -369 1272 -402 q 1247 -436 1205 -457 q 1162 -479 1098 -479 l 1098 -479 q 1060 -479 1033 -472 q 1006 -465 983 -446 l 983 -446 q 967 -433 955 -413 q 943 -393 937 -360 q 931 -328 931 -274 l 931 -274 l 931 -210 l 857 -464 q 883 -495 915 -519 q 947 -544 992 -557 q 1037 -571 1101 -571 l 1101 -571 q 1180 -571 1241 -546 q 1301 -521 1342 -476 q 1383 -431 1404 -370 q 1424 -310 1424 -239 l 1424 -239 q 1424 -150 1398 -94 q 1372 -39 1325 -13 q 1277 12 1213 12 z"},"ആ":{"ha":1609,"x_min":37,"x_max":1584,"o":"m 361 -571 l 361 -571 q 408 -571 462 -561 q 516 -552 563 -531 l 563 -531 q 571 -528 578 -522 q 584 -516 591 -512 l 591 -512 q 625 -500 650 -479 q 674 -459 689 -432 q 703 -406 703 -371 l 703 -371 q 703 -345 695 -323 q 686 -302 667 -284 q 648 -267 617 -253 l 617 -253 l 615 -262 q 660 -247 687 -215 q 713 -183 713 -136 l 713 -136 q 713 -96 694 -62 q 675 -29 633 -8 q 591 12 520 12 l 520 12 q 440 12 390 -20 q 340 -53 317 -109 q 293 -165 293 -237 l 293 -237 q 293 -293 310 -345 q 326 -397 361 -441 q 395 -485 451 -517 l 451 -517 q 457 -520 461 -524 q 465 -528 471 -530 l 471 -530 q 508 -549 554 -560 q 599 -571 652 -571 l 652 -571 q 715 -571 759 -557 q 802 -543 833 -519 q 864 -495 888 -463 l 888 -463 l 931 -233 l 931 0 l 812 0 l 812 -275 q 812 -348 802 -386 q 791 -425 763 -449 l 763 -449 q 742 -467 715 -476 q 688 -485 647 -485 l 647 -485 q 620 -485 596 -480 q 571 -476 552 -470 l 552 -470 q 512 -458 484 -433 q 456 -408 439 -375 q 422 -343 414 -307 q 406 -272 406 -237 l 406 -237 q 406 -152 435 -114 q 463 -76 517 -76 l 517 -76 q 557 -76 578 -92 q 598 -109 598 -142 l 598 -142 q 598 -174 575 -192 q 551 -210 503 -210 l 503 -210 l 486 -210 l 486 -300 l 499 -300 q 546 -300 567 -319 q 588 -338 588 -370 l 588 -370 q 588 -406 562 -432 q 536 -459 475 -471 l 475 -471 q 450 -479 424 -481 q 397 -484 371 -484 l 371 -484 q 298 -484 251 -458 q 204 -432 181 -386 q 158 -340 158 -281 l 158 -281 q 158 -231 170 -191 q 182 -152 204 -119 q 226 -86 257 -57 l 257 -57 l 177 11 q 137 -23 106 -64 q 74 -106 56 -160 q 37 -214 37 -284 l 37 -284 q 37 -339 55 -390 q 72 -441 110 -482 q 148 -523 210 -547 q 272 -571 361 -571 z m 1090 -571 l 1090 -571 q 1178 -571 1240 -540 q 1302 -509 1340 -456 q 1377 -404 1390 -338 l 1390 -338 q 1396 -312 1398 -284 q 1400 -257 1400 -229 l 1400 -229 q 1400 -145 1376 -91 q 1352 -38 1306 -13 q 1260 12 1194 12 l 1194 12 q 1130 12 1088 -13 q 1046 -39 1026 -82 q 1006 -125 1006 -177 l 1006 -177 q 1006 -280 1075 -336 q 1144 -393 1264 -393 l 1264 -393 q 1283 -393 1297 -392 q 1310 -392 1321 -390 l 1321 -390 l 1350 -388 q 1423 -376 1475 -335 q 1527 -295 1556 -233 q 1584 -172 1584 -96 l 1584 -96 q 1584 -33 1567 21 q 1549 75 1512 116 q 1474 156 1416 179 q 1358 201 1278 201 l 1278 201 q 1233 201 1195 195 q 1157 188 1125 177 l 1125 177 l 1158 89 q 1186 99 1214 104 q 1241 108 1276 108 l 1276 108 q 1333 108 1370 91 q 1407 73 1429 44 q 1451 15 1460 -22 q 1469 -59 1469 -98 l 1469 -98 q 1469 -147 1458 -184 q 1446 -221 1424 -247 q 1402 -273 1370 -290 l 1370 -290 l 1334 -296 q 1319 -302 1302 -304 q 1285 -306 1269 -306 l 1269 -306 q 1220 -306 1188 -290 q 1155 -275 1139 -246 q 1122 -218 1122 -177 l 1122 -177 q 1122 -148 1130 -126 q 1138 -104 1155 -91 q 1171 -78 1198 -78 l 1198 -78 q 1243 -78 1266 -113 q 1288 -148 1288 -230 l 1288 -230 q 1288 -263 1284 -294 q 1279 -325 1269 -351 l 1269 -351 l 1264 -372 q 1250 -405 1226 -429 q 1201 -453 1167 -466 q 1133 -479 1088 -479 l 1088 -479 q 1058 -479 1032 -472 q 1005 -465 982 -446 l 982 -446 q 966 -433 955 -413 q 943 -393 937 -360 q 931 -327 931 -272 l 931 -272 l 931 -209 l 856 -463 q 882 -496 914 -520 q 946 -544 990 -557 q 1033 -571 1090 -571 z"},"ഇ":{"ha":940,"x_min":36,"x_max":904,"o":"m 321 -571 l 321 -571 q 378 -571 418 -558 q 458 -546 487 -525 q 515 -504 537 -478 l 537 -478 l 505 -484 q 538 -533 583 -552 q 627 -571 678 -571 l 678 -571 q 736 -571 779 -550 q 821 -529 849 -492 q 877 -455 891 -408 q 904 -361 904 -310 l 904 -310 q 904 -219 881 -159 q 858 -100 808 -61 l 808 -61 q 781 -41 747 -27 q 713 -14 666 -7 q 619 0 552 0 l 552 0 l 279 0 q 237 0 219 3 q 200 5 189 11 l 189 11 q 174 18 168 29 q 162 39 162 52 l 162 52 q 162 65 167 76 q 172 86 183 94 l 183 94 q 195 101 216 105 q 236 109 277 109 l 277 109 l 886 109 l 886 201 l 267 201 q 211 201 170 193 q 129 184 103 168 l 103 168 q 74 149 59 122 q 43 94 43 58 l 43 58 q 43 21 58 -8 q 73 -38 104 -58 l 104 -58 q 120 -69 141 -76 q 161 -83 191 -86 q 221 -90 263 -90 l 263 -90 l 516 -90 q 584 -90 626 -96 q 668 -103 693 -116 q 718 -129 735 -146 l 735 -146 q 765 -174 775 -215 q 784 -256 784 -305 l 784 -305 q 784 -348 772 -388 q 760 -428 734 -454 q 708 -480 664 -480 l 664 -480 q 645 -480 629 -473 q 613 -467 602 -453 l 602 -453 q 587 -436 581 -407 q 575 -378 575 -322 l 575 -322 l 575 -138 l 458 -138 l 458 -314 q 458 -370 448 -400 q 438 -431 419 -449 l 419 -449 q 402 -465 377 -473 q 352 -481 313 -481 l 313 -481 q 281 -481 255 -474 q 228 -467 207 -454 q 186 -442 171 -423 q 155 -404 145 -381 l 145 -381 q 142 -375 142 -367 q 141 -359 140 -353 l 140 -353 q 139 -343 137 -332 q 135 -321 135 -307 l 135 -307 q 135 -257 153 -230 q 171 -204 205 -204 l 205 -204 q 236 -204 250 -225 q 264 -246 264 -276 l 264 -276 q 264 -297 258 -312 q 252 -328 239 -337 q 225 -346 204 -346 l 204 -346 q 172 -346 151 -332 q 129 -319 108 -304 l 108 -304 l 50 -329 q 68 -351 96 -373 q 124 -395 159 -409 q 193 -424 229 -424 l 229 -424 q 281 -424 313 -403 q 344 -383 360 -350 q 375 -317 375 -277 l 375 -277 q 375 -235 358 -199 q 340 -164 303 -142 q 265 -121 207 -121 l 207 -121 q 156 -121 118 -144 q 79 -167 58 -210 q 36 -254 36 -318 l 36 -318 q 36 -392 72 -449 q 107 -506 171 -538 q 234 -571 321 -571 z"},"ഈ":{"ha":1676,"x_min":36,"x_max":1639,"o":"m 321 -571 l 321 -571 q 378 -571 418 -558 q 458 -546 487 -525 q 515 -504 537 -478 l 537 -478 l 505 -484 q 538 -533 583 -552 q 627 -571 678 -571 l 678 -571 q 736 -571 779 -550 q 821 -529 849 -492 q 877 -455 891 -408 q 904 -361 904 -310 l 904 -310 q 904 -219 881 -159 q 858 -100 808 -61 l 808 -61 q 781 -41 747 -27 q 713 -14 666 -7 q 619 0 552 0 l 552 0 l 279 0 q 237 0 219 3 q 200 5 189 11 l 189 11 q 174 18 168 29 q 162 39 162 52 l 162 52 q 162 65 167 76 q 172 86 183 94 l 183 94 q 195 101 216 105 q 236 109 277 109 l 277 109 l 886 109 l 886 201 l 267 201 q 211 201 170 193 q 129 184 103 168 l 103 168 q 74 149 59 122 q 43 94 43 58 l 43 58 q 43 21 58 -8 q 73 -38 104 -58 l 104 -58 q 120 -69 141 -76 q 161 -83 191 -86 q 221 -90 263 -90 l 263 -90 l 516 -90 q 584 -90 626 -96 q 668 -103 693 -116 q 718 -129 735 -146 l 735 -146 q 765 -174 775 -215 q 784 -256 784 -305 l 784 -305 q 784 -348 772 -388 q 760 -428 734 -454 q 708 -480 664 -480 l 664 -480 q 645 -480 629 -473 q 613 -467 602 -453 l 602 -453 q 587 -436 581 -407 q 575 -378 575 -322 l 575 -322 l 575 -138 l 458 -138 l 458 -314 q 458 -370 448 -400 q 438 -431 419 -449 l 419 -449 q 402 -465 377 -473 q 352 -481 313 -481 l 313 -481 q 281 -481 255 -474 q 228 -467 207 -454 q 186 -442 171 -423 q 155 -404 145 -381 l 145 -381 q 142 -375 142 -367 q 141 -359 140 -353 l 140 -353 q 139 -343 137 -332 q 135 -321 135 -307 l 135 -307 q 135 -257 153 -230 q 171 -204 205 -204 l 205 -204 q 236 -204 250 -225 q 264 -246 264 -276 l 264 -276 q 264 -297 258 -312 q 252 -328 239 -337 q 225 -346 204 -346 l 204 -346 q 172 -346 151 -332 q 129 -319 108 -304 l 108 -304 l 50 -329 q 68 -351 96 -373 q 124 -395 159 -409 q 193 -424 229 -424 l 229 -424 q 281 -424 313 -403 q 344 -383 360 -350 q 375 -317 375 -277 l 375 -277 q 375 -235 358 -199 q 340 -164 303 -142 q 265 -121 207 -121 l 207 -121 q 156 -121 118 -144 q 79 -167 58 -210 q 36 -254 36 -318 l 36 -318 q 36 -392 72 -449 q 107 -506 171 -538 q 234 -571 321 -571 z m 1436 -571 l 1436 -571 q 1501 -571 1546 -539 q 1591 -507 1615 -448 q 1639 -389 1639 -308 l 1639 -308 q 1639 -204 1607 -132 q 1575 -61 1513 -24 q 1450 12 1358 12 l 1358 12 q 1293 12 1242 0 q 1190 -12 1141 -37 l 1141 -37 l 1189 -123 q 1227 -104 1264 -92 q 1301 -81 1349 -81 l 1349 -81 q 1413 -81 1450 -108 q 1487 -136 1503 -186 q 1518 -236 1518 -306 l 1518 -306 q 1518 -396 1493 -438 q 1468 -480 1428 -480 l 1428 -480 q 1407 -480 1394 -472 q 1381 -465 1373 -451 l 1373 -451 q 1364 -437 1362 -417 q 1359 -398 1359 -357 l 1359 -357 l 1359 -262 l 1241 -262 l 1241 -341 q 1241 -385 1238 -410 q 1235 -435 1227 -449 l 1227 -449 q 1217 -466 1202 -473 q 1187 -480 1170 -480 l 1170 -480 q 1130 -480 1110 -451 q 1090 -422 1090 -383 l 1090 -383 q 1090 -350 1095 -326 q 1099 -302 1105 -282 l 1105 -282 l 991 -257 q 982 -286 977 -320 q 972 -355 972 -384 l 972 -384 q 972 -434 992 -476 q 1011 -519 1053 -545 q 1094 -571 1159 -571 l 1159 -571 q 1210 -571 1245 -553 q 1280 -535 1304 -501 l 1304 -501 l 1291 -502 q 1318 -539 1353 -555 q 1388 -571 1436 -571 z"},"ഉ":{"ha":674,"x_min":36,"x_max":638,"o":"m 337 -571 l 337 -571 q 421 -571 479 -547 q 536 -523 572 -483 q 607 -443 623 -394 q 638 -345 638 -294 l 638 -294 q 638 -219 619 -163 q 599 -108 557 -73 l 557 -73 q 524 -45 485 -29 q 445 -13 395 -6 q 345 0 282 0 l 282 0 l 271 0 q 236 0 218 3 q 200 5 189 11 l 189 11 q 174 17 168 28 q 162 39 162 52 l 162 52 q 162 65 167 76 q 172 86 183 94 l 183 94 q 195 101 216 105 q 236 109 277 109 l 277 109 l 620 109 l 620 201 l 267 201 q 211 201 170 193 q 129 184 103 168 l 103 168 q 74 149 59 122 q 43 94 43 58 l 43 58 q 43 21 58 -9 q 73 -39 104 -59 l 104 -59 q 128 -74 163 -82 q 198 -90 255 -90 l 255 -90 l 257 -90 q 320 -90 363 -96 q 405 -103 432 -115 q 459 -128 477 -148 l 477 -148 q 500 -174 509 -210 q 518 -247 518 -292 l 518 -292 q 518 -325 509 -358 q 499 -391 478 -419 q 456 -447 419 -463 q 382 -480 327 -480 l 327 -480 q 289 -480 259 -472 q 228 -465 205 -450 q 181 -436 165 -415 q 149 -395 140 -368 l 140 -368 q 140 -364 141 -360 q 141 -357 140 -354 l 140 -354 q 139 -345 137 -334 q 135 -323 135 -307 l 135 -307 q 135 -257 153 -230 q 171 -204 205 -204 l 205 -204 q 236 -204 250 -225 q 264 -246 264 -276 l 264 -276 q 264 -297 258 -312 q 252 -328 239 -337 q 225 -346 204 -346 l 204 -346 q 172 -346 150 -332 q 127 -319 108 -304 l 108 -304 l 50 -329 q 68 -351 96 -373 q 124 -395 159 -409 q 193 -424 229 -424 l 229 -424 q 281 -424 313 -403 q 344 -383 360 -350 q 375 -317 375 -277 l 375 -277 q 375 -235 358 -199 q 340 -164 303 -142 q 265 -121 207 -121 l 207 -121 q 156 -121 118 -143 q 79 -166 58 -210 q 36 -254 36 -317 l 36 -317 q 36 -371 57 -417 q 77 -464 116 -498 q 154 -533 210 -552 q 266 -571 337 -571 z"},"ഊ":{"ha":1410,"x_min":36,"x_max":1373,"o":"m 337 -571 l 337 -571 q 421 -571 479 -547 q 536 -523 572 -483 q 607 -443 623 -394 q 638 -345 638 -294 l 638 -294 q 638 -219 619 -163 q 599 -108 557 -73 l 557 -73 q 524 -45 485 -29 q 445 -13 395 -6 q 345 0 282 0 l 282 0 l 271 0 q 236 0 218 3 q 200 5 189 11 l 189 11 q 174 17 168 28 q 162 39 162 52 l 162 52 q 162 65 167 76 q 172 86 183 94 l 183 94 q 195 101 216 105 q 236 109 277 109 l 277 109 l 620 109 l 620 201 l 267 201 q 211 201 170 193 q 129 184 103 168 l 103 168 q 74 149 59 122 q 43 94 43 58 l 43 58 q 43 21 58 -9 q 73 -39 104 -59 l 104 -59 q 128 -74 163 -82 q 198 -90 255 -90 l 255 -90 l 257 -90 q 320 -90 363 -96 q 405 -103 432 -115 q 459 -128 477 -148 l 477 -148 q 500 -174 509 -210 q 518 -247 518 -292 l 518 -292 q 518 -325 509 -358 q 499 -391 478 -419 q 456 -447 419 -463 q 382 -480 327 -480 l 327 -480 q 289 -480 259 -472 q 228 -465 205 -450 q 181 -436 165 -415 q 149 -395 140 -368 l 140 -368 q 140 -364 141 -360 q 141 -357 140 -354 l 140 -354 q 139 -345 137 -334 q 135 -323 135 -307 l 135 -307 q 135 -257 153 -230 q 171 -204 205 -204 l 205 -204 q 236 -204 250 -225 q 264 -246 264 -276 l 264 -276 q 264 -297 258 -312 q 252 -328 239 -337 q 225 -346 204 -346 l 204 -346 q 172 -346 150 -332 q 127 -319 108 -304 l 108 -304 l 50 -329 q 68 -351 96 -373 q 124 -395 159 -409 q 193 -424 229 -424 l 229 -424 q 281 -424 313 -403 q 344 -383 360 -350 q 375 -317 375 -277 l 375 -277 q 375 -235 358 -199 q 340 -164 303 -142 q 265 -121 207 -121 l 207 -121 q 156 -121 118 -143 q 79 -166 58 -210 q 36 -254 36 -317 l 36 -317 q 36 -371 57 -417 q 77 -464 116 -498 q 154 -533 210 -552 q 266 -571 337 -571 z m 1170 -571 l 1170 -571 q 1235 -571 1280 -539 q 1325 -507 1349 -448 q 1373 -389 1373 -308 l 1373 -308 q 1373 -204 1341 -132 q 1309 -61 1247 -24 q 1184 12 1092 12 l 1092 12 q 1027 12 976 0 q 924 -12 875 -37 l 875 -37 l 923 -123 q 961 -104 998 -92 q 1035 -81 1083 -81 l 1083 -81 q 1147 -81 1184 -108 q 1221 -136 1237 -186 q 1252 -236 1252 -306 l 1252 -306 q 1252 -396 1227 -438 q 1202 -480 1162 -480 l 1162 -480 q 1141 -480 1128 -472 q 1115 -465 1107 -451 l 1107 -451 q 1098 -437 1096 -417 q 1093 -398 1093 -357 l 1093 -357 l 1093 -262 l 975 -262 l 975 -341 q 975 -385 972 -410 q 969 -435 961 -449 l 961 -449 q 951 -466 936 -473 q 921 -480 904 -480 l 904 -480 q 864 -480 844 -451 q 824 -422 824 -383 l 824 -383 q 824 -350 829 -326 q 833 -302 839 -282 l 839 -282 l 725 -257 q 716 -286 711 -320 q 706 -355 706 -384 l 706 -384 q 706 -434 726 -476 q 745 -519 787 -545 q 828 -571 893 -571 l 893 -571 q 944 -571 979 -553 q 1014 -535 1038 -501 l 1038 -501 l 1025 -502 q 1052 -539 1087 -555 q 1122 -571 1170 -571 z"},"ഋ":{"ha":882,"x_min":34,"x_max":848,"o":"m 654 -571 l 654 -571 q 744 -571 796 -514 q 848 -458 848 -352 l 848 -352 q 848 -283 823 -231 q 798 -179 752 -143 l 752 -143 q 711 -109 654 -91 q 596 -74 516 -74 l 516 -74 l 369 -74 q 318 -74 277 -80 q 235 -87 203 -101 q 170 -115 142 -136 l 142 -136 q 90 -172 62 -226 q 34 -280 34 -351 l 34 -351 q 34 -419 59 -468 q 84 -517 130 -544 q 175 -571 237 -571 l 237 -571 q 296 -571 335 -548 q 373 -525 393 -486 q 412 -448 412 -402 l 412 -402 q 412 -350 393 -312 q 373 -275 336 -255 q 298 -236 245 -236 l 245 -236 q 205 -236 172 -250 q 138 -264 113 -284 q 87 -305 70 -323 l 70 -323 l 100 -408 q 115 -386 132 -366 q 148 -346 170 -333 q 191 -321 222 -321 l 222 -321 q 259 -321 279 -342 q 298 -363 298 -405 l 298 -405 q 298 -441 280 -462 q 262 -484 230 -484 l 230 -484 q 202 -484 183 -469 q 164 -455 154 -428 q 144 -401 144 -362 l 144 -362 q 144 -344 147 -327 q 149 -311 152 -297 l 152 -297 l 146 -279 q 160 -244 187 -221 q 213 -198 249 -185 q 285 -173 326 -167 q 367 -162 410 -162 l 410 -162 l 472 -162 q 514 -162 555 -167 q 596 -172 633 -184 q 670 -197 697 -220 q 724 -243 737 -279 l 737 -279 l 731 -297 q 735 -311 737 -327 q 739 -343 739 -359 l 739 -359 q 739 -401 730 -428 q 720 -456 702 -470 q 683 -484 656 -484 l 656 -484 q 623 -484 605 -462 q 586 -440 586 -402 l 586 -402 q 586 -362 605 -341 q 624 -321 661 -321 l 661 -321 q 692 -321 714 -333 q 735 -345 752 -365 q 768 -385 783 -407 l 783 -407 l 813 -323 q 797 -305 772 -284 q 746 -264 713 -250 q 679 -236 638 -236 l 638 -236 q 585 -236 548 -255 q 510 -275 491 -312 q 472 -349 472 -401 l 472 -401 q 472 -448 493 -487 q 513 -526 554 -548 q 594 -571 654 -571 z m 444 235 l 444 235 q 328 235 249 215 q 170 195 130 152 q 90 108 90 38 l 90 38 q 90 -8 113 -40 q 136 -73 177 -93 q 218 -113 271 -122 q 324 -132 383 -132 l 383 -132 l 496 -132 q 558 -132 612 -122 q 666 -113 707 -93 q 748 -73 771 -40 q 793 -7 793 40 l 793 40 q 793 102 757 146 q 721 190 644 213 q 567 235 444 235 z m 443 142 l 443 142 q 526 142 576 130 q 626 118 650 95 q 673 71 673 36 l 673 36 q 673 3 655 -17 q 636 -38 605 -49 q 573 -61 534 -65 q 494 -70 451 -70 l 451 -70 l 433 -70 q 372 -70 322 -61 q 271 -52 241 -29 q 210 -6 210 35 l 210 35 q 210 72 234 96 q 257 119 309 131 q 360 142 443 142 z"},"ഌ":{"ha":1143,"x_min":38,"x_max":1107,"o":"m 353 -571 l 353 -571 q 432 -571 484 -545 q 535 -520 576 -471 l 576 -471 l 595 -398 l 613 -221 l 613 0 l 495 0 l 495 -291 q 495 -359 485 -393 q 475 -427 455 -445 l 455 -445 q 438 -462 415 -470 q 391 -479 352 -479 l 352 -479 q 292 -479 246 -451 q 200 -423 174 -370 q 147 -317 147 -242 l 147 -242 l 147 -231 q 147 -174 159 -139 q 170 -105 190 -90 q 209 -76 234 -76 l 234 -76 q 254 -76 268 -85 q 282 -95 290 -114 q 297 -133 297 -163 l 297 -163 q 297 -208 280 -230 q 262 -252 226 -252 l 226 -252 q 193 -252 163 -233 q 133 -215 104 -180 l 104 -180 l 89 -262 q 115 -292 159 -315 q 202 -339 254 -339 l 254 -339 q 304 -339 340 -319 q 375 -299 394 -261 q 412 -223 412 -170 l 412 -170 q 412 -112 391 -71 q 370 -31 331 -9 q 292 12 237 12 l 237 12 q 185 12 140 -13 q 94 -39 66 -95 q 38 -151 38 -242 l 38 -242 q 38 -351 80 -424 q 121 -497 193 -534 q 264 -571 353 -571 z m 896 12 l 896 12 q 828 12 786 -17 q 744 -46 724 -95 q 704 -144 704 -203 l 704 -203 q 704 -297 750 -352 q 796 -407 881 -407 l 881 -407 q 932 -407 970 -381 q 1008 -355 1033 -312 q 1057 -270 1064 -221 l 1064 -221 l 1021 -219 q 1015 -243 1000 -266 q 985 -289 962 -304 q 939 -320 909 -320 l 909 -320 q 862 -320 841 -288 q 820 -257 820 -200 l 820 -200 q 820 -163 828 -135 q 836 -107 854 -92 q 872 -78 900 -78 l 900 -78 q 929 -78 950 -94 q 970 -110 981 -146 q 991 -182 991 -241 l 991 -241 q 991 -253 990 -271 q 988 -289 986 -306 l 986 -306 q 985 -312 986 -319 q 987 -326 985 -330 l 985 -330 q 979 -369 955 -402 q 930 -436 887 -457 q 844 -479 781 -479 l 781 -479 q 743 -479 716 -472 q 689 -465 665 -446 l 665 -446 q 649 -433 638 -413 q 626 -393 620 -360 q 613 -328 613 -274 l 613 -274 l 613 -210 l 540 -464 q 566 -495 598 -519 q 630 -544 675 -557 q 719 -571 784 -571 l 784 -571 q 863 -571 924 -546 q 984 -521 1025 -476 q 1066 -431 1087 -370 q 1107 -310 1107 -239 l 1107 -239 q 1107 -150 1081 -94 q 1054 -39 1007 -13 q 960 12 896 12 z"},"എ":{"ha":1233,"x_min":30,"x_max":1192,"o":"m 233 -356 l 233 -356 q 303 -356 348 -329 q 392 -303 413 -261 q 434 -220 434 -175 l 434 -175 q 434 -139 423 -110 q 412 -82 400 -65 l 400 -65 l 384 -90 l 837 -90 l 831 0 l 326 0 l 284 -56 q 297 -75 308 -101 q 319 -127 319 -164 l 319 -164 q 319 -209 298 -237 q 276 -266 234 -266 l 234 -266 q 205 -266 186 -253 q 167 -241 157 -218 q 147 -196 147 -167 l 147 -167 q 147 -125 161 -96 q 175 -68 195 -43 l 195 -43 l 107 10 q 72 -28 51 -71 q 30 -115 30 -172 l 30 -172 q 30 -227 56 -268 q 81 -310 127 -333 q 172 -356 233 -356 z m 873 -571 l 873 -571 q 952 -571 1012 -545 q 1071 -519 1111 -468 q 1151 -418 1172 -344 q 1192 -270 1192 -175 l 1192 -175 q 1192 -98 1176 -27 q 1160 44 1130 108 q 1100 172 1057 228 l 1057 228 l 966 172 q 1002 123 1025 69 q 1047 15 1059 -45 q 1070 -106 1070 -175 l 1070 -175 q 1070 -237 1060 -292 q 1049 -347 1026 -389 q 1003 -432 965 -456 q 927 -481 871 -481 l 871 -481 q 800 -481 754 -439 q 708 -397 685 -322 q 662 -247 662 -145 l 662 -145 q 662 -116 663 -92 q 664 -68 666 -48 l 666 -48 q 666 -42 666 -37 q 665 -32 665 -25 l 665 -25 q 670 38 684 75 q 697 111 718 126 q 738 141 761 141 l 761 141 q 782 141 792 127 l 792 127 q 798 120 800 109 q 802 97 802 77 l 802 77 l 802 -395 l 920 -395 l 920 51 q 920 100 912 132 q 903 164 882 186 l 882 186 q 864 205 835 217 q 806 228 766 228 l 766 228 q 698 228 648 189 q 597 150 570 68 q 543 -15 543 -145 l 543 -145 q 543 -239 563 -317 q 583 -395 625 -452 q 666 -509 728 -540 q 790 -571 873 -571 z"},"ഏ":{"ha":1243,"x_min":29,"x_max":1214,"o":"m 233 -356 l 233 -356 q 303 -356 348 -329 q 392 -303 413 -261 q 434 -220 434 -175 l 434 -175 q 434 -139 423 -110 q 411 -82 400 -65 l 400 -65 l 378 -90 l 832 -90 l 830 0 l 325 0 l 284 -56 q 297 -75 308 -101 q 319 -127 319 -164 l 319 -164 q 319 -209 298 -237 q 276 -266 233 -266 l 233 -266 q 205 -266 186 -253 q 166 -241 157 -218 q 147 -196 147 -167 l 147 -167 q 147 -125 161 -97 q 175 -69 194 -43 l 194 -43 l 106 10 q 71 -28 50 -71 q 29 -115 29 -172 l 29 -172 q 29 -227 55 -268 q 80 -310 126 -333 q 172 -356 233 -356 z m 915 -571 l 915 -571 q 994 -571 1050 -551 q 1105 -532 1139 -498 q 1173 -464 1189 -422 q 1205 -381 1205 -336 l 1205 -336 q 1205 -285 1189 -247 q 1173 -210 1148 -184 q 1123 -158 1093 -141 l 1093 -141 l 1093 -151 q 1150 -126 1182 -83 q 1214 -40 1214 31 l 1214 31 q 1214 99 1189 143 q 1164 186 1121 207 q 1078 228 1022 228 l 1022 228 q 1002 228 979 226 q 955 224 940 220 l 940 220 l 957 131 q 967 135 980 136 q 993 137 1001 137 l 1001 137 q 1034 137 1054 125 q 1074 112 1084 88 q 1093 63 1093 27 l 1093 27 q 1093 -25 1064 -59 q 1035 -94 975 -95 l 975 -95 l 975 -184 q 1010 -193 1034 -210 q 1058 -228 1071 -257 q 1084 -287 1084 -330 l 1084 -330 q 1084 -371 1067 -404 q 1049 -438 1012 -458 q 974 -479 911 -479 l 911 -479 q 823 -479 768 -436 q 712 -394 687 -318 q 662 -243 662 -145 l 662 -145 q 662 -116 663 -92 q 664 -68 665 -48 l 665 -48 q 665 -43 665 -37 q 665 -31 665 -25 l 665 -25 q 670 38 684 75 q 697 111 717 126 q 737 141 761 141 l 761 141 q 782 141 792 127 l 792 127 q 797 120 800 109 q 802 97 802 77 l 802 77 l 802 -395 l 920 -395 l 920 51 q 920 100 911 132 q 902 164 881 186 l 881 186 q 863 205 835 217 q 806 228 766 228 l 766 228 q 697 228 647 189 q 597 150 570 68 q 542 -15 542 -146 l 542 -146 q 542 -242 566 -320 q 589 -398 636 -454 q 683 -510 753 -540 q 822 -571 915 -571 z"},"ഐ":{"ha":1931,"x_min":36,"x_max":1890,"o":"m 236 12 l 236 12 q 183 12 138 -13 q 92 -39 64 -94 q 36 -149 36 -238 l 36 -238 q 36 -314 60 -375 q 83 -437 127 -480 q 171 -524 232 -547 q 293 -571 367 -571 l 367 -571 q 442 -571 498 -549 q 553 -527 589 -488 q 625 -449 643 -396 q 661 -344 661 -283 l 661 -283 q 661 -215 643 -161 q 624 -108 592 -66 q 560 -24 519 11 l 519 11 l 440 -56 q 468 -83 491 -114 q 513 -146 527 -186 q 540 -226 540 -279 l 540 -279 q 540 -340 520 -385 q 499 -430 458 -454 q 417 -479 358 -479 l 358 -479 q 295 -479 247 -447 q 198 -415 172 -360 q 145 -305 145 -234 l 145 -234 q 145 -175 157 -140 q 168 -105 188 -90 q 207 -76 232 -76 l 232 -76 q 252 -76 266 -85 q 280 -95 288 -114 q 295 -134 295 -163 l 295 -163 q 295 -207 278 -229 q 260 -252 225 -252 l 225 -252 q 192 -252 162 -233 q 132 -215 102 -180 l 102 -180 l 87 -262 q 113 -292 156 -315 q 199 -339 251 -339 l 251 -339 q 302 -339 337 -319 q 372 -299 391 -261 q 410 -223 410 -170 l 410 -170 q 410 -112 389 -71 q 368 -31 330 -9 q 291 12 236 12 z m 931 -356 l 931 -356 q 1001 -356 1046 -329 q 1090 -303 1111 -261 q 1132 -220 1132 -175 l 1132 -175 q 1132 -139 1121 -110 q 1110 -82 1098 -65 l 1098 -65 l 1082 -90 l 1535 -90 l 1529 0 l 1024 0 l 982 -56 q 995 -75 1006 -101 q 1017 -127 1017 -164 l 1017 -164 q 1017 -209 996 -237 q 974 -266 932 -266 l 932 -266 q 903 -266 884 -253 q 865 -241 855 -218 q 845 -196 845 -167 l 845 -167 q 845 -125 859 -96 q 873 -68 893 -43 l 893 -43 l 805 10 q 770 -28 749 -71 q 728 -115 728 -172 l 728 -172 q 728 -227 754 -268 q 779 -310 825 -333 q 870 -356 931 -356 z m 1571 -571 l 1571 -571 q 1650 -571 1710 -545 q 1769 -519 1809 -468 q 1849 -418 1870 -344 q 1890 -270 1890 -175 l 1890 -175 q 1890 -98 1874 -27 q 1858 44 1828 108 q 1798 172 1755 228 l 1755 228 l 1664 172 q 1700 123 1723 69 q 1745 15 1757 -45 q 1768 -106 1768 -175 l 1768 -175 q 1768 -237 1758 -292 q 1747 -347 1724 -389 q 1701 -432 1663 -456 q 1625 -481 1569 -481 l 1569 -481 q 1498 -481 1452 -439 q 1406 -397 1383 -322 q 1360 -247 1360 -145 l 1360 -145 q 1360 -116 1361 -92 q 1362 -68 1364 -48 l 1364 -48 q 1364 -42 1364 -37 q 1363 -32 1363 -25 l 1363 -25 q 1368 38 1382 75 q 1395 111 1416 126 q 1436 141 1459 141 l 1459 141 q 1480 141 1490 127 l 1490 127 q 1496 120 1498 109 q 1500 97 1500 77 l 1500 77 l 1500 -395 l 1618 -395 l 1618 51 q 1618 100 1610 132 q 1601 164 1580 186 l 1580 186 q 1562 205 1533 217 q 1504 228 1464 228 l 1464 228 q 1396 228 1346 189 q 1295 150 1268 68 q 1241 -15 1241 -145 l 1241 -145 q 1241 -239 1261 -317 q 1281 -395 1323 -452 q 1364 -509 1426 -540 q 1488 -571 1571 -571 z"},"ഒ":{"ha":743,"x_min":37,"x_max":710,"o":"m 440 -571 l 440 -571 q 536 -571 593 -549 q 650 -527 675 -490 q 700 -453 700 -406 l 700 -406 q 700 -378 691 -353 q 681 -329 661 -310 q 640 -291 606 -276 l 606 -276 l 604 -282 q 655 -265 683 -228 q 710 -192 710 -143 l 710 -143 q 710 -70 664 -29 q 618 12 530 12 l 530 12 q 499 12 474 8 q 448 4 429 0 l 429 0 l 446 -88 q 460 -84 476 -81 q 492 -78 510 -78 l 510 -78 q 553 -78 572 -95 q 591 -113 591 -150 l 591 -150 q 591 -167 585 -182 q 578 -197 565 -208 l 565 -208 q 552 -220 531 -226 q 509 -233 470 -233 l 470 -233 l 455 -233 l 455 -322 l 469 -322 q 506 -322 527 -328 q 547 -334 562 -347 l 562 -347 q 571 -357 576 -368 q 581 -380 581 -396 l 581 -396 q 581 -436 546 -457 q 511 -479 433 -479 l 433 -479 q 371 -479 319 -463 q 266 -447 228 -417 q 189 -387 168 -343 q 146 -299 146 -243 l 146 -243 l 146 -229 q 146 -172 157 -138 q 168 -105 188 -90 q 208 -76 233 -76 l 233 -76 q 253 -76 267 -85 q 281 -95 289 -114 q 296 -133 296 -163 l 296 -163 q 296 -208 278 -230 q 260 -252 225 -252 l 225 -252 q 193 -252 164 -234 q 134 -216 106 -182 l 106 -182 l 93 -267 q 119 -294 160 -316 q 201 -339 252 -339 l 252 -339 q 302 -339 338 -319 q 373 -299 392 -261 q 411 -223 411 -170 l 411 -170 q 411 -112 390 -71 q 369 -31 330 -9 q 291 12 236 12 l 236 12 q 182 12 137 -13 q 91 -39 64 -93 q 37 -147 37 -232 l 37 -232 q 37 -312 65 -375 q 93 -438 146 -481 q 199 -525 274 -548 q 348 -571 440 -571 z"},"ഓ":{"ha":1245,"x_min":37,"x_max":1206,"o":"m 440 -571 l 440 -571 q 536 -571 593 -549 q 650 -527 675 -490 q 700 -453 700 -406 l 700 -406 q 700 -378 691 -353 q 681 -329 661 -310 q 640 -291 606 -276 l 606 -276 l 604 -282 q 655 -265 683 -228 q 710 -192 710 -143 l 710 -143 q 710 -70 664 -29 q 618 12 530 12 l 530 12 q 499 12 474 8 q 448 4 429 0 l 429 0 l 446 -88 q 460 -84 476 -81 q 492 -78 510 -78 l 510 -78 q 553 -78 572 -95 q 591 -113 591 -150 l 591 -150 q 591 -167 585 -182 q 578 -197 565 -208 l 565 -208 q 552 -220 531 -226 q 509 -233 470 -233 l 470 -233 l 455 -233 l 455 -322 l 469 -322 q 506 -322 527 -328 q 547 -334 562 -347 l 562 -347 q 571 -357 576 -368 q 581 -380 581 -396 l 581 -396 q 581 -436 546 -457 q 511 -479 433 -479 l 433 -479 q 371 -479 319 -463 q 266 -447 228 -417 q 189 -387 168 -343 q 146 -299 146 -243 l 146 -243 l 146 -229 q 146 -172 157 -138 q 168 -105 188 -90 q 208 -76 233 -76 l 233 -76 q 253 -76 267 -85 q 281 -95 289 -114 q 296 -133 296 -163 l 296 -163 q 296 -208 278 -230 q 260 -252 225 -252 l 225 -252 q 193 -252 164 -234 q 134 -216 106 -182 l 106 -182 l 93 -267 q 119 -294 160 -316 q 201 -339 252 -339 l 252 -339 q 302 -339 338 -319 q 373 -299 392 -261 q 411 -223 411 -170 l 411 -170 q 411 -112 390 -71 q 369 -31 330 -9 q 291 12 236 12 l 236 12 q 182 12 137 -13 q 91 -39 64 -93 q 37 -147 37 -232 l 37 -232 q 37 -312 65 -375 q 93 -438 146 -481 q 199 -525 274 -548 q 348 -571 440 -571 z m 1206 -281 l 1206 -281 q 1206 -219 1195 -166 q 1183 -113 1157 -73 q 1131 -33 1087 -10 q 1043 12 977 12 l 977 12 q 920 12 881 -5 q 842 -22 817 -49 q 792 -77 778 -111 q 764 -145 757 -178 l 757 -178 l 877 -199 q 883 -173 894 -144 q 904 -116 924 -96 q 944 -77 977 -77 l 977 -77 q 1015 -77 1039 -102 q 1062 -127 1073 -172 q 1084 -218 1084 -281 l 1084 -281 q 1084 -343 1073 -388 q 1062 -433 1039 -457 q 1016 -482 980 -482 l 980 -482 q 949 -482 929 -464 q 909 -446 897 -418 q 885 -391 879 -361 l 879 -361 l 760 -383 q 770 -417 786 -450 q 801 -484 827 -511 q 853 -538 892 -554 q 931 -571 986 -571 l 986 -571 q 1048 -571 1091 -548 q 1133 -526 1159 -486 q 1184 -447 1195 -394 q 1206 -342 1206 -281 z"},"ഔ":{"ha":1475,"x_min":37,"x_max":1439,"o":"m 440 -571 l 440 -571 q 536 -571 593 -549 q 650 -527 675 -490 q 700 -453 700 -406 l 700 -406 q 700 -378 691 -353 q 681 -329 661 -310 q 640 -291 606 -276 l 606 -276 l 604 -282 q 655 -265 683 -228 q 710 -192 710 -143 l 710 -143 q 710 -70 664 -29 q 618 12 530 12 l 530 12 q 499 12 474 8 q 448 4 429 0 l 429 0 l 446 -88 q 460 -84 476 -81 q 492 -78 510 -78 l 510 -78 q 553 -78 572 -95 q 591 -113 591 -150 l 591 -150 q 591 -167 585 -182 q 578 -197 565 -208 l 565 -208 q 552 -220 531 -226 q 509 -233 470 -233 l 470 -233 l 455 -233 l 455 -322 l 469 -322 q 506 -322 527 -328 q 547 -334 562 -347 l 562 -347 q 571 -357 576 -368 q 581 -380 581 -396 l 581 -396 q 581 -436 546 -457 q 511 -479 433 -479 l 433 -479 q 371 -479 319 -463 q 266 -447 228 -417 q 189 -387 168 -343 q 146 -299 146 -243 l 146 -243 l 146 -229 q 146 -172 157 -138 q 168 -105 188 -90 q 208 -76 233 -76 l 233 -76 q 253 -76 267 -85 q 281 -95 289 -114 q 296 -133 296 -163 l 296 -163 q 296 -208 278 -230 q 260 -252 225 -252 l 225 -252 q 193 -252 164 -234 q 134 -216 106 -182 l 106 -182 l 93 -267 q 119 -294 160 -316 q 201 -339 252 -339 l 252 -339 q 302 -339 338 -319 q 373 -299 392 -261 q 411 -223 411 -170 l 411 -170 q 411 -112 390 -71 q 369 -31 330 -9 q 291 12 236 12 l 236 12 q 182 12 137 -13 q 91 -39 64 -93 q 37 -147 37 -232 l 37 -232 q 37 -312 65 -375 q 93 -438 146 -481 q 199 -525 274 -548 q 348 -571 440 -571 z m 1236 -571 l 1236 -571 q 1301 -571 1346 -539 q 1391 -507 1415 -448 q 1439 -389 1439 -308 l 1439 -308 q 1439 -204 1407 -132 q 1375 -61 1313 -24 q 1250 12 1158 12 l 1158 12 q 1093 12 1042 0 q 990 -12 941 -37 l 941 -37 l 989 -123 q 1027 -104 1064 -92 q 1101 -81 1149 -81 l 1149 -81 q 1213 -81 1250 -108 q 1287 -136 1303 -186 q 1318 -236 1318 -306 l 1318 -306 q 1318 -396 1293 -438 q 1268 -480 1228 -480 l 1228 -480 q 1207 -480 1194 -472 q 1181 -465 1173 -451 l 1173 -451 q 1164 -437 1162 -417 q 1159 -398 1159 -357 l 1159 -357 l 1159 -262 l 1041 -262 l 1041 -341 q 1041 -385 1038 -410 q 1035 -435 1027 -449 l 1027 -449 q 1017 -466 1002 -473 q 987 -480 970 -480 l 970 -480 q 930 -480 910 -451 q 890 -422 890 -383 l 890 -383 q 890 -350 895 -326 q 899 -302 905 -282 l 905 -282 l 791 -257 q 782 -286 777 -320 q 772 -355 772 -384 l 772 -384 q 772 -434 792 -476 q 811 -519 853 -545 q 894 -571 959 -571 l 959 -571 q 1010 -571 1045 -553 q 1080 -535 1104 -501 l 1104 -501 l 1091 -502 q 1118 -539 1153 -555 q 1188 -571 1236 -571 z"},"ക":{"ha":1016,"x_min":30,"x_max":987,"o":"m 211 12 l 211 12 q 123 12 77 -33 q 30 -78 30 -157 l 30 -157 q 30 -208 53 -243 q 75 -279 112 -300 l 112 -300 q 136 -313 164 -322 q 192 -331 233 -335 q 273 -339 334 -339 l 334 -339 l 694 -339 q 781 -339 832 -328 q 883 -318 919 -293 l 919 -293 q 950 -272 969 -238 q 987 -205 987 -156 l 987 -156 q 987 -76 937 -32 q 887 12 808 12 l 808 12 q 786 12 766 9 q 745 6 723 1 l 723 1 l 745 -86 q 755 -83 769 -81 q 782 -79 795 -79 l 795 -79 q 832 -79 852 -98 q 871 -118 871 -156 l 871 -156 q 871 -181 862 -197 q 853 -214 837 -225 l 837 -225 q 816 -240 787 -244 q 757 -249 702 -249 l 702 -249 l 308 -249 q 257 -249 229 -244 q 200 -240 178 -226 l 178 -226 q 163 -216 154 -199 q 144 -183 144 -159 l 144 -159 q 144 -133 153 -114 q 162 -96 181 -87 q 200 -78 228 -78 l 228 -78 q 255 -78 281 -87 q 307 -97 338 -121 l 338 -121 l 392 -44 q 362 -23 334 -10 q 305 2 276 7 q 246 12 211 12 z m 511 -571 l 511 -571 q 594 -571 646 -534 q 697 -498 722 -433 q 747 -368 747 -281 l 747 -281 q 747 -184 719 -119 q 691 -54 638 -21 q 585 12 512 12 l 512 12 q 454 12 410 -8 q 365 -28 336 -63 l 336 -63 q 304 -103 289 -159 q 274 -216 274 -282 l 274 -282 q 274 -420 337 -495 q 399 -571 511 -571 z m 511 -481 l 511 -481 q 450 -481 420 -432 q 390 -383 390 -280 l 390 -280 q 390 -212 404 -167 q 417 -122 444 -100 q 470 -78 510 -78 l 510 -78 q 549 -78 576 -99 q 602 -121 616 -166 q 630 -211 630 -280 l 630 -280 q 630 -350 617 -394 q 603 -439 577 -460 q 550 -481 511 -481 z"},"ഖ":{"ha":978,"x_min":37,"x_max":915,"o":"m 369 -571 l 369 -571 q 444 -571 499 -549 q 554 -528 590 -489 q 626 -450 644 -399 q 661 -348 661 -289 l 661 -289 q 661 -232 648 -187 q 634 -143 612 -106 q 589 -70 561 -35 l 561 -35 l 554 0 l 497 0 l 449 -58 q 473 -86 494 -117 q 515 -149 528 -188 q 540 -228 540 -280 l 540 -280 q 540 -343 519 -387 q 497 -432 457 -455 q 416 -479 360 -479 l 360 -479 q 295 -479 247 -447 q 199 -416 173 -362 q 146 -309 146 -241 l 146 -241 l 146 -231 q 146 -173 158 -139 q 169 -105 189 -90 q 208 -76 233 -76 l 233 -76 q 253 -76 267 -85 q 281 -95 289 -114 q 297 -134 297 -163 l 297 -163 q 297 -207 279 -229 q 261 -252 226 -252 l 226 -252 q 194 -252 165 -234 q 135 -216 106 -182 l 106 -182 l 94 -267 q 119 -294 160 -316 q 201 -339 252 -339 l 252 -339 q 303 -339 339 -319 q 374 -299 393 -261 q 411 -223 411 -170 l 411 -170 q 411 -112 390 -71 q 369 -31 331 -9 q 292 12 237 12 l 237 12 q 184 12 139 -13 q 93 -39 65 -95 q 37 -151 37 -241 l 37 -241 q 37 -344 80 -417 q 122 -491 197 -531 q 272 -571 369 -571 z m 797 -559 l 915 -559 l 915 0 l 529 0 l 567 -90 l 797 -90 l 797 -559 z"},"ഗ":{"ha":865,"x_min":37,"x_max":828,"o":"m 589 -571 l 589 -571 q 664 -571 718 -538 q 771 -506 800 -445 q 828 -385 828 -301 l 828 -301 q 828 -234 813 -178 q 798 -123 769 -76 q 740 -30 699 11 l 699 11 l 613 -55 q 644 -89 665 -125 q 686 -162 697 -204 q 708 -246 708 -295 l 708 -295 q 708 -356 693 -397 q 677 -438 651 -458 q 624 -479 589 -479 l 589 -479 q 562 -479 544 -469 q 526 -460 515 -443 l 515 -443 q 502 -423 497 -391 q 492 -359 492 -298 l 492 -298 l 492 -237 q 492 -194 487 -159 q 482 -125 471 -97 q 460 -70 439 -48 l 439 -48 q 413 -19 373 -3 q 333 12 277 12 l 277 12 q 202 12 149 -21 q 95 -54 66 -114 q 37 -175 37 -259 l 37 -259 q 37 -328 53 -383 q 68 -439 98 -485 q 127 -531 167 -572 l 167 -572 l 252 -506 q 222 -473 201 -436 q 179 -399 168 -356 q 157 -314 157 -264 l 157 -264 q 157 -202 172 -161 q 187 -121 214 -100 q 240 -80 273 -80 l 273 -80 q 303 -80 321 -89 q 339 -99 350 -116 l 350 -116 q 363 -136 368 -168 q 372 -200 372 -260 l 372 -260 l 372 -321 q 372 -388 386 -434 q 399 -480 430 -512 l 430 -512 q 456 -539 493 -555 q 530 -571 589 -571 z"},"ഘ":{"ha":1291,"x_min":30,"x_max":1229,"o":"m 233 -571 l 233 -571 q 303 -571 348 -544 q 392 -518 413 -477 q 434 -436 434 -391 l 434 -391 q 434 -355 423 -327 q 412 -299 400 -282 l 400 -282 l 387 -307 l 584 -307 l 591 -217 l 326 -217 l 284 -273 q 298 -291 309 -317 q 319 -344 319 -381 l 319 -381 q 319 -425 298 -453 q 276 -481 234 -481 l 234 -481 q 205 -481 186 -468 q 167 -456 157 -434 q 147 -412 147 -384 l 147 -384 q 147 -342 161 -313 q 175 -285 194 -260 l 194 -260 l 106 -207 q 71 -245 51 -288 q 30 -332 30 -388 l 30 -388 q 30 -443 56 -484 q 81 -525 127 -548 q 172 -571 233 -571 z m 1110 -559 l 1229 -559 l 1229 0 l 516 0 l 516 -312 q 516 -389 532 -432 q 548 -476 575 -506 l 575 -506 q 605 -537 650 -554 q 694 -571 753 -571 l 753 -571 q 813 -571 857 -554 q 901 -538 929 -507 l 929 -507 q 962 -472 976 -426 q 989 -381 989 -315 l 989 -315 l 989 -217 l 634 -217 l 634 -90 l 1110 -90 l 1110 -559 z m 752 -481 l 752 -481 q 689 -481 662 -440 q 634 -400 634 -326 l 634 -326 l 634 -307 l 870 -307 l 870 -325 q 870 -403 842 -442 q 814 -481 752 -481 z"},"ങ":{"ha":1036,"x_min":38,"x_max":1001,"o":"m 353 -571 l 353 -571 q 432 -571 484 -545 q 536 -520 576 -470 l 576 -470 l 596 -396 l 613 -234 l 613 0 l 495 0 l 495 -291 q 495 -359 485 -393 q 475 -427 455 -445 l 455 -445 q 438 -462 415 -470 q 391 -479 352 -479 l 352 -479 q 292 -479 246 -451 q 200 -423 174 -370 q 147 -317 147 -242 l 147 -242 l 147 -231 q 147 -174 159 -139 q 170 -105 190 -90 q 209 -76 234 -76 l 234 -76 q 254 -76 268 -85 q 282 -95 290 -114 q 297 -133 297 -163 l 297 -163 q 297 -208 280 -230 q 262 -252 226 -252 l 226 -252 q 193 -252 163 -233 q 133 -215 104 -180 l 104 -180 l 89 -262 q 115 -292 159 -315 q 202 -339 254 -339 l 254 -339 q 304 -339 340 -319 q 375 -299 394 -261 q 412 -223 412 -170 l 412 -170 q 412 -112 391 -71 q 370 -31 331 -9 q 292 12 237 12 l 237 12 q 185 12 140 -13 q 94 -39 66 -95 q 38 -151 38 -242 l 38 -242 q 38 -351 80 -424 q 121 -497 193 -534 q 264 -571 353 -571 z m 783 -571 l 783 -571 q 852 -571 899 -550 q 945 -529 969 -493 q 992 -458 992 -414 l 992 -414 q 992 -382 983 -356 q 974 -331 953 -311 q 932 -292 898 -276 l 898 -276 l 897 -282 q 947 -265 974 -228 q 1001 -192 1001 -143 l 1001 -143 q 1001 -70 956 -29 q 910 12 822 12 l 822 12 q 790 12 766 9 q 741 5 722 1 l 722 1 l 740 -87 q 756 -83 771 -80 q 785 -78 802 -78 l 802 -78 q 843 -78 863 -94 q 882 -111 882 -150 l 882 -150 q 882 -167 876 -182 q 870 -197 857 -208 l 857 -208 q 843 -220 823 -226 q 802 -233 764 -233 l 764 -233 l 739 -233 l 739 -322 l 762 -322 q 794 -322 817 -328 q 839 -334 853 -348 l 853 -348 q 862 -357 868 -371 q 873 -385 873 -402 l 873 -402 q 873 -441 848 -460 q 823 -480 779 -480 l 779 -480 q 739 -480 710 -468 q 681 -457 662 -434 l 662 -434 q 646 -417 635 -393 q 624 -369 619 -334 q 613 -300 613 -249 l 613 -249 l 613 -125 l 512 -128 l 508 -265 l 526 -405 q 544 -454 579 -491 q 614 -529 666 -550 q 717 -571 783 -571 z"},"ച":{"ha":899,"x_min":19,"x_max":836,"o":"m 718 -559 l 836 -559 l 836 0 l 19 0 l 19 -90 l 419 -90 l 356 -75 q 377 -90 396 -120 q 414 -151 414 -195 l 414 -195 q 414 -238 396 -263 q 377 -289 339 -289 l 339 -289 q 300 -289 280 -264 q 260 -239 260 -197 l 260 -197 q 260 -185 261 -175 q 262 -166 263 -159 l 263 -159 l 149 -148 q 147 -159 145 -175 q 143 -191 143 -207 l 143 -207 q 143 -286 195 -332 q 246 -378 339 -378 l 339 -378 q 394 -378 431 -362 q 468 -347 490 -321 q 511 -296 520 -265 q 529 -234 529 -203 l 529 -203 q 529 -175 523 -151 q 517 -128 506 -108 q 494 -89 479 -72 l 479 -72 l 456 -90 l 718 -90 l 718 -559 z"},"ഛ":{"ha":1304,"x_min":19,"x_max":1267,"o":"m 339 -378 l 339 -378 q 394 -378 431 -362 q 468 -347 490 -321 q 511 -296 520 -265 q 529 -234 529 -203 l 529 -203 q 529 -175 523 -151 q 517 -128 506 -108 q 494 -89 479 -72 l 479 -72 l 456 -90 l 719 -90 l 766 0 l 19 0 l 19 -90 l 419 -90 l 356 -75 q 377 -90 396 -120 q 414 -151 414 -195 l 414 -195 q 414 -238 396 -263 q 377 -289 339 -289 l 339 -289 q 300 -289 280 -264 q 260 -239 260 -197 l 260 -197 q 260 -185 261 -175 q 262 -166 263 -159 l 263 -159 l 149 -148 q 147 -159 145 -175 q 143 -191 143 -207 l 143 -207 q 143 -286 195 -332 q 246 -378 339 -378 z m 932 -571 l 932 -571 q 1016 -571 1079 -546 q 1142 -521 1184 -476 q 1225 -431 1246 -370 q 1267 -309 1267 -238 l 1267 -238 q 1267 -150 1241 -94 q 1215 -39 1168 -13 q 1120 12 1056 12 l 1056 12 q 989 12 947 -17 q 904 -46 884 -95 q 864 -144 864 -203 l 864 -203 q 864 -297 911 -352 q 957 -407 1042 -407 l 1042 -407 q 1093 -407 1131 -381 q 1169 -355 1193 -312 q 1217 -270 1224 -221 l 1224 -221 l 1181 -219 q 1175 -243 1160 -266 q 1145 -289 1122 -304 q 1099 -320 1070 -320 l 1070 -320 q 1023 -320 1002 -288 q 980 -257 980 -200 l 980 -200 q 980 -163 988 -135 q 996 -107 1015 -92 q 1033 -78 1061 -78 l 1061 -78 q 1089 -78 1110 -94 q 1130 -110 1141 -146 q 1151 -182 1151 -241 l 1151 -241 q 1151 -251 1150 -270 q 1149 -290 1146 -308 l 1146 -308 q 1145 -313 1145 -320 q 1144 -328 1142 -332 l 1142 -332 q 1136 -371 1111 -404 q 1085 -438 1043 -458 q 1001 -479 941 -479 l 941 -479 q 874 -479 829 -455 q 784 -431 761 -386 q 738 -342 738 -281 l 738 -281 q 738 -233 750 -194 q 762 -155 783 -121 q 803 -88 829 -59 l 829 -59 l 785 0 l 742 0 l 725 -32 q 697 -64 672 -101 q 647 -139 632 -185 q 617 -232 617 -289 l 617 -289 q 617 -345 636 -396 q 654 -447 693 -486 q 732 -526 791 -548 q 850 -571 932 -571 z"},"ജ":{"ha":898,"x_min":33,"x_max":861,"o":"m 287 -571 l 287 -571 q 341 -571 381 -561 q 420 -551 450 -531 q 480 -512 505 -483 l 505 -483 l 469 -488 q 503 -531 546 -551 q 589 -571 647 -571 l 647 -571 q 724 -571 771 -542 q 817 -513 839 -467 q 861 -422 861 -372 l 861 -372 q 861 -330 850 -297 q 838 -265 816 -241 q 794 -217 761 -199 l 761 -199 l 597 -170 l 508 -161 q 482 -157 446 -155 q 409 -154 376 -154 l 376 -154 l 238 -154 q 202 -154 185 -151 q 168 -149 158 -142 l 158 -142 q 151 -137 147 -130 q 143 -123 143 -113 l 143 -113 q 143 -98 150 -88 q 157 -79 171 -74 q 184 -70 201 -70 l 201 -70 q 234 -70 263 -75 q 291 -81 322 -92 q 353 -103 392 -120 l 392 -120 q 419 -131 447 -140 q 474 -150 500 -158 q 525 -167 547 -173 q 569 -180 587 -184 l 587 -184 q 608 -191 622 -199 q 636 -207 647 -214 q 658 -222 670 -226 q 681 -231 697 -231 l 697 -231 q 732 -231 764 -220 q 796 -209 817 -183 q 837 -158 837 -113 l 837 -113 q 837 -53 798 -20 q 759 12 686 12 l 686 12 q 630 12 597 -7 q 563 -27 549 -56 q 534 -86 534 -118 l 534 -118 q 534 -154 551 -179 q 568 -204 589 -216 l 589 -216 l 680 -218 q 671 -210 659 -197 q 646 -185 637 -167 q 628 -150 628 -124 l 628 -124 q 628 -91 643 -77 q 657 -63 683 -63 l 683 -63 q 713 -63 726 -77 q 738 -92 738 -114 l 738 -114 q 738 -133 731 -144 q 724 -156 712 -161 q 700 -167 683 -167 l 683 -167 q 661 -167 643 -158 q 625 -149 603 -130 l 603 -130 l 598 -147 q 587 -135 568 -120 q 549 -105 524 -89 q 499 -74 466 -60 l 466 -60 q 413 -36 370 -20 q 327 -4 286 4 q 244 12 195 12 l 195 12 q 150 12 113 1 q 76 -11 55 -38 q 33 -66 33 -111 l 33 -111 q 33 -144 47 -168 q 60 -193 87 -209 l 87 -209 q 110 -222 143 -228 q 175 -235 235 -235 l 235 -235 l 511 -235 q 559 -235 593 -237 q 626 -240 651 -246 q 676 -252 693 -262 l 693 -262 q 720 -278 734 -303 q 747 -329 747 -367 l 747 -367 q 747 -397 736 -423 q 724 -449 700 -465 q 675 -482 635 -482 l 635 -482 q 611 -482 595 -475 q 578 -469 567 -457 l 567 -457 q 550 -439 545 -410 q 539 -381 539 -333 l 539 -333 l 539 -262 l 430 -262 l 430 -317 q 430 -366 423 -399 q 415 -433 390 -457 l 390 -457 q 375 -472 350 -481 q 324 -491 282 -491 l 282 -491 q 246 -491 210 -483 q 174 -475 152 -454 l 152 -454 q 149 -451 147 -444 q 145 -437 144 -433 l 144 -433 q 138 -422 135 -410 q 132 -398 132 -383 l 132 -383 q 132 -345 148 -330 q 164 -315 189 -315 l 189 -315 q 208 -315 220 -323 q 231 -332 236 -345 q 241 -358 241 -372 l 241 -372 q 241 -399 227 -413 q 212 -427 184 -427 l 184 -427 q 160 -427 140 -418 q 120 -410 105 -400 l 105 -400 l 73 -425 q 95 -452 135 -465 q 174 -479 215 -479 l 215 -479 q 254 -479 282 -465 q 309 -452 324 -427 q 338 -402 338 -367 l 338 -367 q 338 -334 323 -305 q 308 -277 276 -259 q 243 -242 190 -242 l 190 -242 q 121 -242 80 -280 q 39 -318 39 -386 l 39 -386 q 39 -440 68 -482 q 96 -524 152 -547 q 207 -571 287 -571 z"},"ഝ":{"ha":1608,"x_min":37,"x_max":1571,"o":"m 652 -571 l 652 -571 q 715 -571 763 -556 q 810 -542 844 -512 l 844 -512 q 885 -477 904 -424 q 923 -371 923 -282 l 923 -282 l 923 -232 q 923 -192 928 -162 q 933 -133 946 -114 l 946 -114 q 958 -97 976 -88 q 993 -80 1017 -80 l 1017 -80 q 1040 -80 1057 -88 q 1073 -96 1084 -109 l 1084 -109 q 1099 -128 1106 -157 q 1112 -186 1112 -238 l 1112 -238 l 1112 -559 l 1230 -559 l 1230 -248 q 1230 -192 1235 -162 q 1240 -132 1254 -113 l 1254 -113 q 1267 -96 1287 -88 q 1306 -80 1326 -80 l 1326 -80 q 1362 -80 1390 -102 q 1418 -124 1435 -165 q 1451 -207 1451 -265 l 1451 -265 q 1451 -314 1440 -355 q 1428 -397 1407 -434 q 1386 -471 1356 -503 l 1356 -503 l 1442 -570 q 1482 -530 1511 -484 q 1539 -439 1555 -384 q 1571 -329 1571 -260 l 1571 -260 q 1571 -182 1543 -120 q 1515 -59 1463 -23 q 1410 12 1334 12 l 1334 12 q 1277 12 1236 -8 q 1195 -28 1162 -70 l 1162 -70 l 1174 -70 q 1157 -48 1135 -29 q 1112 -10 1082 1 q 1051 12 1009 12 l 1009 12 q 957 12 920 -3 q 882 -19 856 -47 l 856 -47 q 839 -67 828 -92 q 816 -117 810 -152 q 803 -187 803 -234 l 803 -234 l 803 -273 q 803 -317 798 -350 q 793 -383 782 -407 q 770 -431 752 -447 l 752 -447 q 734 -463 707 -473 q 680 -483 643 -483 l 643 -483 q 622 -483 602 -480 q 582 -478 562 -471 l 562 -471 l 544 -464 q 503 -446 473 -410 q 443 -374 427 -326 q 410 -279 410 -225 l 410 -225 q 410 -166 423 -134 q 435 -103 455 -90 q 475 -78 497 -78 l 497 -78 q 521 -78 541 -90 q 561 -103 573 -134 q 585 -165 585 -221 l 585 -221 q 585 -277 569 -324 q 553 -372 524 -407 q 495 -443 455 -463 l 455 -463 l 434 -471 q 416 -478 397 -480 q 378 -483 358 -483 l 358 -483 q 291 -483 247 -457 q 202 -431 180 -385 q 158 -340 158 -281 l 158 -281 q 158 -231 170 -191 q 182 -152 204 -119 q 226 -86 257 -57 l 257 -57 l 177 11 q 137 -23 106 -64 q 74 -106 56 -160 q 37 -214 37 -284 l 37 -284 q 37 -339 54 -390 q 71 -442 108 -482 q 145 -523 204 -547 q 262 -571 346 -571 l 346 -571 q 397 -571 438 -561 q 478 -551 515 -529 l 515 -529 l 538 -515 q 614 -472 659 -397 q 704 -323 704 -223 l 704 -223 q 704 -146 681 -93 q 657 -41 611 -14 q 564 12 497 12 l 497 12 q 431 12 385 -15 q 339 -43 315 -96 q 291 -149 291 -223 l 291 -223 q 291 -287 311 -341 q 331 -395 368 -438 q 405 -481 457 -512 l 457 -512 l 484 -530 q 525 -552 567 -561 q 608 -571 652 -571 z"},"ഞ":{"ha":1421,"x_min":38,"x_max":1384,"o":"m 353 -571 l 353 -571 q 432 -571 484 -545 q 536 -520 576 -470 l 576 -470 l 570 -444 l 613 -225 l 613 0 l 495 0 l 495 -291 q 495 -360 485 -393 q 475 -427 455 -445 l 455 -445 q 438 -462 415 -470 q 391 -479 352 -479 l 352 -479 q 292 -479 246 -451 q 200 -423 174 -370 q 147 -317 147 -242 l 147 -242 l 147 -231 q 147 -174 159 -139 q 170 -105 190 -90 q 209 -76 234 -76 l 234 -76 q 254 -76 268 -85 q 282 -95 290 -114 q 297 -133 297 -163 l 297 -163 q 297 -208 280 -230 q 262 -252 226 -252 l 226 -252 q 193 -252 163 -233 q 133 -215 104 -180 l 104 -180 l 89 -262 q 115 -292 159 -315 q 202 -339 254 -339 l 254 -339 q 304 -339 340 -319 q 375 -299 394 -261 q 412 -223 412 -170 l 412 -170 q 412 -112 391 -71 q 370 -31 331 -9 q 292 12 237 12 l 237 12 q 185 12 140 -13 q 94 -39 66 -95 q 38 -151 38 -242 l 38 -242 q 38 -351 80 -424 q 121 -497 193 -534 q 264 -571 353 -571 z m 777 -571 l 777 -571 q 822 -571 862 -561 q 902 -551 939 -530 l 939 -530 l 962 -515 q 1038 -472 1083 -397 q 1127 -323 1127 -223 l 1127 -223 q 1127 -146 1104 -93 q 1080 -41 1034 -14 q 987 12 920 12 l 920 12 q 854 12 808 -15 q 762 -43 738 -96 q 714 -149 714 -223 l 714 -223 q 714 -287 735 -341 q 756 -395 794 -438 q 832 -481 885 -512 l 885 -512 l 911 -528 q 947 -549 991 -560 q 1034 -571 1089 -571 l 1089 -571 q 1169 -571 1225 -547 q 1281 -524 1316 -483 q 1351 -443 1368 -391 q 1384 -339 1384 -282 l 1384 -282 q 1384 -214 1366 -160 q 1348 -107 1316 -65 q 1284 -24 1242 11 l 1242 11 l 1164 -56 q 1191 -83 1214 -114 q 1236 -146 1250 -186 q 1263 -226 1263 -278 l 1263 -278 q 1263 -338 1242 -384 q 1221 -430 1180 -456 q 1139 -483 1080 -483 l 1080 -483 q 1051 -483 1030 -480 q 1008 -478 988 -470 l 988 -470 l 970 -464 q 926 -444 896 -407 q 865 -371 850 -324 q 834 -277 834 -225 l 834 -225 q 834 -166 846 -134 q 857 -103 878 -90 q 898 -78 921 -78 l 921 -78 q 944 -78 964 -90 q 984 -103 996 -134 q 1008 -165 1008 -221 l 1008 -221 q 1008 -277 993 -324 q 977 -371 949 -406 q 920 -442 881 -462 l 881 -462 l 860 -470 q 849 -475 837 -477 q 825 -480 811 -481 q 797 -483 778 -483 l 778 -483 q 735 -483 708 -472 q 681 -461 665 -446 l 665 -446 q 636 -421 625 -381 q 613 -342 613 -273 l 613 -273 l 613 -20 l 503 -20 l 503 -263 l 541 -465 q 566 -495 598 -519 q 630 -543 674 -557 q 717 -571 777 -571 z"},"ട":{"ha":542,"x_min":15,"x_max":520,"o":"m 267 -571 l 267 -571 q 345 -571 408 -554 q 471 -538 520 -513 l 520 -513 l 468 -430 q 424 -453 378 -465 q 332 -478 271 -478 l 271 -478 q 227 -478 200 -467 q 173 -457 161 -440 q 148 -423 148 -402 l 148 -402 q 148 -385 153 -373 q 157 -362 166 -353 l 166 -353 q 182 -339 209 -334 q 236 -330 275 -330 l 275 -330 l 293 -330 q 364 -330 409 -314 q 453 -299 479 -268 l 479 -268 q 496 -249 505 -222 q 513 -196 513 -164 l 513 -164 q 513 -113 487 -73 q 460 -33 406 -10 q 352 12 270 12 l 270 12 q 194 12 131 -4 q 68 -20 15 -49 l 15 -49 l 66 -133 q 96 -116 126 -104 q 156 -93 191 -87 q 225 -81 266 -81 l 266 -81 q 312 -81 340 -91 q 368 -102 381 -120 q 393 -139 393 -161 l 393 -161 q 393 -179 388 -193 q 382 -208 368 -218 l 368 -218 q 354 -227 334 -232 q 313 -237 271 -237 l 271 -237 l 259 -237 q 192 -237 141 -251 q 90 -266 63 -297 l 63 -297 q 46 -315 37 -340 q 28 -366 28 -399 l 28 -399 q 28 -448 55 -487 q 81 -526 134 -548 q 187 -571 267 -571 z"},"ഠ":{"ha":637,"x_min":37,"x_max":600,"o":"m 317 -571 l 317 -571 q 405 -571 469 -536 q 532 -501 566 -435 q 600 -370 600 -279 l 600 -279 q 600 -189 566 -124 q 532 -59 469 -23 q 406 12 318 12 l 318 12 q 223 12 161 -26 q 98 -65 68 -132 q 37 -199 37 -281 l 37 -281 q 37 -371 71 -436 q 105 -501 168 -536 q 231 -571 317 -571 z m 318 -80 l 318 -80 q 371 -80 407 -105 q 442 -130 460 -175 q 478 -220 478 -280 l 478 -280 q 478 -340 460 -385 q 442 -430 407 -454 q 372 -479 319 -479 l 319 -479 q 243 -479 201 -427 q 158 -375 158 -280 l 158 -280 q 158 -187 200 -133 q 241 -80 318 -80 z"},"ഡ":{"ha":1179,"x_min":37,"x_max":1143,"o":"m 579 12 l 579 12 q 528 12 491 -3 q 454 -18 427 -46 l 427 -46 q 409 -66 397 -90 q 385 -115 379 -150 q 372 -186 372 -236 l 372 -236 l 372 -304 q 372 -360 368 -391 q 363 -423 350 -443 l 350 -443 q 339 -461 321 -470 q 303 -479 273 -479 l 273 -479 q 240 -479 214 -459 q 187 -439 172 -398 q 157 -357 157 -295 l 157 -295 q 157 -245 168 -202 q 179 -160 201 -124 q 222 -88 252 -53 l 252 -53 l 167 13 q 127 -29 98 -75 q 68 -121 53 -176 q 37 -231 37 -300 l 37 -300 q 37 -383 66 -444 q 95 -505 150 -538 q 204 -571 279 -571 l 279 -571 q 333 -571 373 -555 q 413 -540 439 -512 l 439 -512 q 459 -490 471 -462 q 482 -434 487 -399 q 492 -365 492 -322 l 492 -322 l 492 -248 q 492 -191 497 -161 q 501 -132 515 -113 l 515 -113 q 526 -97 544 -88 q 562 -80 587 -80 l 587 -80 q 609 -80 627 -88 q 645 -96 656 -109 l 656 -109 q 671 -128 677 -156 q 683 -185 683 -237 l 683 -237 l 683 -559 l 802 -559 l 802 -248 q 802 -191 807 -161 q 811 -132 826 -113 l 826 -113 q 839 -96 858 -87 q 877 -79 897 -79 l 897 -79 q 933 -79 962 -101 q 990 -124 1006 -165 q 1022 -207 1022 -265 l 1022 -265 q 1022 -314 1011 -355 q 1000 -397 979 -434 q 957 -471 927 -503 l 927 -503 l 1014 -570 q 1053 -530 1082 -484 q 1111 -438 1127 -383 q 1143 -328 1143 -259 l 1143 -259 q 1143 -181 1115 -119 q 1087 -58 1034 -23 q 981 12 906 12 l 906 12 q 849 12 809 -8 q 768 -28 734 -70 l 734 -70 l 746 -70 q 716 -32 679 -10 q 641 12 579 12 z"},"ഢ":{"ha":1297,"x_min":37,"x_max":1259,"o":"m 579 12 l 579 12 q 528 12 491 -3 q 454 -18 427 -46 l 427 -46 q 409 -66 397 -90 q 385 -115 379 -151 q 372 -187 372 -237 l 372 -237 l 372 -304 q 372 -360 368 -391 q 363 -423 350 -443 l 350 -443 q 339 -461 321 -470 q 303 -479 273 -479 l 273 -479 q 240 -479 214 -459 q 187 -439 172 -398 q 157 -358 157 -295 l 157 -295 q 157 -246 168 -203 q 179 -161 200 -124 q 221 -88 252 -54 l 252 -54 l 167 13 q 127 -29 98 -75 q 68 -122 53 -177 q 37 -232 37 -301 l 37 -301 q 37 -384 66 -444 q 95 -505 150 -538 q 204 -571 279 -571 l 279 -571 q 333 -571 373 -555 q 413 -540 439 -512 l 439 -512 q 459 -490 471 -462 q 482 -434 487 -400 q 492 -366 492 -322 l 492 -322 l 492 -248 q 492 -191 497 -162 q 501 -133 515 -113 l 515 -113 q 526 -97 544 -88 q 562 -80 587 -80 l 587 -80 q 609 -80 627 -88 q 645 -96 656 -109 l 656 -109 q 671 -128 677 -157 q 683 -186 683 -238 l 683 -238 l 683 -559 l 802 -559 l 802 -297 l 746 -70 q 718 -33 680 -10 q 641 12 579 12 z m 1061 -571 l 1061 -571 q 1113 -571 1158 -546 q 1203 -521 1231 -465 q 1259 -410 1259 -318 l 1259 -318 q 1259 -210 1218 -136 q 1176 -63 1105 -25 q 1033 12 944 12 l 944 12 q 865 12 814 -13 q 763 -38 722 -86 l 722 -86 l 698 -289 l 698 -515 l 802 -515 l 802 -269 q 802 -200 812 -166 q 822 -132 842 -114 l 842 -114 q 859 -98 883 -89 q 907 -80 945 -80 l 945 -80 q 1006 -80 1052 -108 q 1098 -136 1124 -189 q 1150 -242 1150 -317 l 1150 -317 l 1150 -329 q 1150 -387 1139 -420 q 1127 -454 1108 -468 q 1088 -483 1062 -483 l 1062 -483 q 1043 -483 1029 -473 q 1015 -464 1008 -445 q 1000 -426 1000 -396 l 1000 -396 q 1000 -351 1018 -329 q 1035 -307 1070 -307 l 1070 -307 q 1104 -307 1134 -325 q 1163 -344 1193 -379 l 1193 -379 l 1208 -297 q 1182 -268 1139 -244 q 1095 -220 1043 -220 l 1043 -220 q 993 -220 958 -240 q 922 -261 904 -299 q 885 -337 885 -390 l 885 -390 q 885 -447 906 -487 q 927 -528 966 -549 q 1005 -571 1061 -571 z"},"ണ":{"ha":1314,"x_min":38,"x_max":1277,"o":"m 353 -571 l 353 -571 q 432 -571 484 -545 q 535 -520 575 -473 l 575 -473 l 545 -485 q 576 -529 620 -550 q 663 -571 716 -571 l 716 -571 q 775 -571 814 -549 q 852 -528 881 -490 l 881 -490 l 867 -488 q 903 -533 944 -552 q 985 -571 1041 -571 l 1041 -571 q 1116 -571 1169 -536 q 1222 -501 1250 -440 q 1277 -379 1277 -300 l 1277 -300 q 1277 -233 1261 -177 q 1245 -121 1216 -75 q 1187 -29 1148 11 l 1148 11 l 1061 -55 q 1092 -89 1113 -126 q 1134 -163 1146 -204 q 1157 -246 1157 -294 l 1157 -294 q 1157 -353 1141 -394 q 1124 -436 1096 -458 q 1068 -480 1032 -480 l 1032 -480 q 1011 -480 992 -471 q 973 -463 960 -446 l 960 -446 q 945 -427 940 -397 q 935 -368 935 -310 l 935 -310 l 935 0 l 817 0 l 817 -321 q 817 -374 812 -403 q 806 -432 790 -450 l 790 -450 q 779 -464 761 -472 q 742 -480 715 -480 l 715 -480 q 691 -480 673 -471 q 655 -463 642 -448 l 642 -448 q 626 -429 620 -400 q 614 -372 614 -314 l 614 -314 l 614 0 l 495 0 l 495 -290 q 495 -359 485 -393 q 475 -427 455 -445 l 455 -445 q 438 -462 414 -470 q 390 -479 352 -479 l 352 -479 q 292 -479 246 -451 q 200 -424 174 -370 q 147 -317 147 -242 l 147 -242 l 147 -231 q 147 -174 159 -139 q 170 -105 190 -90 q 209 -76 234 -76 l 234 -76 q 254 -76 268 -85 q 282 -95 290 -114 q 297 -133 297 -163 l 297 -163 q 297 -208 280 -230 q 262 -252 226 -252 l 226 -252 q 193 -252 163 -233 q 133 -215 104 -180 l 104 -180 l 89 -262 q 115 -292 159 -315 q 202 -339 254 -339 l 254 -339 q 304 -339 340 -319 q 375 -299 394 -261 q 412 -223 412 -170 l 412 -170 q 412 -112 391 -71 q 370 -31 331 -9 q 292 12 237 12 l 237 12 q 185 12 140 -13 q 94 -39 66 -95 q 38 -151 38 -242 l 38 -242 q 38 -351 80 -424 q 121 -497 193 -534 q 264 -571 353 -571 z"},"ത":{"ha":998,"x_min":37,"x_max":961,"o":"m 497 12 l 497 12 q 431 12 385 -15 q 339 -43 315 -96 q 291 -149 291 -223 l 291 -223 q 291 -287 312 -341 q 333 -395 371 -438 q 409 -481 462 -512 l 462 -512 l 488 -528 q 524 -549 567 -560 q 610 -571 666 -571 l 666 -571 q 746 -571 802 -547 q 858 -524 893 -483 q 928 -443 945 -391 q 961 -339 961 -282 l 961 -282 q 961 -214 943 -160 q 925 -107 893 -65 q 861 -24 819 11 l 819 11 l 741 -56 q 768 -83 791 -114 q 813 -146 826 -186 q 839 -226 839 -278 l 839 -278 q 839 -339 819 -385 q 798 -431 757 -457 q 716 -483 656 -483 l 656 -483 q 628 -483 606 -480 q 584 -477 565 -470 l 565 -470 l 547 -464 q 504 -444 474 -408 q 443 -372 427 -324 q 410 -277 410 -225 l 410 -225 q 410 -166 423 -134 q 435 -103 455 -90 q 475 -78 497 -78 l 497 -78 q 521 -78 541 -90 q 561 -102 573 -133 q 585 -165 585 -221 l 585 -221 q 585 -277 569 -324 q 553 -372 524 -407 q 495 -443 456 -463 l 456 -463 l 435 -471 q 417 -477 398 -480 q 379 -483 358 -483 l 358 -483 q 291 -483 247 -457 q 202 -431 180 -385 q 158 -340 158 -281 l 158 -281 q 158 -231 170 -191 q 182 -152 204 -119 q 226 -86 257 -57 l 257 -57 l 177 11 q 137 -23 106 -64 q 74 -106 56 -160 q 37 -214 37 -284 l 37 -284 q 37 -339 54 -390 q 71 -442 108 -482 q 144 -523 203 -547 q 262 -571 345 -571 l 345 -571 q 396 -571 437 -561 q 478 -551 515 -529 l 515 -529 l 538 -515 q 614 -472 659 -397 q 704 -323 704 -223 l 704 -223 q 704 -146 681 -93 q 657 -41 611 -14 q 564 12 497 12 z"},"ഥ":{"ha":872,"x_min":62,"x_max":816,"o":"m 62 -559 l 181 -559 l 181 -90 l 378 -90 l 378 0 l 62 0 l 62 -559 z m 569 -571 l 569 -571 q 630 -571 675 -555 q 719 -539 749 -510 l 749 -510 q 786 -476 801 -426 q 816 -377 816 -299 l 816 -299 l 816 0 l 324 0 l 324 -294 q 324 -350 331 -389 q 338 -429 353 -458 q 367 -487 390 -510 l 390 -510 q 420 -538 465 -554 q 509 -571 569 -571 z m 570 -480 l 570 -480 q 539 -480 517 -471 q 494 -462 479 -446 l 479 -446 q 461 -426 452 -392 q 443 -359 443 -293 l 443 -293 l 443 -90 l 697 -90 l 697 -285 q 697 -355 688 -390 q 679 -426 661 -446 l 661 -446 q 646 -462 623 -471 q 600 -480 570 -480 z"},"ദ":{"ha":629,"x_min":45,"x_max":595,"o":"m 373 -571 l 373 -571 q 443 -571 491 -550 q 538 -530 562 -494 q 585 -458 585 -414 l 585 -414 q 585 -366 564 -333 q 543 -300 491 -276 l 491 -276 l 490 -282 q 540 -265 568 -229 q 595 -193 595 -143 l 595 -143 q 595 -71 547 -29 q 499 12 409 12 l 409 12 q 374 12 346 9 q 318 5 297 0 l 297 0 l 315 -88 q 334 -84 352 -81 q 370 -78 389 -78 l 389 -78 q 434 -78 455 -95 q 475 -113 475 -150 l 475 -150 q 475 -167 469 -182 q 463 -197 450 -208 l 450 -208 q 437 -220 416 -226 q 395 -233 354 -233 l 354 -233 l 317 -233 l 317 -322 l 352 -322 q 386 -322 409 -328 q 431 -334 446 -348 l 446 -348 q 455 -357 461 -371 q 466 -385 466 -403 l 466 -403 q 466 -441 441 -460 q 416 -480 368 -480 l 368 -480 q 301 -480 256 -447 q 211 -415 188 -356 q 165 -298 165 -220 l 165 -220 q 165 -168 172 -115 q 178 -63 189 -17 l 189 -17 l 77 4 q 63 -46 54 -107 q 45 -169 45 -223 l 45 -223 q 45 -330 82 -408 q 119 -486 192 -528 q 265 -571 373 -571 z"},"ധ":{"ha":879,"x_min":37,"x_max":843,"o":"m 599 12 l 599 12 q 558 12 529 2 q 499 -8 477 -26 q 455 -45 433 -70 l 433 -70 l 446 -70 q 413 -27 373 -7 q 332 12 273 12 l 273 12 q 198 12 146 -23 q 93 -58 65 -119 q 37 -181 37 -259 l 37 -259 q 37 -326 53 -381 q 68 -436 97 -482 q 126 -529 166 -570 l 166 -570 l 253 -504 q 222 -470 201 -433 q 179 -397 168 -355 q 157 -314 157 -265 l 157 -265 q 157 -206 174 -164 q 190 -122 219 -100 q 248 -79 284 -79 l 284 -79 q 310 -79 328 -88 q 345 -98 356 -112 l 356 -112 q 370 -130 376 -158 q 381 -187 381 -237 l 381 -237 l 381 -559 l 499 -559 l 499 -236 q 499 -184 504 -157 q 509 -130 523 -111 l 523 -111 q 534 -97 551 -88 q 568 -79 594 -79 l 594 -79 q 628 -79 657 -99 q 686 -120 704 -161 q 722 -203 722 -264 l 722 -264 q 722 -313 711 -355 q 700 -398 679 -434 q 658 -471 627 -503 l 627 -503 l 714 -570 q 753 -529 782 -483 q 810 -438 827 -383 q 843 -329 843 -262 l 843 -262 q 843 -182 814 -120 q 785 -59 731 -23 q 677 12 599 12 z"},"ന":{"ha":879,"x_min":37,"x_max":843,"o":"m 280 -571 l 280 -571 q 322 -571 351 -561 q 380 -551 403 -533 q 425 -515 446 -489 l 446 -489 l 433 -489 q 466 -532 507 -551 q 548 -571 606 -571 l 606 -571 q 681 -571 734 -536 q 787 -501 815 -440 q 843 -379 843 -300 l 843 -300 q 843 -233 828 -178 q 812 -123 783 -77 q 753 -31 713 11 l 713 11 l 627 -55 q 657 -89 679 -125 q 700 -162 711 -203 q 722 -245 722 -294 l 722 -294 q 722 -354 706 -395 q 689 -436 661 -458 q 632 -480 595 -480 l 595 -480 q 569 -480 552 -471 q 535 -462 523 -447 l 523 -447 q 510 -429 505 -400 q 499 -372 499 -322 l 499 -322 l 499 0 l 380 0 l 380 -323 q 380 -375 375 -402 q 370 -429 356 -448 l 356 -448 q 346 -462 329 -471 q 311 -480 285 -480 l 285 -480 q 251 -480 222 -459 q 193 -439 175 -398 q 157 -357 157 -295 l 157 -295 q 157 -246 169 -204 q 180 -162 201 -125 q 222 -89 252 -56 l 252 -56 l 165 11 q 127 -30 98 -75 q 69 -121 53 -175 q 37 -230 37 -297 l 37 -297 q 37 -377 66 -438 q 94 -500 149 -535 q 203 -571 280 -571 z"},"ഩ":{"ha":994,"x_min":38,"x_max":957,"o":"m 353 -571 l 353 -571 q 432 -571 484 -545 q 535 -520 575 -473 l 575 -473 l 546 -487 q 577 -531 620 -551 q 663 -571 720 -571 l 720 -571 q 795 -571 848 -536 q 901 -501 929 -440 q 957 -379 957 -300 l 957 -300 q 957 -232 942 -176 q 926 -121 897 -75 q 868 -30 828 11 l 828 11 l 741 -55 q 772 -89 794 -125 q 815 -162 826 -203 q 837 -245 837 -294 l 837 -294 q 837 -354 821 -395 q 804 -436 776 -458 q 747 -480 710 -480 l 710 -480 q 684 -480 667 -471 q 650 -462 638 -447 l 638 -447 q 624 -429 619 -400 q 613 -372 613 -321 l 613 -321 l 613 0 l 495 0 l 495 -290 q 495 -359 485 -393 q 475 -427 455 -445 l 455 -445 q 438 -462 415 -470 q 391 -479 352 -479 l 352 -479 q 292 -479 246 -451 q 200 -423 174 -370 q 147 -317 147 -242 l 147 -242 l 147 -231 q 147 -174 159 -139 q 170 -105 190 -90 q 209 -76 234 -76 l 234 -76 q 254 -76 268 -85 q 282 -95 290 -114 q 297 -133 297 -163 l 297 -163 q 297 -208 280 -230 q 262 -252 226 -252 l 226 -252 q 193 -252 163 -233 q 133 -215 104 -180 l 104 -180 l 89 -262 q 115 -292 159 -315 q 202 -339 254 -339 l 254 -339 q 304 -339 340 -319 q 375 -299 394 -261 q 412 -223 412 -170 l 412 -170 q 412 -112 391 -71 q 370 -31 331 -9 q 292 12 237 12 l 237 12 q 185 12 140 -13 q 94 -39 66 -95 q 38 -151 38 -242 l 38 -242 q 38 -351 80 -424 q 121 -497 193 -534 q 264 -571 353 -571 z"},"പ":{"ha":864,"x_min":30,"x_max":802,"o":"m 233 -356 l 233 -356 q 303 -356 348 -329 q 392 -303 413 -261 q 434 -220 434 -175 l 434 -175 q 434 -139 423 -110 q 412 -82 400 -65 l 400 -65 l 386 -90 l 683 -90 l 683 -559 l 802 -559 l 802 0 l 326 0 l 284 -56 q 297 -75 308 -101 q 319 -127 319 -164 l 319 -164 q 319 -209 298 -237 q 276 -266 234 -266 l 234 -266 q 205 -266 186 -253 q 167 -241 157 -218 q 147 -195 147 -167 l 147 -167 q 147 -125 161 -97 q 175 -69 195 -43 l 195 -43 l 107 10 q 72 -28 51 -71 q 30 -115 30 -172 l 30 -172 q 30 -227 56 -268 q 81 -310 127 -333 q 172 -356 233 -356 z"},"ഫ":{"ha":1102,"x_min":30,"x_max":1045,"o":"m 233 -356 l 233 -356 q 303 -356 348 -329 q 392 -303 413 -261 q 434 -220 434 -175 l 434 -175 q 434 -139 423 -110 q 412 -82 400 -65 l 400 -65 l 383 -90 l 637 -90 l 637 0 l 326 0 l 284 -56 q 297 -75 308 -101 q 319 -127 319 -164 l 319 -164 q 319 -209 298 -237 q 276 -266 234 -266 l 234 -266 q 205 -266 186 -253 q 167 -241 157 -218 q 147 -195 147 -167 l 147 -167 q 147 -125 161 -96 q 175 -68 195 -43 l 195 -43 l 107 10 q 72 -28 51 -71 q 30 -115 30 -172 l 30 -172 q 30 -227 56 -268 q 81 -310 127 -333 q 172 -356 233 -356 z m 799 -571 l 799 -571 q 860 -571 905 -555 q 949 -539 979 -510 l 979 -510 q 1015 -476 1030 -426 q 1045 -377 1045 -299 l 1045 -299 l 1045 0 l 554 0 l 554 -294 q 554 -350 561 -389 q 567 -429 582 -458 q 596 -487 620 -510 l 620 -510 q 649 -538 694 -554 q 738 -571 799 -571 z m 800 -480 l 800 -480 q 768 -480 746 -471 q 723 -462 708 -446 l 708 -446 q 691 -426 682 -392 q 672 -359 672 -293 l 672 -293 l 672 -90 l 927 -90 l 927 -285 q 927 -355 918 -390 q 908 -426 891 -446 l 891 -446 q 876 -462 853 -471 q 830 -480 800 -480 z"},"ബ":{"ha":1269,"x_min":38,"x_max":1207,"o":"m 353 -571 l 353 -571 q 432 -571 484 -545 q 535 -520 575 -472 l 575 -472 l 596 -409 l 613 -254 l 613 0 l 495 0 l 495 -291 q 495 -359 485 -393 q 475 -427 455 -445 l 455 -445 q 438 -462 415 -470 q 391 -479 352 -479 l 352 -479 q 292 -479 246 -451 q 200 -423 174 -370 q 147 -317 147 -242 l 147 -242 l 147 -231 q 147 -174 159 -139 q 170 -105 190 -90 q 209 -76 234 -76 l 234 -76 q 254 -76 268 -85 q 282 -95 290 -114 q 297 -134 297 -163 l 297 -163 q 297 -208 280 -230 q 262 -252 226 -252 l 226 -252 q 193 -252 163 -233 q 133 -215 104 -180 l 104 -180 l 89 -262 q 115 -292 159 -315 q 202 -339 254 -339 l 254 -339 q 304 -339 340 -319 q 375 -299 394 -261 q 412 -223 412 -170 l 412 -170 q 412 -112 391 -71 q 370 -31 331 -9 q 292 12 237 12 l 237 12 q 185 12 140 -13 q 94 -39 66 -95 q 38 -151 38 -242 l 38 -242 q 38 -351 80 -424 q 121 -497 193 -534 q 264 -571 353 -571 z m 1089 -559 l 1207 -559 l 1207 0 l 792 0 l 747 -57 q 776 -96 796 -131 q 815 -167 826 -206 q 836 -245 836 -294 l 836 -294 q 836 -354 820 -395 q 803 -436 775 -458 q 747 -480 710 -480 l 710 -480 q 684 -480 667 -471 q 650 -462 638 -447 l 638 -447 q 624 -429 619 -400 q 613 -372 613 -321 l 613 -321 l 613 -2 l 497 -2 l 497 -246 l 544 -423 l 546 -487 q 577 -531 620 -551 q 662 -571 720 -571 l 720 -571 q 795 -571 848 -536 q 900 -501 928 -440 q 956 -379 956 -300 l 956 -300 q 956 -252 948 -211 q 939 -171 924 -137 q 909 -104 887 -75 l 887 -75 l 864 -90 l 1089 -90 l 1089 -559 z"},"ഭ":{"ha":652,"x_min":45,"x_max":622,"o":"m 398 -571 l 398 -571 q 465 -571 515 -554 q 565 -537 594 -504 q 622 -472 622 -424 l 622 -424 q 622 -399 615 -378 q 607 -358 593 -343 l 593 -343 q 576 -325 549 -316 q 521 -307 470 -307 l 470 -307 l 450 -307 q 425 -307 412 -305 q 398 -303 389 -298 l 389 -298 q 382 -294 379 -287 q 375 -281 375 -272 l 375 -272 q 375 -252 396 -245 q 417 -239 453 -239 l 453 -239 l 461 -239 q 511 -239 541 -230 q 571 -222 588 -205 l 588 -205 q 605 -189 614 -168 q 622 -148 622 -120 l 622 -120 q 622 -82 603 -52 q 583 -22 543 -5 q 502 12 435 12 l 435 12 q 401 12 370 9 q 338 5 309 -2 q 280 -9 255 -19 l 255 -19 l 292 -103 q 326 -91 360 -84 q 393 -78 428 -78 l 428 -78 q 475 -78 493 -89 q 510 -100 510 -118 l 510 -118 q 510 -137 495 -144 q 480 -152 451 -152 l 451 -152 l 443 -152 q 380 -152 344 -163 q 308 -175 290 -196 l 290 -196 q 279 -210 272 -229 q 264 -248 264 -271 l 264 -271 q 264 -297 273 -319 q 282 -342 302 -357 l 302 -357 q 322 -373 352 -383 q 382 -393 436 -393 l 436 -393 l 459 -393 q 483 -393 496 -399 q 508 -406 508 -426 l 508 -426 q 508 -454 478 -467 q 447 -480 395 -480 l 395 -480 q 313 -480 263 -447 q 212 -415 189 -356 q 165 -298 165 -220 l 165 -220 q 165 -168 172 -115 q 178 -63 189 -17 l 189 -17 l 77 4 q 63 -46 54 -107 q 45 -169 45 -223 l 45 -223 q 45 -330 84 -407 q 123 -485 201 -528 q 279 -571 398 -571 z"},"മ":{"ha":718,"x_min":54,"x_max":664,"o":"m 351 -571 l 351 -571 q 433 -571 491 -551 q 548 -532 586 -498 l 586 -498 q 613 -473 631 -440 q 648 -408 656 -364 q 664 -321 664 -263 l 664 -263 l 664 0 l 54 0 l 54 -265 q 54 -322 63 -364 q 71 -407 88 -440 q 105 -473 131 -498 l 131 -498 q 169 -533 221 -552 q 273 -571 351 -571 z m 289 -479 l 289 -479 q 260 -479 237 -462 q 213 -445 198 -416 l 198 -416 q 185 -392 179 -357 q 172 -323 172 -272 l 172 -272 l 172 -66 l 154 -68 q 210 -118 254 -173 q 297 -228 323 -285 q 348 -342 348 -397 l 348 -397 q 348 -422 343 -440 q 337 -458 324 -468 q 311 -479 289 -479 z m 466 -378 l 466 -378 q 466 -325 446 -275 q 426 -225 391 -175 q 355 -126 307 -74 l 307 -74 l 289 -85 q 313 -88 340 -89 q 367 -90 382 -90 l 382 -90 l 546 -90 l 546 -265 q 546 -330 534 -372 q 522 -415 496 -442 q 469 -469 425 -485 l 425 -485 l 427 -489 q 442 -471 454 -443 q 466 -416 466 -378 z"},"യ":{"ha":1014,"x_min":37,"x_max":975,"o":"m 651 12 l 651 12 q 600 12 560 3 q 520 -7 476 -30 l 476 -30 q 470 -34 462 -39 q 454 -44 448 -48 l 448 -48 q 394 -86 362 -133 q 330 -181 316 -233 q 302 -286 302 -339 l 302 -339 q 302 -376 309 -407 q 316 -438 328 -463 l 328 -463 l 340 -477 q 359 -511 387 -532 q 415 -553 449 -562 q 482 -571 517 -571 l 517 -571 q 616 -571 672 -511 q 727 -452 727 -338 l 727 -338 q 727 -244 688 -171 q 648 -98 582 -52 l 582 -52 q 574 -46 567 -41 q 559 -36 550 -31 l 550 -31 q 510 -9 465 2 q 420 12 365 12 l 365 12 q 285 12 224 -13 q 162 -38 121 -84 q 79 -130 58 -192 q 37 -255 37 -331 l 37 -331 q 37 -404 63 -458 q 88 -512 138 -541 q 187 -571 259 -571 l 259 -571 q 315 -571 360 -549 q 405 -528 436 -483 l 436 -483 l 347 -426 q 331 -453 310 -467 q 288 -481 261 -481 l 261 -481 q 228 -481 205 -463 q 182 -446 170 -412 q 157 -379 157 -331 l 157 -331 q 157 -255 183 -197 q 209 -140 257 -108 q 305 -76 372 -76 l 372 -76 q 397 -76 418 -79 q 438 -82 456 -87 l 456 -87 q 466 -91 475 -93 q 483 -95 491 -99 l 491 -99 q 524 -118 550 -153 q 576 -189 592 -236 q 607 -283 607 -337 l 607 -337 q 607 -392 594 -423 q 580 -454 560 -467 q 539 -481 516 -481 l 516 -481 q 487 -481 466 -465 q 444 -450 433 -418 q 422 -386 422 -337 l 422 -337 q 422 -288 435 -241 q 448 -195 473 -158 q 497 -121 533 -99 l 533 -99 q 541 -95 547 -94 q 553 -94 562 -90 l 562 -90 q 577 -84 600 -80 q 623 -76 649 -76 l 649 -76 q 715 -76 761 -104 q 807 -132 831 -184 q 854 -237 854 -308 l 854 -308 q 854 -363 839 -416 q 823 -469 790 -518 l 790 -518 l 886 -571 q 931 -513 953 -447 q 975 -381 975 -313 l 975 -313 q 975 -246 958 -187 q 940 -129 902 -84 q 863 -39 801 -13 q 739 12 651 12 z"},"ര":{"ha":724,"x_min":37,"x_max":687,"o":"m 353 -571 l 353 -571 q 437 -571 500 -546 q 562 -521 604 -476 q 645 -431 666 -370 q 687 -309 687 -238 l 687 -238 q 687 -150 661 -94 q 635 -39 588 -13 q 541 12 477 12 l 477 12 q 409 12 367 -17 q 324 -46 304 -95 q 284 -144 284 -203 l 284 -203 q 284 -297 331 -352 q 377 -407 462 -407 l 462 -407 q 513 -407 551 -381 q 589 -355 613 -312 q 637 -270 644 -221 l 644 -221 l 601 -219 q 595 -243 581 -266 q 566 -289 543 -304 q 520 -320 490 -320 l 490 -320 q 443 -320 422 -288 q 400 -257 400 -200 l 400 -200 q 400 -163 409 -135 q 417 -107 435 -92 q 453 -78 481 -78 l 481 -78 q 510 -78 530 -94 q 550 -110 561 -146 q 572 -182 572 -241 l 572 -241 q 572 -251 571 -270 q 569 -290 566 -308 l 566 -308 q 565 -313 565 -320 q 564 -328 563 -332 l 563 -332 q 556 -371 531 -404 q 505 -438 463 -458 q 421 -479 362 -479 l 362 -479 q 294 -479 249 -455 q 204 -431 181 -386 q 158 -342 158 -281 l 158 -281 q 158 -231 170 -191 q 181 -152 204 -119 q 226 -86 257 -56 l 257 -56 l 178 11 q 138 -22 106 -64 q 74 -107 56 -161 q 37 -216 37 -284 l 37 -284 q 37 -341 55 -392 q 73 -444 112 -484 q 150 -525 210 -548 q 270 -571 353 -571 z"},"റ":{"ha":657,"x_min":37,"x_max":621,"o":"m 331 -571 l 331 -571 q 408 -571 463 -548 q 518 -525 553 -484 q 588 -444 605 -392 q 621 -341 621 -284 l 621 -284 q 621 -216 603 -162 q 585 -109 553 -66 q 521 -24 479 11 l 479 11 l 399 -56 q 427 -83 450 -114 q 472 -146 485 -186 q 498 -227 498 -280 l 498 -280 q 498 -340 478 -385 q 457 -430 420 -454 q 382 -479 331 -479 l 331 -479 q 278 -479 240 -454 q 201 -430 180 -385 q 159 -341 159 -282 l 159 -282 q 159 -232 171 -192 q 183 -152 205 -119 q 227 -86 259 -56 l 259 -56 l 177 11 q 138 -22 106 -64 q 74 -107 56 -161 q 37 -216 37 -284 l 37 -284 q 37 -340 54 -391 q 71 -443 107 -483 q 143 -524 199 -547 q 255 -571 331 -571 z"},"ല":{"ha":832,"x_min":57,"x_max":770,"o":"m 652 -559 l 770 -559 l 770 0 l 57 0 l 57 -312 q 57 -389 73 -432 q 89 -476 117 -506 l 117 -506 q 146 -537 191 -554 q 235 -571 294 -571 l 294 -571 q 354 -571 398 -554 q 442 -538 470 -507 l 470 -507 q 503 -472 517 -426 q 530 -381 530 -315 l 530 -315 l 530 -217 l 176 -217 l 176 -90 l 652 -90 l 652 -559 z m 294 -481 l 294 -481 q 230 -481 203 -440 q 176 -400 176 -326 l 176 -326 l 176 -307 l 412 -307 l 412 -325 q 412 -403 384 -442 q 355 -481 294 -481 z"},"ള":{"ha":702,"x_min":36,"x_max":668,"o":"m 374 -481 l 374 -481 q 328 -481 289 -473 q 250 -466 219 -451 q 188 -436 168 -415 q 148 -395 140 -368 l 140 -368 q 139 -364 141 -360 q 142 -357 141 -353 l 141 -353 q 139 -344 137 -333 q 135 -322 135 -307 l 135 -307 q 135 -258 153 -231 q 171 -204 205 -204 l 205 -204 q 236 -204 250 -225 q 264 -246 264 -276 l 264 -276 q 264 -297 258 -312 q 252 -328 239 -337 q 225 -346 204 -346 l 204 -346 q 173 -346 151 -333 q 129 -320 108 -304 l 108 -304 l 52 -329 q 70 -351 98 -372 q 126 -394 160 -408 q 193 -423 228 -423 l 228 -423 q 281 -423 313 -403 q 345 -384 360 -350 q 375 -317 375 -277 l 375 -277 q 375 -235 358 -199 q 340 -164 303 -142 q 266 -121 208 -121 l 208 -121 q 157 -121 119 -144 q 80 -167 58 -210 q 36 -254 36 -315 l 36 -315 q 36 -367 57 -413 q 77 -460 120 -495 q 163 -531 229 -551 q 295 -571 385 -571 l 385 -571 q 476 -571 537 -551 q 598 -532 629 -495 q 659 -458 659 -404 l 659 -404 q 659 -365 640 -336 q 621 -307 584 -289 q 547 -271 492 -261 l 492 -261 l 433 -300 l 433 -325 l 440 -325 q 465 -325 484 -328 q 502 -332 516 -343 l 516 -343 q 528 -352 534 -364 q 539 -377 539 -395 l 539 -395 q 539 -422 524 -441 q 508 -460 472 -470 q 435 -481 374 -481 z m 668 -152 l 668 -152 q 668 -116 655 -87 q 641 -59 618 -39 l 618 -39 q 601 -26 579 -17 q 557 -9 524 -4 q 491 0 440 0 l 440 0 l 279 0 q 237 0 219 3 q 200 5 189 11 l 189 11 q 174 18 168 29 q 162 39 162 52 l 162 52 q 162 65 167 76 q 172 86 183 94 l 183 94 q 195 101 216 105 q 236 109 277 109 l 277 109 l 647 109 l 647 201 l 267 201 q 211 201 170 193 q 129 184 103 168 l 103 168 q 74 149 59 122 q 43 94 43 58 l 43 58 q 43 21 58 -8 q 73 -38 104 -58 l 104 -58 q 120 -69 141 -76 q 161 -83 191 -86 q 220 -90 262 -90 l 262 -90 l 427 -90 q 466 -90 489 -94 q 512 -98 526 -109 l 526 -109 q 537 -117 543 -130 q 549 -144 549 -162 l 549 -162 q 549 -180 542 -194 q 535 -209 521 -218 l 521 -218 q 509 -226 492 -230 q 474 -235 441 -235 l 441 -235 l 433 -235 l 433 -312 l 537 -296 q 602 -277 635 -241 q 668 -205 668 -152 z"},"ഴ":{"ha":651,"x_min":34,"x_max":617,"o":"m 251 -412 l 251 -412 q 251 -483 298 -527 q 345 -571 433 -571 l 433 -571 q 500 -571 540 -545 q 580 -519 599 -478 q 617 -438 617 -394 l 617 -394 q 617 -326 586 -271 q 554 -217 495 -185 q 435 -154 351 -154 l 351 -154 l 323 -154 q 227 -154 163 -185 q 98 -216 66 -271 q 34 -327 34 -400 l 34 -400 q 34 -442 47 -485 q 60 -528 88 -571 l 88 -571 l 184 -525 q 168 -493 161 -464 q 153 -436 153 -403 l 153 -403 q 153 -346 175 -309 q 197 -273 236 -255 q 274 -237 323 -237 l 323 -237 l 351 -237 q 398 -237 432 -257 q 465 -278 483 -314 q 500 -351 500 -398 l 500 -398 q 500 -433 485 -459 q 469 -485 432 -485 l 432 -485 q 410 -485 395 -475 q 380 -465 373 -447 q 365 -429 365 -406 l 365 -406 q 365 -369 378 -336 q 390 -303 406 -271 q 422 -239 435 -204 q 447 -170 447 -130 l 447 -130 q 447 -96 433 -63 q 419 -31 383 -9 q 346 12 280 12 l 280 12 q 241 12 200 5 q 158 -3 118 -20 l 118 -20 l 155 -105 q 184 -92 210 -85 q 236 -79 263 -79 l 263 -79 q 306 -79 320 -99 q 334 -119 334 -140 l 334 -140 q 334 -172 322 -203 q 309 -234 293 -266 q 276 -298 264 -334 q 251 -370 251 -412 z"},"വ":{"ha":936,"x_min":37,"x_max":873,"o":"m 331 -571 l 331 -571 q 408 -571 463 -548 q 517 -526 552 -486 q 586 -447 603 -396 q 619 -346 619 -291 l 619 -291 q 619 -232 606 -187 q 592 -142 569 -105 q 545 -69 515 -33 l 515 -33 l 528 -90 l 755 -90 l 755 -559 l 873 -559 l 873 0 l 452 0 l 406 -64 q 431 -88 452 -118 q 473 -149 486 -188 q 498 -228 498 -280 l 498 -280 q 498 -340 478 -385 q 457 -430 420 -454 q 382 -479 331 -479 l 331 -479 q 278 -479 240 -454 q 201 -430 180 -385 q 159 -341 159 -282 l 159 -282 q 159 -232 171 -192 q 183 -152 205 -119 q 227 -86 259 -56 l 259 -56 l 177 11 q 138 -22 106 -64 q 74 -107 56 -161 q 37 -216 37 -284 l 37 -284 q 37 -340 54 -391 q 71 -443 107 -483 q 143 -524 199 -547 q 255 -571 331 -571 z"},"ശ":{"ha":1013,"x_min":37,"x_max":976,"o":"m 653 -571 l 653 -571 q 729 -571 789 -548 q 848 -525 890 -481 q 932 -437 954 -376 q 976 -315 976 -238 l 976 -238 q 976 -150 950 -94 q 924 -39 877 -13 q 829 12 765 12 l 765 12 q 698 12 656 -17 q 613 -46 593 -95 q 573 -144 573 -203 l 573 -203 q 573 -297 620 -352 q 666 -407 751 -407 l 751 -407 q 802 -407 840 -381 q 878 -355 902 -312 q 926 -270 933 -221 l 933 -221 l 889 -219 q 884 -243 869 -266 q 854 -289 831 -304 q 808 -320 778 -320 l 778 -320 q 731 -320 710 -288 q 689 -257 689 -200 l 689 -200 q 689 -163 697 -135 q 705 -107 724 -92 q 742 -78 770 -78 l 770 -78 q 798 -78 819 -94 q 839 -110 850 -146 q 860 -182 860 -241 l 860 -241 q 860 -251 859 -270 q 858 -290 855 -308 l 855 -308 q 854 -313 856 -320 q 857 -328 854 -331 l 854 -331 q 847 -371 822 -404 q 797 -438 756 -458 q 714 -479 657 -479 l 657 -479 q 617 -479 591 -471 q 564 -463 543 -446 l 543 -446 q 511 -419 501 -373 q 490 -328 490 -259 l 490 -259 l 490 -234 q 490 -173 478 -127 q 466 -81 437 -48 l 437 -48 q 410 -19 371 -3 q 331 12 275 12 l 275 12 q 201 12 148 -21 q 94 -54 66 -114 q 37 -175 37 -259 l 37 -259 q 37 -328 53 -383 q 68 -439 98 -485 q 127 -531 167 -572 l 167 -572 l 252 -506 q 222 -473 201 -436 q 179 -399 168 -356 q 157 -314 157 -264 l 157 -264 q 157 -202 172 -161 q 187 -121 213 -100 q 239 -80 271 -80 l 271 -80 q 299 -80 318 -89 q 336 -99 347 -116 l 347 -116 q 360 -137 365 -168 q 369 -200 369 -243 l 369 -243 l 369 -280 q 369 -367 390 -421 q 410 -475 449 -509 l 449 -509 q 487 -542 535 -556 q 583 -571 653 -571 z"},"ഷ":{"ha":1130,"x_min":30,"x_max":1068,"o":"m 233 -356 l 233 -356 q 303 -356 348 -329 q 392 -303 413 -261 q 434 -220 434 -175 l 434 -175 q 434 -139 423 -110 q 412 -82 400 -65 l 400 -65 l 386 -90 l 654 -90 l 695 0 l 326 0 l 284 -56 q 297 -75 308 -101 q 319 -127 319 -164 l 319 -164 q 319 -209 298 -237 q 276 -266 234 -266 l 234 -266 q 205 -266 186 -253 q 167 -241 157 -218 q 147 -195 147 -167 l 147 -167 q 147 -125 161 -97 q 175 -69 195 -43 l 195 -43 l 107 10 q 72 -28 51 -71 q 30 -115 30 -172 l 30 -172 q 30 -227 56 -268 q 81 -310 127 -333 q 172 -356 233 -356 z m 1068 0 l 637 0 l 637 -393 q 637 -420 634 -437 q 631 -455 623 -465 l 623 -465 q 618 -473 610 -477 q 601 -482 588 -482 l 588 -482 q 564 -482 549 -464 q 534 -446 534 -411 l 534 -411 q 534 -387 543 -365 q 551 -344 575 -331 q 599 -319 644 -319 l 644 -319 l 681 -319 q 734 -319 775 -339 q 816 -360 848 -394 q 880 -429 905 -472 q 930 -515 951 -559 l 951 -559 l 1068 -559 l 1068 0 z m 590 -571 l 590 -571 q 626 -571 655 -562 q 683 -553 703 -535 l 703 -535 q 728 -514 741 -479 q 753 -445 753 -385 l 753 -385 l 753 -90 l 950 -90 l 950 -310 q 950 -330 951 -349 q 952 -369 954 -386 q 955 -404 956 -416 l 956 -416 l 958 -407 q 929 -348 887 -309 q 845 -270 796 -251 q 746 -232 695 -232 l 695 -232 l 646 -232 q 565 -232 516 -256 q 466 -281 444 -322 q 421 -363 421 -413 l 421 -413 q 421 -454 441 -490 q 460 -526 498 -548 q 535 -571 590 -571 z"},"സ":{"ha":1179,"x_min":37,"x_max":1143,"o":"m 602 -571 l 602 -571 q 652 -571 689 -556 q 725 -542 752 -513 l 752 -513 q 771 -493 783 -468 q 795 -444 801 -408 q 807 -373 807 -322 l 807 -322 l 807 -255 q 807 -199 812 -167 q 816 -136 829 -116 l 829 -116 q 840 -99 859 -89 q 877 -80 907 -80 l 907 -80 q 940 -80 966 -100 q 992 -121 1007 -162 q 1022 -203 1022 -265 l 1022 -265 q 1022 -315 1011 -357 q 1000 -399 979 -436 q 958 -473 927 -506 l 927 -506 l 1012 -572 q 1053 -531 1082 -485 q 1111 -439 1127 -383 q 1143 -328 1143 -259 l 1143 -259 q 1143 -175 1114 -114 q 1084 -54 1030 -21 q 976 12 902 12 l 902 12 q 846 12 806 -3 q 766 -19 740 -48 l 740 -48 q 721 -70 710 -97 q 698 -125 693 -160 q 687 -195 687 -237 l 687 -237 l 687 -311 q 687 -368 683 -397 q 678 -427 665 -446 l 665 -446 q 654 -463 636 -471 q 618 -479 592 -479 l 592 -479 q 570 -479 552 -471 q 534 -464 524 -450 l 524 -450 q 509 -431 503 -402 q 496 -374 496 -322 l 496 -322 l 496 0 l 378 0 l 378 -311 q 378 -369 373 -398 q 368 -428 353 -446 l 353 -446 q 341 -463 322 -471 q 302 -480 282 -480 l 282 -480 q 246 -480 218 -457 q 189 -435 173 -394 q 157 -353 157 -294 l 157 -294 q 157 -245 169 -204 q 180 -163 201 -126 q 222 -90 252 -56 l 252 -56 l 166 10 q 126 -30 97 -75 q 68 -121 53 -176 q 37 -232 37 -300 l 37 -300 q 37 -379 65 -440 q 92 -501 145 -536 q 198 -571 274 -571 l 274 -571 q 331 -571 371 -551 q 411 -532 445 -489 l 445 -489 l 433 -489 q 463 -527 501 -549 q 539 -571 602 -571 z"},"ഹ":{"ha":1158,"x_min":30,"x_max":1122,"o":"m 233 -356 l 233 -356 q 303 -356 348 -329 q 392 -303 413 -261 q 434 -220 434 -175 l 434 -175 q 434 -139 423 -110 q 412 -82 400 -65 l 400 -65 l 386 -90 l 648 -90 l 696 0 l 326 0 l 284 -56 q 297 -75 308 -101 q 319 -127 319 -164 l 319 -164 q 319 -209 298 -237 q 276 -266 234 -266 l 234 -266 q 205 -266 186 -253 q 167 -241 157 -218 q 147 -195 147 -167 l 147 -167 q 147 -125 161 -97 q 175 -69 195 -43 l 195 -43 l 107 10 q 72 -28 51 -71 q 30 -115 30 -172 l 30 -172 q 30 -227 56 -268 q 81 -310 127 -333 q 172 -356 233 -356 z m 831 -571 l 831 -571 q 909 -571 964 -548 q 1019 -525 1054 -484 q 1089 -444 1106 -392 q 1122 -341 1122 -284 l 1122 -284 q 1122 -215 1104 -161 q 1085 -108 1053 -66 q 1021 -24 979 11 l 979 11 l 899 -56 q 927 -83 950 -114 q 972 -146 986 -186 q 999 -227 999 -280 l 999 -280 q 999 -340 979 -385 q 958 -430 921 -454 q 883 -479 832 -479 l 832 -479 q 779 -479 741 -454 q 702 -430 681 -385 q 660 -341 660 -282 l 660 -282 q 660 -234 671 -195 q 682 -157 703 -125 q 723 -93 752 -64 l 752 -64 l 705 0 l 677 0 l 640 -36 q 613 -69 590 -106 q 567 -143 553 -187 q 539 -231 539 -288 l 539 -288 q 539 -343 556 -394 q 573 -445 609 -484 q 645 -524 700 -547 q 755 -571 831 -571 z"},"ഺ":{"ha":708,"x_min":19,"x_max":690,"o":"m 149 -90 l 690 -90 l 690 0 l 449 0 l 449 202 l 330 202 l 330 0 l 77 0 l 19 -71 l 206 -563 l 315 -527 l 149 -90 z"},"഻":{"ha":0,"x_min":-322,"x_max":-235,"o":"m -322 -592 l -322 -864 l -235 -864 l -235 -592 l -322 -592 z"},"഼":{"ha":0,"x_min":-255,"x_max":19,"o":"m -255 -726 l -255 -726 q -255 -784 -217 -821 q -180 -859 -119 -859 l -119 -859 q -56 -859 -18 -822 q 19 -785 19 -726 l 19 -726 q 19 -667 -18 -629 q -56 -592 -118 -592 l -118 -592 q -181 -592 -218 -629 q -255 -667 -255 -726 z m -169 -727 l -169 -727 q -169 -700 -156 -684 q -143 -668 -119 -668 l -119 -668 q -93 -668 -80 -684 q -67 -700 -67 -726 l -67 -726 q -67 -752 -80 -767 q -93 -783 -119 -783 l -119 -783 q -143 -783 -156 -767 q -169 -752 -169 -727 z"},"ഽ":{"ha":467,"x_min":-78,"x_max":545,"o":"m 365 -797 l 365 -797 q 417 -797 453 -776 q 489 -756 512 -722 q 534 -688 545 -646 l 545 -646 l 429 -623 q 423 -649 415 -667 q 407 -686 395 -696 q 382 -707 363 -707 l 363 -707 q 346 -707 333 -700 q 320 -693 311 -679 l 311 -679 q 302 -664 298 -637 q 294 -610 294 -561 l 294 -561 l 294 -18 q 294 63 283 112 q 271 161 239 194 l 239 194 q 216 217 183 231 q 149 244 101 244 l 101 244 q 50 244 14 224 q -23 203 -45 169 q -67 134 -78 92 l -78 92 l 37 69 q 43 95 52 115 q 61 134 74 144 q 86 154 104 154 l 104 154 q 123 154 136 147 q 148 139 155 126 l 155 126 q 166 108 170 81 q 173 54 173 10 l 173 10 l 173 -531 q 173 -615 184 -664 q 195 -713 228 -746 l 228 -746 q 250 -769 284 -783 q 318 -797 365 -797 z"},"ാ":{"ha":506,"x_min":18,"x_max":467,"o":"m 467 -281 l 467 -281 q 467 -219 456 -166 q 444 -113 418 -73 q 392 -33 348 -10 q 304 12 238 12 l 238 12 q 181 12 142 -5 q 103 -22 78 -49 q 53 -77 39 -111 q 25 -145 18 -178 l 18 -178 l 138 -199 q 144 -173 155 -144 q 165 -116 185 -96 q 205 -77 238 -77 l 238 -77 q 276 -77 300 -102 q 323 -127 334 -172 q 345 -218 345 -281 l 345 -281 q 345 -343 334 -388 q 323 -433 300 -457 q 277 -482 241 -482 l 241 -482 q 210 -482 190 -464 q 170 -446 158 -418 q 146 -391 140 -361 l 140 -361 l 21 -383 q 31 -417 47 -450 q 62 -484 88 -511 q 114 -538 153 -554 q 192 -571 247 -571 l 247 -571 q 309 -571 352 -548 q 394 -526 420 -486 q 445 -447 456 -394 q 467 -342 467 -281 z"},"ി":{"ha":244,"x_min":-213,"x_max":181,"o":"m -22 -848 l -22 -848 q 18 -848 51 -839 q 83 -830 107 -811 l 107 -811 q 135 -789 151 -760 q 167 -731 174 -687 q 181 -643 181 -573 l 181 -573 l 181 0 l 62 0 l 62 -545 q 62 -594 60 -630 q 58 -667 52 -691 q 46 -716 35 -730 l 35 -730 q 25 -743 12 -750 q -2 -758 -23 -758 l -23 -758 q -41 -758 -57 -749 q -74 -741 -84 -724 q -94 -707 -94 -680 l -94 -680 q -94 -670 -92 -659 q -91 -648 -90 -639 l -90 -639 l -206 -624 q -209 -636 -211 -650 q -213 -665 -213 -680 l -213 -680 q -213 -736 -187 -773 q -162 -810 -118 -829 q -75 -848 -22 -848 z"},"ീ":{"ha":244,"x_min":-264,"x_max":181,"o":"m -86 -848 l -86 -848 q -33 -848 10 -836 q 53 -825 90 -799 l 90 -799 q 143 -761 162 -699 q 181 -637 181 -536 l 181 -536 l 181 0 l 62 0 l 62 -520 q 62 -580 58 -622 q 54 -664 44 -691 q 33 -719 13 -737 l 13 -737 q -5 -758 -31 -765 q -58 -772 -97 -772 l -97 -772 q -115 -772 -132 -766 q -150 -760 -161 -746 q -173 -733 -173 -710 l -173 -710 q -173 -687 -161 -672 q -149 -658 -125 -658 l -125 -658 q -96 -658 -85 -675 q -74 -692 -74 -715 l -74 -715 q -74 -739 -85 -759 q -96 -780 -114 -793 l -114 -793 l -9 -777 q 0 -767 6 -749 q 11 -732 11 -709 l 11 -709 q 11 -673 -2 -643 q -16 -614 -46 -596 q -77 -579 -127 -579 l -127 -579 q -167 -579 -198 -594 q -229 -609 -246 -638 q -264 -667 -264 -709 l -264 -709 q -264 -749 -244 -780 q -225 -812 -185 -830 q -146 -848 -86 -848 z"},"ു":{"ha":336,"x_min":-26,"x_max":342,"o":"m 158 232 l 158 232 q 73 232 24 183 q -26 133 -26 53 l -26 53 q -26 -1 -3 -41 q 20 -81 62 -103 q 103 -125 157 -125 l 157 -125 q 212 -125 254 -104 q 295 -83 319 -43 q 342 -3 342 53 l 342 53 q 342 108 319 148 q 295 188 254 210 q 212 232 158 232 z m 158 149 l 158 149 q 192 149 214 125 q 236 101 236 53 l 236 53 q 236 6 215 -18 q 193 -42 157 -42 l 157 -42 q 123 -42 102 -18 q 80 6 80 54 l 80 54 q 80 101 102 125 q 124 149 158 149 z m 120 -571 l 120 -571 q 180 -571 215 -548 q 249 -525 263 -487 q 277 -449 277 -406 l 277 -406 q 277 -335 260 -258 q 243 -181 218 -93 l 218 -93 l 108 -108 q 131 -188 144 -257 q 157 -327 157 -387 l 157 -387 q 157 -427 143 -453 q 129 -479 91 -479 l 91 -479 q 77 -479 63 -477 q 49 -475 38 -472 l 38 -472 l 19 -559 q 38 -564 63 -567 q 88 -571 120 -571 z"},"ൂ":{"ha":336,"x_min":-26,"x_max":342,"o":"m 158 232 l 158 232 q 72 232 23 183 q -26 133 -26 53 l -26 53 q -26 -1 -3 -41 q 20 -81 62 -103 q 103 -125 157 -125 l 157 -125 q 212 -125 254 -104 q 295 -83 319 -43 q 342 -3 342 53 l 342 53 q 342 108 319 148 q 295 188 254 210 q 212 232 158 232 z m 158 -46 l 158 -46 q 117 -46 90 -22 q 63 2 63 54 l 63 54 q 63 104 90 128 q 117 152 158 152 l 158 152 q 198 152 225 128 q 252 104 252 54 l 252 54 q 252 3 226 -21 q 199 -46 158 -46 z m 158 99 l 158 99 q 104 99 79 67 q 53 35 53 -15 l 53 -15 q 53 -35 63 -55 q 73 -76 91 -99 l 91 -99 l 136 -72 q 119 -64 111 -51 q 102 -38 102 -25 l 102 -25 q 102 -10 109 1 q 115 12 128 18 q 140 23 159 23 l 159 23 q 176 23 189 17 q 202 11 209 1 q 215 -10 215 -24 l 215 -24 q 215 -36 207 -48 q 199 -60 182 -68 l 182 -68 l 227 -99 q 247 -75 256 -56 q 264 -37 264 -16 l 264 -16 q 264 13 254 39 q 244 65 221 82 q 198 99 158 99 z m 121 -571 l 121 -571 q 180 -571 215 -548 q 249 -525 263 -487 q 277 -450 277 -406 l 277 -406 q 277 -335 260 -258 q 243 -181 218 -93 l 218 -93 l 108 -107 q 131 -188 144 -257 q 157 -327 157 -387 l 157 -387 q 157 -427 143 -453 q 129 -479 91 -479 l 91 -479 q 77 -479 63 -477 q 49 -475 38 -472 l 38 -472 l 19 -559 q 38 -564 63 -567 q 88 -571 121 -571 z"},"ൃ":{"ha":257,"x_min":-140,"x_max":255,"o":"m 42 327 l 42 327 q -14 327 -55 310 q -96 292 -118 257 q -140 222 -140 172 l -140 172 q -140 106 -96 66 q -52 26 30 26 l 30 26 q 68 26 106 39 q 144 51 189 87 l 189 87 l 162 164 q 132 137 103 125 q 73 113 39 113 l 39 113 q 8 113 -10 128 q -28 143 -28 175 l -28 175 q -28 205 -9 221 q 10 237 41 237 l 41 237 q 73 237 95 226 q 116 214 128 189 q 139 164 139 123 l 139 123 q 139 95 133 64 q 126 33 115 -2 q 103 -37 89 -76 l 89 -76 q 69 -129 54 -186 q 39 -243 39 -304 l 39 -304 q 39 -373 59 -438 q 78 -503 107 -559 l 107 -559 l 230 -559 q 205 -511 189 -470 q 173 -429 166 -390 q 158 -352 158 -311 l 158 -311 q 158 -257 170 -210 q 182 -164 201 -109 l 201 -109 q 218 -63 230 -24 q 242 15 249 51 q 255 86 255 122 l 255 122 q 255 195 226 240 q 196 285 148 306 q 99 327 42 327 z"},"ൄ":{"ha":257,"x_min":-269,"x_max":254,"o":"m -26 327 l -26 327 q -103 327 -157 308 q -212 288 -240 249 q -269 210 -269 153 l -269 153 q -269 98 -236 64 q -203 30 -150 30 l -150 30 q -117 30 -96 44 q -76 58 -63 79 l -63 79 l -73 78 q -58 55 -37 43 q -17 30 11 30 l 11 30 q 43 30 63 42 q 83 54 93 72 q 103 89 107 110 q 110 130 110 147 l 110 147 l 110 177 l 33 177 l 33 162 q 33 137 28 124 q 22 110 3 110 l 3 110 q -18 110 -24 124 q -30 138 -30 160 l -30 160 l -30 177 l -107 177 l -107 160 q -107 137 -113 124 q -120 110 -138 110 l -138 110 q -154 110 -163 122 q -173 133 -173 154 l -173 154 q -173 195 -136 216 q -99 237 -26 237 l -26 237 q 47 237 91 209 q 135 181 135 119 l 135 119 q 135 90 129 61 q 123 31 112 -3 q 101 -37 88 -76 l 88 -76 q 70 -127 55 -183 q 39 -240 39 -304 l 39 -304 q 39 -373 59 -438 q 78 -503 107 -559 l 107 -559 l 230 -559 q 205 -511 189 -470 q 173 -429 166 -390 q 158 -352 158 -311 l 158 -311 q 158 -257 170 -210 q 182 -164 201 -110 l 201 -110 q 218 -63 230 -25 q 242 13 248 48 q 254 82 254 120 l 254 120 q 254 186 221 232 q 188 278 125 303 q 62 327 -26 327 z"},"െ":{"ha":699,"x_min":37,"x_max":662,"o":"m 237 12 l 237 12 q 184 12 139 -13 q 93 -39 65 -94 q 37 -149 37 -238 l 37 -238 q 37 -314 61 -375 q 84 -437 128 -480 q 172 -524 233 -547 q 294 -571 368 -571 l 368 -571 q 443 -571 499 -549 q 554 -527 590 -488 q 626 -449 644 -396 q 662 -344 662 -283 l 662 -283 q 662 -215 644 -161 q 625 -108 593 -66 q 561 -24 520 11 l 520 11 l 441 -56 q 469 -83 492 -114 q 514 -146 528 -186 q 541 -226 541 -279 l 541 -279 q 541 -340 521 -385 q 500 -430 459 -454 q 418 -479 359 -479 l 359 -479 q 296 -479 248 -447 q 199 -415 173 -360 q 146 -305 146 -234 l 146 -234 q 146 -175 158 -140 q 169 -105 189 -90 q 208 -76 233 -76 l 233 -76 q 253 -76 267 -85 q 281 -95 289 -114 q 296 -134 296 -163 l 296 -163 q 296 -207 279 -229 q 261 -252 226 -252 l 226 -252 q 193 -252 163 -233 q 133 -215 103 -180 l 103 -180 l 88 -262 q 114 -292 157 -315 q 200 -339 252 -339 l 252 -339 q 303 -339 338 -319 q 373 -299 392 -261 q 411 -223 411 -170 l 411 -170 q 411 -112 390 -71 q 369 -31 331 -9 q 292 12 237 12 z"},"േ":{"ha":584,"x_min":35,"x_max":549,"o":"m 351 12 l 351 12 q 286 12 229 -5 q 172 -22 128 -58 q 84 -95 60 -150 q 35 -206 35 -283 l 35 -283 q 35 -358 61 -412 q 87 -467 132 -502 q 176 -537 234 -554 q 291 -571 356 -571 l 356 -571 q 426 -571 469 -551 q 511 -532 530 -499 q 549 -467 549 -426 l 549 -426 q 549 -383 531 -353 q 512 -324 479 -308 q 446 -293 404 -293 l 404 -293 q 350 -293 318 -311 q 285 -329 271 -359 q 257 -390 257 -424 l 257 -424 q 257 -446 263 -465 q 269 -484 276 -497 l 276 -497 l 385 -512 q 367 -499 358 -477 q 349 -455 349 -430 l 349 -430 q 349 -406 360 -389 q 371 -372 399 -372 l 399 -372 q 425 -372 436 -386 q 447 -401 447 -424 l 447 -424 q 447 -455 427 -470 q 406 -486 375 -486 l 375 -486 q 361 -486 347 -486 q 332 -486 321 -485 l 321 -485 q 269 -483 232 -457 q 194 -432 174 -387 q 153 -343 153 -282 l 153 -282 q 153 -223 172 -177 q 191 -131 228 -104 q 264 -77 315 -74 l 315 -74 q 327 -73 341 -73 q 355 -73 367 -73 l 367 -73 q 390 -73 407 -80 q 424 -87 433 -100 q 442 -114 442 -136 l 442 -136 q 442 -159 431 -174 q 420 -189 396 -189 l 396 -189 q 368 -189 356 -171 q 343 -153 343 -129 l 343 -129 q 343 -103 353 -82 q 362 -61 380 -48 l 380 -48 l 270 -64 q 263 -76 257 -95 q 251 -115 251 -138 l 251 -138 q 251 -171 265 -201 q 279 -231 312 -249 q 344 -268 399 -268 l 399 -268 q 441 -268 474 -252 q 506 -237 525 -207 q 544 -177 544 -133 l 544 -133 q 544 -93 524 -60 q 503 -27 461 -7 q 418 12 351 12 z"},"ൈ":{"ha":1397,"x_min":37,"x_max":1360,"o":"m 237 12 l 237 12 q 184 12 139 -13 q 93 -39 65 -94 q 37 -149 37 -238 l 37 -238 q 37 -314 61 -375 q 84 -437 128 -480 q 172 -524 233 -547 q 294 -571 368 -571 l 368 -571 q 443 -571 499 -549 q 554 -527 590 -488 q 626 -449 644 -396 q 662 -344 662 -283 l 662 -283 q 662 -215 644 -161 q 625 -108 593 -66 q 561 -24 520 11 l 520 11 l 441 -56 q 469 -83 492 -114 q 514 -146 528 -186 q 541 -226 541 -279 l 541 -279 q 541 -340 521 -385 q 500 -430 459 -454 q 418 -479 359 -479 l 359 -479 q 296 -479 248 -447 q 199 -415 173 -360 q 146 -305 146 -234 l 146 -234 q 146 -175 158 -140 q 169 -105 189 -90 q 208 -76 233 -76 l 233 -76 q 253 -76 267 -85 q 281 -95 289 -114 q 296 -134 296 -163 l 296 -163 q 296 -207 279 -229 q 261 -252 226 -252 l 226 -252 q 193 -252 163 -233 q 133 -215 103 -180 l 103 -180 l 88 -262 q 114 -292 157 -315 q 200 -339 252 -339 l 252 -339 q 303 -339 338 -319 q 373 -299 392 -261 q 411 -223 411 -170 l 411 -170 q 411 -112 390 -71 q 369 -31 331 -9 q 292 12 237 12 z m 935 12 l 935 12 q 882 12 837 -13 q 791 -39 763 -94 q 735 -149 735 -238 l 735 -238 q 735 -314 759 -375 q 782 -437 826 -480 q 870 -524 931 -547 q 992 -571 1066 -571 l 1066 -571 q 1141 -571 1197 -549 q 1252 -527 1288 -488 q 1324 -449 1342 -396 q 1360 -344 1360 -283 l 1360 -283 q 1360 -215 1342 -161 q 1323 -108 1291 -66 q 1259 -24 1218 11 l 1218 11 l 1139 -56 q 1167 -83 1190 -114 q 1212 -146 1226 -186 q 1239 -226 1239 -279 l 1239 -279 q 1239 -340 1219 -385 q 1198 -430 1157 -454 q 1116 -479 1057 -479 l 1057 -479 q 994 -479 946 -447 q 897 -415 871 -360 q 844 -305 844 -234 l 844 -234 q 844 -175 856 -140 q 867 -105 887 -90 q 906 -76 931 -76 l 931 -76 q 951 -76 965 -85 q 979 -95 987 -114 q 994 -134 994 -163 l 994 -163 q 994 -207 977 -229 q 959 -252 924 -252 l 924 -252 q 891 -252 861 -233 q 831 -215 801 -180 l 801 -180 l 786 -262 q 812 -292 855 -315 q 898 -339 950 -339 l 950 -339 q 1001 -339 1036 -319 q 1071 -299 1090 -261 q 1109 -223 1109 -170 l 1109 -170 q 1109 -112 1088 -71 q 1067 -31 1029 -9 q 990 12 935 12 z"},"ൊ":{"ha":1393,"x_min":37,"x_max":1354,"o":"m 237 12 l 237 12 q 184 12 139 -13 q 93 -39 65 -94 q 37 -149 37 -238 l 37 -238 q 37 -314 61 -375 q 84 -437 128 -480 q 172 -524 233 -547 q 294 -571 368 -571 l 368 -571 q 443 -571 499 -549 q 554 -527 590 -488 q 626 -449 644 -396 q 662 -344 662 -283 l 662 -283 q 662 -215 644 -161 q 625 -108 593 -66 q 561 -24 520 11 l 520 11 l 441 -56 q 469 -83 492 -114 q 514 -146 528 -186 q 541 -226 541 -279 l 541 -279 q 541 -340 521 -385 q 500 -430 459 -454 q 418 -479 359 -479 l 359 -479 q 296 -479 248 -447 q 199 -415 173 -360 q 146 -305 146 -234 l 146 -234 q 146 -175 158 -140 q 169 -105 189 -90 q 208 -76 233 -76 l 233 -76 q 253 -76 267 -85 q 281 -95 289 -114 q 296 -134 296 -163 l 296 -163 q 296 -207 279 -229 q 261 -252 226 -252 l 226 -252 q 193 -252 163 -233 q 133 -215 103 -180 l 103 -180 l 88 -262 q 114 -292 157 -315 q 200 -339 252 -339 l 252 -339 q 303 -339 338 -319 q 373 -299 392 -261 q 411 -223 411 -170 l 411 -170 q 411 -112 390 -71 q 369 -31 331 -9 q 292 12 237 12 z m 800 -221 l 800 -221 q 768 -221 748 -240 q 727 -259 727 -298 l 727 -298 q 727 -338 748 -356 q 768 -374 800 -374 l 800 -374 q 832 -374 853 -356 q 873 -339 873 -298 l 873 -298 q 873 -258 853 -239 q 832 -221 800 -221 z m 1354 -281 l 1354 -281 q 1354 -219 1343 -166 q 1331 -113 1305 -73 q 1279 -33 1235 -10 q 1191 12 1125 12 l 1125 12 q 1068 12 1029 -5 q 990 -22 965 -49 q 940 -77 926 -111 q 912 -145 905 -178 l 905 -178 l 1025 -199 q 1031 -173 1042 -144 q 1052 -116 1072 -96 q 1092 -77 1125 -77 l 1125 -77 q 1163 -77 1187 -102 q 1210 -127 1221 -172 q 1232 -218 1232 -281 l 1232 -281 q 1232 -343 1221 -388 q 1210 -433 1187 -457 q 1164 -482 1128 -482 l 1128 -482 q 1097 -482 1077 -464 q 1057 -446 1045 -418 q 1033 -391 1027 -361 l 1027 -361 l 908 -383 q 918 -417 934 -450 q 949 -484 975 -511 q 1001 -538 1040 -554 q 1079 -571 1134 -571 l 1134 -571 q 1196 -571 1239 -548 q 1281 -526 1307 -486 q 1332 -447 1343 -394 q 1354 -342 1354 -281 z"},"ോ":{"ha":1261,"x_min":35,"x_max":1222,"o":"m 351 12 l 351 12 q 286 12 229 -5 q 172 -22 128 -58 q 84 -95 60 -150 q 35 -206 35 -283 l 35 -283 q 35 -358 61 -412 q 87 -467 132 -502 q 176 -537 234 -554 q 291 -571 356 -571 l 356 -571 q 426 -571 469 -551 q 511 -532 530 -499 q 549 -467 549 -426 l 549 -426 q 549 -383 531 -353 q 512 -324 479 -308 q 446 -293 404 -293 l 404 -293 q 350 -293 318 -311 q 285 -329 271 -359 q 257 -390 257 -424 l 257 -424 q 257 -446 263 -465 q 269 -484 276 -497 l 276 -497 l 385 -512 q 367 -499 358 -477 q 349 -455 349 -430 l 349 -430 q 349 -406 360 -389 q 371 -372 399 -372 l 399 -372 q 425 -372 436 -386 q 447 -401 447 -424 l 447 -424 q 447 -455 427 -470 q 406 -486 375 -486 l 375 -486 q 361 -486 347 -486 q 332 -486 321 -485 l 321 -485 q 269 -483 232 -457 q 194 -432 174 -387 q 153 -343 153 -282 l 153 -282 q 153 -223 172 -177 q 191 -131 228 -104 q 264 -77 315 -74 l 315 -74 q 327 -73 341 -73 q 355 -73 367 -73 l 367 -73 q 390 -73 407 -80 q 424 -87 433 -100 q 442 -114 442 -136 l 442 -136 q 442 -159 431 -174 q 420 -189 396 -189 l 396 -189 q 368 -189 356 -171 q 343 -153 343 -129 l 343 -129 q 343 -103 353 -82 q 362 -61 380 -48 l 380 -48 l 270 -64 q 263 -76 257 -95 q 251 -115 251 -138 l 251 -138 q 251 -171 265 -201 q 279 -231 312 -249 q 344 -268 399 -268 l 399 -268 q 441 -268 474 -252 q 506 -237 525 -207 q 544 -177 544 -133 l 544 -133 q 544 -93 524 -60 q 503 -27 461 -7 q 418 12 351 12 z m 668 -221 l 668 -221 q 636 -221 616 -240 q 595 -259 595 -298 l 595 -298 q 595 -338 616 -356 q 636 -374 668 -374 l 668 -374 q 700 -374 721 -356 q 741 -339 741 -298 l 741 -298 q 741 -258 721 -239 q 700 -221 668 -221 z m 1222 -281 l 1222 -281 q 1222 -219 1211 -166 q 1199 -113 1173 -73 q 1147 -33 1103 -10 q 1059 12 993 12 l 993 12 q 936 12 897 -5 q 858 -22 833 -49 q 808 -77 794 -111 q 780 -145 773 -178 l 773 -178 l 893 -199 q 899 -173 910 -144 q 920 -116 940 -96 q 960 -77 993 -77 l 993 -77 q 1031 -77 1055 -102 q 1078 -127 1089 -172 q 1100 -218 1100 -281 l 1100 -281 q 1100 -343 1089 -388 q 1078 -433 1055 -457 q 1032 -482 996 -482 l 996 -482 q 965 -482 945 -464 q 925 -446 913 -418 q 901 -391 895 -361 l 895 -361 l 776 -383 q 786 -417 802 -450 q 817 -484 843 -511 q 869 -538 908 -554 q 947 -571 1002 -571 l 1002 -571 q 1064 -571 1107 -548 q 1149 -526 1175 -486 q 1200 -447 1211 -394 q 1222 -342 1222 -281 z"},"ൌ":{"ha":1637,"x_min":37,"x_max":1600,"o":"m 237 12 l 237 12 q 184 12 139 -13 q 93 -39 65 -94 q 37 -149 37 -238 l 37 -238 q 37 -314 61 -375 q 84 -437 128 -480 q 172 -524 233 -547 q 294 -571 368 -571 l 368 -571 q 443 -571 499 -549 q 554 -527 590 -488 q 626 -449 644 -396 q 662 -344 662 -283 l 662 -283 q 662 -215 644 -161 q 625 -108 593 -66 q 561 -24 520 11 l 520 11 l 441 -56 q 469 -83 492 -114 q 514 -146 528 -186 q 541 -226 541 -279 l 541 -279 q 541 -340 521 -385 q 500 -430 459 -454 q 418 -479 359 -479 l 359 -479 q 296 -479 248 -447 q 199 -415 173 -360 q 146 -305 146 -234 l 146 -234 q 146 -175 158 -140 q 169 -105 189 -90 q 208 -76 233 -76 l 233 -76 q 253 -76 267 -85 q 281 -95 289 -114 q 296 -134 296 -163 l 296 -163 q 296 -207 279 -229 q 261 -252 226 -252 l 226 -252 q 193 -252 163 -233 q 133 -215 103 -180 l 103 -180 l 88 -262 q 114 -292 157 -315 q 200 -339 252 -339 l 252 -339 q 303 -339 338 -319 q 373 -299 392 -261 q 411 -223 411 -170 l 411 -170 q 411 -112 390 -71 q 369 -31 331 -9 q 292 12 237 12 z m 800 -221 l 800 -221 q 768 -221 748 -240 q 727 -259 727 -298 l 727 -298 q 727 -338 748 -356 q 768 -374 800 -374 l 800 -374 q 832 -374 853 -356 q 873 -339 873 -298 l 873 -298 q 873 -258 853 -239 q 832 -221 800 -221 z m 1397 -571 l 1397 -571 q 1462 -571 1507 -539 q 1552 -507 1576 -448 q 1600 -389 1600 -308 l 1600 -308 q 1600 -204 1568 -132 q 1536 -61 1474 -24 q 1411 12 1319 12 l 1319 12 q 1254 12 1203 0 q 1151 -12 1102 -37 l 1102 -37 l 1150 -123 q 1188 -104 1225 -92 q 1262 -81 1310 -81 l 1310 -81 q 1374 -81 1411 -108 q 1448 -136 1464 -186 q 1479 -236 1479 -306 l 1479 -306 q 1479 -396 1454 -438 q 1429 -480 1389 -480 l 1389 -480 q 1368 -480 1355 -472 q 1342 -465 1334 -451 l 1334 -451 q 1325 -437 1323 -417 q 1320 -398 1320 -357 l 1320 -357 l 1320 -262 l 1202 -262 l 1202 -341 q 1202 -385 1199 -410 q 1196 -435 1188 -449 l 1188 -449 q 1178 -466 1163 -473 q 1148 -480 1131 -480 l 1131 -480 q 1091 -480 1071 -451 q 1051 -422 1051 -383 l 1051 -383 q 1051 -350 1056 -326 q 1060 -302 1066 -282 l 1066 -282 l 952 -257 q 943 -286 938 -320 q 933 -355 933 -384 l 933 -384 q 933 -434 953 -476 q 972 -519 1014 -545 q 1055 -571 1120 -571 l 1120 -571 q 1171 -571 1206 -553 q 1241 -535 1265 -501 l 1265 -501 l 1252 -502 q 1279 -539 1314 -555 q 1349 -571 1397 -571 z"},"്":{"ha":0,"x_min":-290,"x_max":76,"o":"m -107 -594 l -107 -594 q -170 -594 -210 -615 q -251 -636 -270 -672 q -290 -709 -290 -756 l -290 -756 q -290 -777 -286 -795 q -283 -813 -278 -826 l -278 -826 l -175 -809 q -178 -798 -180 -785 q -182 -773 -182 -761 l -182 -761 q -182 -731 -172 -713 q -162 -695 -145 -687 q -128 -680 -106 -680 l -106 -680 q -83 -680 -66 -687 q -49 -695 -39 -712 q -29 -730 -29 -762 l -29 -762 q -29 -773 -30 -786 q -32 -799 -35 -809 l -35 -809 l 65 -826 q 70 -814 73 -795 q 76 -777 76 -757 l 76 -757 q 76 -709 57 -672 q 37 -636 -3 -615 q -44 -594 -107 -594 z"},"ൎ":{"ha":0,"x_min":-341,"x_max":-209,"o":"m -341 -822 l -209 -822 l -218 -633 l -333 -633 l -341 -822 z"},"൏":{"ha":1207,"x_min":43,"x_max":1168,"o":"m 570 -571 l 570 -571 q 649 -571 701 -545 q 752 -520 791 -473 l 791 -473 l 763 -487 q 794 -531 837 -551 q 879 -571 934 -571 l 934 -571 q 1009 -571 1062 -532 q 1114 -493 1141 -418 q 1168 -343 1168 -237 l 1168 -237 q 1168 -82 1110 25 q 1051 131 927 185 q 803 239 605 239 l 605 239 q 472 239 376 214 q 279 189 215 145 q 150 100 113 40 q 75 -20 59 -90 q 43 -160 43 -235 l 43 -235 q 43 -310 62 -388 q 80 -466 115 -545 l 115 -545 l 216 -506 q 184 -439 170 -369 q 156 -299 156 -235 l 156 -235 q 156 -176 167 -120 q 178 -65 206 -17 q 233 30 284 66 q 334 102 413 122 q 492 142 606 142 l 606 142 q 735 142 821 116 q 906 89 956 40 q 1005 -10 1026 -81 q 1047 -152 1047 -242 l 1047 -242 q 1047 -319 1032 -372 q 1017 -425 991 -452 q 964 -480 926 -480 l 926 -480 q 901 -480 884 -471 q 866 -462 855 -447 l 855 -447 q 841 -429 836 -400 q 830 -372 830 -321 l 830 -321 l 830 0 l 712 0 l 712 -290 q 712 -359 702 -393 q 692 -427 672 -445 l 672 -445 q 655 -462 632 -470 q 608 -479 569 -479 l 569 -479 q 509 -479 463 -451 q 417 -423 391 -370 q 364 -317 364 -242 l 364 -242 l 364 -231 q 364 -174 376 -139 q 387 -105 407 -90 q 426 -76 451 -76 l 451 -76 q 471 -76 485 -85 q 499 -95 507 -114 q 514 -133 514 -163 l 514 -163 q 514 -208 496 -230 q 478 -252 443 -252 l 443 -252 q 410 -252 380 -233 q 350 -215 321 -180 l 321 -180 l 306 -262 q 332 -292 376 -315 q 419 -339 471 -339 l 471 -339 q 521 -339 556 -319 q 591 -299 610 -261 q 628 -223 628 -170 l 628 -170 q 628 -112 608 -71 q 587 -31 548 -9 q 509 12 454 12 l 454 12 q 401 12 356 -13 q 310 -39 283 -95 q 255 -151 255 -242 l 255 -242 q 255 -351 297 -424 q 338 -497 410 -534 q 481 -571 570 -571 z"},"ൔ":{"ha":627,"x_min":55,"x_max":613,"o":"m 182 -797 l 182 -797 q 218 -797 246 -787 q 273 -777 288 -761 l 288 -761 q 311 -739 320 -709 q 328 -679 328 -634 l 328 -634 l 328 -522 q 328 -478 333 -439 q 338 -401 357 -364 q 375 -327 415 -283 l 415 -283 l 437 -260 q 468 -224 512 -181 q 556 -138 613 -84 l 613 -84 l 571 0 l 55 0 l 55 -265 q 55 -322 63 -365 q 71 -408 88 -440 q 105 -473 131 -498 l 131 -498 q 168 -531 218 -550 q 267 -570 327 -570 l 327 -570 q 386 -570 431 -546 q 475 -523 500 -480 q 525 -438 525 -380 l 525 -380 q 525 -328 503 -285 q 480 -242 447 -205 l 447 -205 l 425 -186 q 403 -164 380 -142 q 357 -120 332 -99 q 306 -78 279 -58 l 279 -58 l 287 -86 q 313 -88 336 -89 q 359 -90 373 -90 l 373 -90 l 419 -90 q 427 -90 443 -89 q 459 -89 476 -88 q 493 -88 506 -86 l 506 -86 l 499 -62 q 462 -97 431 -127 q 399 -157 373 -185 l 373 -185 l 345 -215 q 292 -270 265 -318 q 238 -366 229 -415 q 219 -464 219 -521 l 219 -521 l 219 -620 q 219 -650 214 -666 q 209 -682 199 -690 l 199 -690 q 192 -698 180 -701 q 168 -705 151 -705 l 151 -705 q 134 -705 118 -702 q 101 -700 90 -696 l 90 -696 l 68 -782 q 89 -788 119 -792 q 148 -797 182 -797 z m 173 -266 l 173 -66 l 151 -69 q 194 -102 233 -134 q 271 -167 303 -199 q 335 -232 358 -266 l 358 -266 l 380 -291 q 394 -315 402 -337 q 410 -359 410 -386 l 410 -386 q 410 -417 397 -439 q 384 -461 361 -472 q 338 -483 305 -483 l 305 -483 q 265 -483 239 -464 q 212 -445 198 -415 l 198 -415 q 190 -398 184 -377 q 178 -357 176 -330 q 173 -303 173 -266 l 173 -266 z"},"ൕ":{"ha":1012,"x_min":37,"x_max":975,"o":"m 666 12 l 666 12 q 625 12 593 8 q 561 3 534 -6 q 507 -15 477 -30 l 477 -30 q 472 -34 464 -39 q 455 -44 450 -48 l 450 -48 q 395 -86 363 -133 q 331 -181 317 -233 q 302 -286 302 -339 l 302 -339 q 302 -376 309 -407 q 316 -438 328 -463 l 328 -463 l 340 -477 q 359 -511 387 -532 q 415 -553 449 -562 q 482 -571 517 -571 l 517 -571 q 616 -571 672 -511 q 727 -452 727 -338 l 727 -338 q 727 -275 710 -222 q 692 -169 660 -126 q 627 -83 582 -52 l 582 -52 q 574 -46 567 -41 q 559 -36 549 -31 l 549 -31 q 510 -9 465 2 q 420 12 365 12 l 365 12 q 285 12 224 -13 q 162 -38 121 -84 q 79 -130 58 -192 q 37 -255 37 -331 l 37 -331 q 37 -404 63 -458 q 88 -512 138 -541 q 187 -571 259 -571 l 259 -571 q 315 -571 360 -549 q 404 -528 436 -483 l 436 -483 l 346 -426 q 331 -453 310 -467 q 288 -481 261 -481 l 261 -481 q 228 -481 205 -463 q 182 -446 170 -412 q 157 -379 157 -331 l 157 -331 q 157 -255 183 -197 q 209 -140 257 -108 q 305 -76 372 -76 l 372 -76 q 397 -76 418 -79 q 438 -82 456 -87 l 456 -87 q 466 -91 475 -93 q 483 -95 491 -99 l 491 -99 q 524 -118 550 -153 q 576 -189 592 -236 q 607 -283 607 -337 l 607 -337 q 607 -392 594 -423 q 580 -454 560 -467 q 539 -481 516 -481 l 516 -481 q 487 -481 466 -465 q 444 -450 433 -418 q 421 -386 421 -337 l 421 -337 q 421 -288 435 -241 q 449 -195 475 -158 q 500 -121 535 -99 l 535 -99 q 543 -95 549 -94 q 555 -94 564 -90 l 564 -90 q 579 -84 603 -80 q 627 -76 664 -76 l 664 -76 q 730 -76 772 -99 q 814 -122 834 -160 q 854 -199 854 -248 l 854 -248 q 854 -286 845 -319 q 836 -352 818 -387 q 799 -422 772 -463 l 772 -463 q 746 -503 728 -534 q 710 -566 700 -596 q 690 -627 690 -661 l 690 -661 q 690 -693 704 -724 q 718 -755 752 -776 q 785 -797 845 -797 l 845 -797 q 883 -797 911 -792 q 938 -787 953 -782 l 953 -782 l 932 -695 q 919 -700 904 -702 q 889 -705 869 -705 l 869 -705 q 837 -705 823 -689 q 808 -674 808 -650 l 808 -650 q 808 -631 815 -613 q 821 -595 836 -570 q 851 -545 876 -507 l 876 -507 q 907 -461 929 -419 q 951 -378 963 -337 q 975 -296 975 -251 l 975 -251 q 975 -210 965 -171 q 954 -133 932 -100 q 910 -67 874 -41 q 837 -16 786 -2 q 735 12 666 12 z"},"ൖ":{"ha":723,"x_min":34,"x_max":690,"o":"m 236 -170 l 236 -170 q 236 -144 246 -123 q 255 -102 276 -90 q 297 -79 330 -79 l 330 -79 q 375 -79 391 -97 q 407 -116 407 -144 l 407 -144 q 407 -176 396 -204 q 385 -233 370 -263 q 355 -293 344 -328 q 333 -364 333 -408 l 333 -408 q 333 -453 353 -490 q 373 -527 412 -549 q 450 -571 505 -571 l 505 -571 q 572 -571 613 -545 q 653 -520 672 -479 q 690 -439 690 -396 l 690 -396 q 690 -327 659 -272 q 627 -217 563 -185 q 499 -154 401 -154 l 401 -154 l 365 -154 q 320 -154 282 -160 q 243 -167 206 -182 l 206 -182 l 170 -190 q 128 -210 98 -240 q 67 -271 51 -311 q 34 -352 34 -400 l 34 -400 q 34 -442 47 -485 q 60 -528 88 -572 l 88 -572 l 184 -525 q 168 -493 161 -464 q 153 -435 153 -402 l 153 -402 q 153 -367 162 -338 q 171 -310 185 -291 l 185 -291 l 225 -270 q 251 -255 288 -246 q 325 -237 361 -237 l 361 -237 l 403 -237 q 461 -237 499 -258 q 536 -279 554 -315 q 572 -352 572 -398 l 572 -398 q 572 -433 557 -459 q 542 -485 505 -485 l 505 -485 q 483 -485 468 -475 q 453 -465 446 -447 q 438 -429 438 -406 l 438 -406 q 438 -369 451 -335 q 463 -302 479 -270 q 495 -238 508 -204 q 520 -170 520 -131 l 520 -131 q 520 -106 512 -80 q 503 -55 483 -34 q 462 -13 425 0 q 388 12 330 12 l 330 12 q 270 12 225 -7 q 180 -26 155 -67 q 129 -108 129 -173 l 129 -173 q 129 -215 143 -260 q 157 -306 180 -354 q 203 -403 227 -453 l 227 -453 q 252 -501 267 -534 q 282 -568 289 -594 q 296 -621 296 -644 l 296 -644 q 296 -672 281 -688 q 265 -705 229 -705 l 229 -705 q 214 -705 198 -702 q 181 -700 170 -696 l 170 -696 l 148 -782 q 168 -789 200 -793 q 232 -797 265 -797 l 265 -797 q 326 -797 358 -775 q 390 -754 402 -724 q 414 -694 414 -667 l 414 -667 q 414 -641 409 -615 q 404 -589 393 -560 q 381 -531 362 -493 q 342 -456 314 -403 l 314 -403 q 291 -357 275 -323 q 259 -290 251 -264 q 243 -238 240 -216 q 236 -195 236 -170 z"},"ൗ":{"ha":735,"x_min":32,"x_max":699,"o":"m 496 -571 l 496 -571 q 561 -571 606 -539 q 651 -507 675 -448 q 699 -389 699 -308 l 699 -308 q 699 -204 667 -132 q 635 -61 573 -24 q 510 12 418 12 l 418 12 q 353 12 302 0 q 250 -12 201 -37 l 201 -37 l 249 -123 q 287 -104 324 -92 q 361 -81 409 -81 l 409 -81 q 473 -81 510 -108 q 547 -136 563 -186 q 578 -236 578 -306 l 578 -306 q 578 -396 553 -438 q 528 -480 488 -480 l 488 -480 q 467 -480 454 -472 q 441 -465 433 -451 l 433 -451 q 424 -437 422 -417 q 419 -398 419 -357 l 419 -357 l 419 -262 l 301 -262 l 301 -341 q 301 -385 298 -410 q 295 -435 287 -449 l 287 -449 q 277 -466 262 -473 q 247 -480 230 -480 l 230 -480 q 190 -480 170 -451 q 150 -422 150 -383 l 150 -383 q 150 -350 155 -326 q 159 -302 165 -282 l 165 -282 l 51 -257 q 42 -286 37 -320 q 32 -355 32 -384 l 32 -384 q 32 -434 52 -476 q 71 -519 113 -545 q 154 -571 219 -571 l 219 -571 q 270 -571 305 -553 q 340 -535 364 -501 l 364 -501 l 351 -502 q 378 -539 413 -555 q 448 -571 496 -571 z"},"൘":{"ha":1180,"x_min":36,"x_max":1140,"o":"m 583 12 l 583 12 q 533 12 493 -8 q 452 -29 420 -71 l 420 -71 l 432 -68 q 402 -29 366 -8 q 330 12 272 12 l 272 12 q 198 12 145 -23 q 92 -58 64 -120 q 36 -182 36 -262 l 36 -262 q 36 -329 52 -383 q 68 -438 97 -483 q 126 -529 165 -570 l 165 -570 l 252 -503 q 221 -471 200 -434 q 179 -397 168 -355 q 157 -313 157 -264 l 157 -264 q 157 -202 174 -161 q 191 -120 219 -99 q 246 -79 277 -79 l 277 -79 q 302 -79 318 -88 q 334 -97 345 -112 l 345 -112 q 358 -131 363 -158 q 367 -185 367 -233 l 367 -233 l 367 -559 l 485 -559 l 485 -243 q 485 -188 492 -159 q 498 -130 513 -111 l 513 -111 q 525 -96 544 -87 q 562 -79 583 -79 l 583 -79 q 608 -79 625 -87 q 642 -95 654 -109 l 654 -109 q 669 -128 675 -157 q 680 -186 680 -236 l 680 -236 l 680 -559 l 798 -559 l 798 -255 l 743 -69 q 715 -30 678 -9 q 640 12 583 12 z m 903 12 l 903 12 q 847 12 807 -7 q 766 -27 732 -70 l 732 -70 l 689 -240 l 689 -549 l 798 -549 l 798 -249 q 798 -193 803 -162 q 808 -132 823 -112 l 823 -112 q 835 -96 853 -87 q 870 -79 895 -79 l 895 -79 q 932 -79 960 -105 q 987 -131 1003 -184 q 1019 -237 1019 -319 l 1019 -319 q 1019 -396 1006 -462 q 992 -528 963 -581 q 934 -635 887 -673 q 840 -712 772 -732 q 704 -752 613 -752 l 613 -752 q 548 -752 489 -744 q 429 -736 382 -725 l 382 -725 l 366 -818 q 409 -828 447 -834 q 485 -841 526 -844 q 566 -847 615 -847 l 615 -847 q 729 -847 816 -821 q 903 -796 965 -749 q 1026 -702 1065 -637 q 1103 -572 1122 -492 q 1140 -413 1140 -323 l 1140 -323 q 1140 -211 1112 -136 q 1084 -62 1031 -25 q 978 12 903 12 z"},"൙":{"ha":1099,"x_min":37,"x_max":1080,"o":"m 352 -571 l 352 -571 q 437 -571 500 -545 q 563 -520 604 -474 q 645 -429 666 -368 q 687 -307 687 -236 l 687 -236 q 687 -147 661 -92 q 635 -37 588 -12 q 540 12 477 12 l 477 12 q 410 12 370 -12 q 329 -36 311 -74 q 292 -112 292 -154 l 292 -154 q 292 -204 312 -240 q 331 -276 364 -298 l 364 -298 q 386 -313 413 -322 q 440 -331 478 -335 q 515 -339 568 -339 l 568 -339 l 761 -339 l 761 -249 l 576 -249 q 519 -249 490 -244 q 461 -239 440 -224 l 440 -224 q 425 -213 417 -196 q 408 -180 408 -155 l 408 -155 q 408 -122 426 -100 q 443 -79 480 -79 l 480 -79 q 508 -79 529 -95 q 549 -111 560 -146 q 571 -181 571 -238 l 571 -238 q 571 -253 570 -270 q 569 -287 566 -298 l 566 -298 l 562 -322 q 555 -365 531 -401 q 506 -437 464 -458 q 421 -479 361 -479 l 361 -479 q 294 -479 249 -455 q 203 -431 181 -386 q 158 -342 158 -281 l 158 -281 q 158 -231 170 -191 q 181 -152 204 -119 q 226 -86 257 -56 l 257 -56 l 178 11 q 138 -22 106 -64 q 74 -107 56 -161 q 37 -216 37 -284 l 37 -284 q 37 -341 55 -392 q 73 -444 112 -484 q 150 -525 210 -548 q 270 -571 352 -571 z m 910 -559 l 910 -559 q 970 -559 1008 -538 q 1045 -517 1063 -483 q 1080 -449 1080 -410 l 1080 -410 q 1080 -368 1065 -337 q 1050 -307 1023 -287 l 1023 -287 q 1004 -273 981 -264 q 958 -256 927 -252 q 895 -249 850 -249 l 850 -249 l 638 -249 l 640 -339 l 856 -339 q 891 -339 910 -342 q 929 -346 940 -353 l 940 -353 q 955 -361 962 -374 q 969 -387 969 -410 l 969 -410 q 969 -437 954 -454 q 939 -471 911 -471 l 911 -471 q 879 -471 862 -451 q 845 -431 845 -396 l 845 -396 q 845 -363 856 -339 q 867 -315 884 -294 l 884 -294 l 777 -288 q 761 -310 750 -342 q 739 -375 739 -408 l 739 -408 q 739 -458 761 -491 q 783 -525 822 -542 q 861 -559 910 -559 z"},"൚":{"ha":1041,"x_min":37,"x_max":987,"o":"m 674 -571 l 674 -571 q 756 -571 814 -551 q 871 -532 909 -498 l 909 -498 q 936 -473 954 -440 q 971 -408 979 -364 q 987 -321 987 -263 l 987 -263 l 987 0 l 496 0 l 496 -85 q 546 -133 586 -185 q 625 -237 648 -291 q 671 -345 671 -397 l 671 -397 q 671 -422 666 -440 q 660 -458 647 -468 q 634 -479 611 -479 l 611 -479 q 582 -479 559 -461 q 535 -444 521 -416 l 521 -416 q 508 -388 504 -354 q 499 -320 499 -272 l 499 -272 l 499 -230 l 380 -230 l 380 -323 q 380 -375 375 -402 q 370 -429 356 -448 l 356 -448 q 346 -462 329 -471 q 311 -480 285 -480 l 285 -480 q 251 -480 222 -459 q 193 -439 175 -398 q 157 -357 157 -295 l 157 -295 q 157 -246 169 -203 q 180 -161 201 -125 q 222 -89 252 -56 l 252 -56 l 165 11 q 127 -30 98 -75 q 69 -121 53 -175 q 37 -230 37 -297 l 37 -297 q 37 -377 66 -438 q 94 -500 149 -535 q 204 -571 282 -571 l 282 -571 q 327 -571 360 -559 q 392 -547 417 -524 q 441 -502 462 -471 l 462 -471 l 431 -465 q 457 -500 493 -523 q 528 -547 574 -559 q 619 -571 674 -571 z m 788 -378 l 788 -378 q 788 -325 769 -275 q 749 -225 714 -175 q 678 -126 630 -74 l 630 -74 l 612 -85 q 635 -88 663 -89 q 690 -90 705 -90 l 705 -90 l 869 -90 l 869 -265 q 869 -330 857 -372 q 844 -415 818 -442 q 792 -469 748 -485 l 748 -485 l 750 -489 q 765 -471 777 -443 q 788 -416 788 -378 z"},"൛":{"ha":936,"x_min":62,"x_max":899,"o":"m 605 12 l 605 12 q 528 12 474 -10 q 419 -33 384 -72 q 349 -112 333 -162 q 317 -213 317 -268 l 317 -268 q 317 -327 331 -372 q 344 -417 368 -453 q 391 -490 420 -526 l 420 -526 l 408 -469 l 181 -469 l 181 0 l 62 0 l 62 -559 l 483 -559 l 530 -495 q 505 -471 484 -440 q 463 -410 450 -370 q 437 -331 437 -279 l 437 -279 q 437 -219 458 -174 q 479 -129 517 -104 q 554 -80 604 -80 l 604 -80 q 657 -80 696 -104 q 734 -129 755 -173 q 776 -218 776 -277 l 776 -277 q 776 -328 765 -367 q 753 -407 731 -440 q 709 -474 677 -503 l 677 -503 l 758 -570 q 798 -538 830 -495 q 862 -453 881 -398 q 899 -344 899 -275 l 899 -275 q 899 -219 882 -167 q 865 -116 829 -75 q 792 -35 737 -11 q 681 12 605 12 z"},"൜":{"ha":1470,"x_min":37,"x_max":1433,"o":"m 885 -571 l 885 -571 q 939 -571 979 -556 q 1018 -542 1043 -514 l 1043 -514 q 1061 -495 1073 -468 q 1085 -441 1092 -405 q 1098 -369 1098 -320 l 1098 -320 l 1098 -255 q 1098 -199 1103 -167 q 1107 -136 1119 -116 l 1119 -116 q 1130 -99 1149 -89 q 1167 -80 1197 -80 l 1197 -80 q 1231 -80 1257 -100 q 1282 -121 1297 -162 q 1312 -203 1312 -265 l 1312 -265 q 1312 -315 1301 -357 q 1290 -399 1269 -436 q 1248 -473 1218 -506 l 1218 -506 l 1302 -572 q 1343 -531 1372 -485 q 1401 -439 1417 -383 q 1433 -328 1433 -259 l 1433 -259 q 1433 -175 1404 -114 q 1374 -54 1320 -21 q 1266 12 1192 12 l 1192 12 q 1137 12 1097 -3 q 1057 -19 1030 -48 l 1030 -48 q 1011 -70 1000 -97 q 988 -125 983 -160 q 978 -195 978 -236 l 978 -236 l 978 -312 q 978 -365 973 -395 q 968 -426 956 -445 l 956 -445 q 945 -462 928 -470 q 910 -479 887 -479 l 887 -479 q 863 -479 846 -471 q 828 -463 818 -447 l 818 -447 q 805 -427 800 -397 q 795 -367 795 -312 l 795 -312 l 795 -240 q 795 -191 789 -154 q 783 -118 771 -91 q 759 -65 740 -45 l 740 -45 q 715 -18 677 -3 q 639 12 584 12 l 584 12 q 529 12 491 -3 q 452 -18 427 -45 l 427 -45 q 409 -65 397 -92 q 384 -119 378 -155 q 372 -191 372 -239 l 372 -239 l 372 -304 q 372 -361 368 -392 q 363 -423 350 -443 l 350 -443 q 339 -461 321 -470 q 303 -479 273 -479 l 273 -479 q 240 -479 214 -459 q 187 -439 172 -398 q 157 -357 157 -295 l 157 -295 q 157 -245 168 -202 q 179 -160 201 -124 q 222 -88 252 -53 l 252 -53 l 167 13 q 127 -29 98 -75 q 68 -121 53 -176 q 37 -231 37 -300 l 37 -300 q 37 -383 66 -444 q 95 -505 150 -538 q 204 -571 279 -571 l 279 -571 q 333 -571 373 -555 q 413 -540 439 -512 l 439 -512 q 459 -490 471 -461 q 482 -433 487 -398 q 492 -363 492 -319 l 492 -319 l 492 -248 q 492 -194 497 -163 q 501 -133 514 -114 l 514 -114 q 524 -97 542 -88 q 559 -80 583 -80 l 583 -80 q 607 -80 625 -88 q 642 -96 652 -112 l 652 -112 q 665 -132 670 -162 q 675 -192 675 -245 l 675 -245 l 675 -319 q 675 -368 681 -404 q 687 -440 699 -467 q 711 -494 729 -514 l 729 -514 q 754 -541 792 -556 q 830 -571 885 -571 z"},"൝":{"ha":1939,"x_min":9,"x_max":1902,"o":"m 749 -571 l 749 -571 q 803 -571 842 -556 q 881 -542 907 -514 l 907 -514 q 925 -495 937 -468 q 949 -441 955 -405 q 961 -369 961 -320 l 961 -320 l 961 -248 q 961 -194 966 -163 q 971 -133 983 -114 l 983 -114 q 994 -97 1012 -88 q 1029 -80 1052 -80 l 1052 -80 q 1077 -80 1094 -88 q 1111 -96 1122 -112 l 1122 -112 q 1134 -132 1139 -162 q 1144 -192 1144 -245 l 1144 -245 l 1144 -319 q 1144 -368 1150 -404 q 1156 -440 1169 -467 q 1181 -494 1199 -514 l 1199 -514 q 1224 -541 1262 -556 q 1300 -571 1355 -571 l 1355 -571 q 1409 -571 1448 -556 q 1487 -542 1512 -514 l 1512 -514 q 1531 -495 1543 -468 q 1555 -441 1561 -405 q 1567 -369 1567 -320 l 1567 -320 l 1567 -255 q 1567 -199 1572 -167 q 1576 -136 1589 -116 l 1589 -116 q 1600 -99 1619 -89 q 1637 -80 1666 -80 l 1666 -80 q 1700 -80 1726 -100 q 1752 -121 1767 -162 q 1782 -203 1782 -265 l 1782 -265 q 1782 -315 1771 -357 q 1760 -399 1739 -436 q 1718 -473 1687 -506 l 1687 -506 l 1772 -572 q 1813 -531 1842 -485 q 1871 -439 1887 -383 q 1902 -328 1902 -259 l 1902 -259 q 1902 -175 1873 -114 q 1844 -54 1790 -21 q 1736 12 1662 12 l 1662 12 q 1606 12 1566 -3 q 1526 -19 1500 -48 l 1500 -48 q 1480 -70 1469 -97 q 1457 -125 1452 -160 q 1447 -195 1447 -236 l 1447 -236 l 1447 -312 q 1447 -365 1443 -395 q 1438 -426 1425 -445 l 1425 -445 q 1415 -462 1398 -470 q 1380 -479 1356 -479 l 1356 -479 q 1333 -479 1315 -471 q 1297 -463 1287 -447 l 1287 -447 q 1274 -427 1269 -397 q 1264 -367 1264 -312 l 1264 -312 l 1264 -240 q 1264 -191 1258 -154 q 1252 -118 1240 -91 q 1228 -65 1210 -45 l 1210 -45 q 1185 -18 1147 -3 q 1108 12 1053 12 l 1053 12 q 999 12 960 -3 q 921 -18 896 -45 l 896 -45 q 878 -65 866 -92 q 854 -119 848 -155 q 841 -191 841 -239 l 841 -239 l 841 -314 q 841 -368 837 -397 q 832 -426 819 -445 l 819 -445 q 809 -462 792 -470 q 774 -479 750 -479 l 750 -479 q 727 -479 710 -471 q 692 -463 681 -447 l 681 -447 q 668 -427 664 -397 q 659 -367 659 -312 l 659 -312 l 659 -235 q 659 -163 646 -120 q 632 -77 604 -47 l 604 -47 q 576 -18 539 -3 q 501 12 449 12 l 449 12 q 386 12 347 -11 q 308 -35 280 -74 l 280 -74 l 294 -70 q 272 -43 247 -24 q 222 -6 193 3 q 163 12 126 12 l 126 12 q 91 12 64 5 q 36 -2 9 -17 l 9 -17 l 44 -102 q 62 -93 83 -86 q 103 -80 128 -80 l 128 -80 q 150 -80 170 -88 q 190 -96 203 -113 l 203 -113 q 218 -132 222 -161 q 226 -190 226 -248 l 226 -248 l 226 -555 l 345 -559 l 345 -237 q 345 -186 352 -157 q 358 -128 373 -109 l 373 -109 q 383 -96 402 -88 q 420 -80 441 -80 l 441 -80 q 468 -80 487 -89 q 505 -98 516 -115 l 516 -115 q 529 -135 534 -164 q 539 -194 539 -252 l 539 -252 l 539 -319 q 539 -368 545 -404 q 551 -440 563 -467 q 575 -494 593 -514 l 593 -514 q 618 -541 656 -556 q 694 -571 749 -571 z"},"൞":{"ha":1344,"x_min":37,"x_max":1317,"o":"m 352 -571 l 352 -571 q 437 -571 500 -545 q 563 -520 604 -474 q 645 -429 666 -368 q 687 -307 687 -236 l 687 -236 q 687 -147 661 -92 q 635 -37 588 -12 q 540 12 477 12 l 477 12 q 410 12 370 -12 q 329 -36 311 -74 q 292 -112 292 -154 l 292 -154 q 292 -204 312 -240 q 331 -276 364 -298 l 364 -298 q 386 -313 413 -322 q 440 -331 478 -335 q 515 -339 568 -339 l 568 -339 l 624 -339 l 624 -249 l 576 -249 q 519 -249 490 -244 q 461 -239 440 -224 l 440 -224 q 425 -213 417 -196 q 408 -180 408 -155 l 408 -155 q 408 -122 426 -100 q 443 -79 480 -79 l 480 -79 q 508 -79 529 -95 q 549 -111 560 -146 q 571 -181 571 -238 l 571 -238 q 571 -254 570 -270 q 569 -287 566 -298 l 566 -298 l 562 -322 q 555 -365 531 -401 q 506 -437 464 -458 q 422 -479 361 -479 l 361 -479 q 294 -479 249 -455 q 203 -431 181 -386 q 158 -342 158 -281 l 158 -281 q 158 -231 170 -191 q 181 -152 204 -119 q 226 -86 257 -56 l 257 -56 l 178 11 q 138 -22 106 -64 q 74 -107 56 -161 q 37 -216 37 -284 l 37 -284 q 37 -341 55 -392 q 73 -444 112 -484 q 150 -525 210 -548 q 270 -571 352 -571 z m 1114 -203 l 1114 -203 q 1045 -203 1000 -230 q 955 -257 934 -298 q 913 -340 913 -384 l 913 -384 q 913 -421 924 -449 q 934 -477 947 -494 l 947 -494 l 961 -469 l 772 -469 l 817 -496 q 830 -480 840 -455 q 850 -430 850 -400 l 850 -400 q 850 -345 825 -311 q 799 -278 755 -263 q 710 -249 652 -249 l 652 -249 l 617 -249 l 617 -339 l 651 -339 q 681 -339 703 -344 q 724 -350 735 -365 q 745 -380 745 -405 l 745 -405 q 745 -425 739 -442 q 732 -460 722 -474 l 722 -474 l 753 -559 l 1021 -559 l 1063 -503 q 1049 -485 1039 -458 q 1028 -432 1028 -395 l 1028 -395 q 1028 -350 1050 -321 q 1071 -293 1113 -293 l 1113 -293 q 1142 -293 1161 -305 q 1180 -318 1190 -341 q 1200 -364 1200 -392 l 1200 -392 q 1200 -434 1187 -462 q 1173 -491 1152 -516 l 1152 -516 l 1240 -569 q 1276 -531 1297 -487 q 1317 -444 1317 -387 l 1317 -387 q 1317 -332 1292 -290 q 1266 -249 1221 -226 q 1175 -203 1114 -203 z"},"ൟ":{"ha":1321,"x_min":27,"x_max":1295,"o":"m 27 -269 l 27 -269 q 27 -328 64 -365 q 101 -403 163 -403 l 163 -403 q 225 -403 263 -366 q 300 -329 300 -269 l 300 -269 q 300 -211 263 -173 q 226 -136 163 -136 l 163 -136 q 101 -136 64 -173 q 27 -210 27 -269 z m 112 -270 l 112 -270 q 112 -244 125 -227 q 138 -211 163 -211 l 163 -211 q 189 -211 202 -227 q 215 -244 215 -270 l 215 -270 q 215 -296 202 -311 q 188 -327 163 -327 l 163 -327 q 139 -327 126 -311 q 112 -296 112 -270 z m 1021 -269 l 1021 -269 q 1021 -328 1059 -365 q 1096 -403 1157 -403 l 1157 -403 q 1219 -403 1257 -366 q 1295 -329 1295 -269 l 1295 -269 q 1295 -211 1258 -173 q 1220 -136 1157 -136 l 1157 -136 q 1095 -136 1058 -173 q 1021 -210 1021 -269 z m 1107 -270 l 1107 -270 q 1107 -244 1120 -227 q 1132 -211 1157 -211 l 1157 -211 q 1183 -211 1196 -227 q 1209 -244 1209 -270 l 1209 -270 q 1209 -296 1196 -311 q 1183 -327 1157 -327 l 1157 -327 q 1133 -327 1120 -311 q 1107 -296 1107 -270 z m 651 -571 l 651 -571 q 736 -571 799 -546 q 861 -521 903 -476 q 944 -431 965 -370 q 986 -309 986 -238 l 986 -238 q 986 -150 960 -94 q 934 -39 887 -13 q 839 12 775 12 l 775 12 q 708 12 666 -17 q 623 -46 603 -95 q 583 -144 583 -203 l 583 -203 q 583 -297 630 -352 q 676 -407 761 -407 l 761 -407 q 812 -407 850 -381 q 888 -355 912 -312 q 936 -270 943 -221 l 943 -221 l 900 -219 q 894 -243 880 -266 q 865 -289 842 -304 q 819 -320 789 -320 l 789 -320 q 741 -320 720 -288 q 699 -257 699 -200 l 699 -200 q 699 -163 708 -135 q 716 -107 734 -92 q 752 -78 780 -78 l 780 -78 q 809 -78 829 -94 q 849 -110 860 -146 q 870 -182 870 -241 l 870 -241 q 870 -251 869 -270 q 867 -290 865 -308 l 865 -308 q 864 -313 864 -320 q 863 -328 861 -332 l 861 -332 q 854 -371 829 -404 q 804 -438 762 -458 q 719 -479 660 -479 l 660 -479 q 593 -479 548 -455 q 502 -431 480 -386 q 457 -342 457 -281 l 457 -281 q 457 -231 469 -191 q 480 -152 503 -119 q 525 -86 556 -56 l 556 -56 l 476 11 q 437 -22 405 -64 q 373 -107 354 -161 q 335 -216 335 -284 l 335 -284 q 335 -341 354 -392 q 372 -444 410 -484 q 448 -525 509 -548 q 569 -571 651 -571 z"},"ൠ":{"ha":882,"x_min":34,"x_max":848,"o":"m 654 -571 l 654 -571 q 744 -571 796 -514 q 848 -458 848 -352 l 848 -352 q 848 -283 823 -231 q 798 -179 752 -143 l 752 -143 q 719 -116 676 -99 q 633 -83 580 -78 l 580 -78 l 494 -89 l 381 -88 l 304 -77 q 251 -83 213 -97 q 174 -111 142 -136 l 142 -136 q 90 -172 62 -226 q 34 -280 34 -351 l 34 -351 q 34 -419 59 -468 q 84 -517 130 -544 q 175 -571 237 -571 l 237 -571 q 296 -571 335 -548 q 373 -525 393 -486 q 412 -448 412 -402 l 412 -402 q 412 -350 393 -312 q 373 -275 336 -255 q 298 -236 245 -236 l 245 -236 q 205 -236 172 -250 q 138 -264 113 -284 q 87 -305 70 -323 l 70 -323 l 100 -408 q 115 -386 132 -366 q 148 -346 170 -333 q 191 -321 222 -321 l 222 -321 q 259 -321 279 -342 q 298 -363 298 -405 l 298 -405 q 298 -441 280 -462 q 262 -484 230 -484 l 230 -484 q 202 -484 183 -469 q 164 -455 154 -428 q 144 -401 144 -362 l 144 -362 q 144 -344 147 -327 q 149 -311 152 -297 l 152 -297 l 146 -279 q 160 -244 187 -221 q 213 -198 249 -185 q 285 -173 326 -167 q 367 -162 410 -162 l 410 -162 l 472 -162 q 514 -162 555 -167 q 596 -172 633 -184 q 670 -197 697 -220 q 724 -243 737 -279 l 737 -279 l 731 -297 q 735 -310 737 -326 q 739 -343 739 -359 l 739 -359 q 739 -401 730 -428 q 720 -456 702 -470 q 683 -484 656 -484 l 656 -484 q 623 -484 605 -462 q 586 -440 586 -402 l 586 -402 q 586 -362 605 -341 q 624 -321 661 -321 l 661 -321 q 692 -321 714 -333 q 735 -345 752 -365 q 768 -385 783 -407 l 783 -407 l 813 -323 q 797 -305 772 -284 q 746 -264 713 -250 q 679 -236 638 -236 l 638 -236 q 585 -236 548 -255 q 510 -275 491 -312 q 472 -349 472 -401 l 472 -401 q 472 -448 493 -487 q 513 -526 554 -548 q 594 -571 654 -571 z m 444 235 l 444 235 q 328 235 249 215 q 170 195 130 152 q 90 108 90 38 l 90 38 q 90 -8 113 -40 q 136 -73 177 -93 q 218 -113 271 -122 q 324 -132 383 -132 l 383 -132 l 496 -132 q 558 -132 612 -122 q 666 -113 707 -93 q 748 -73 771 -40 q 793 -7 793 40 l 793 40 q 793 102 757 146 q 721 190 644 213 q 567 235 444 235 z m 443 146 l 443 146 q 530 146 581 134 q 632 121 655 97 q 677 72 677 36 l 677 36 q 677 2 659 -19 q 640 -41 608 -53 q 576 -65 536 -70 q 495 -75 451 -75 l 451 -75 l 433 -75 q 370 -75 319 -65 q 267 -56 237 -32 q 206 -8 206 36 l 206 36 q 206 74 229 98 q 251 122 304 134 q 356 146 443 146 z m 519 -42 l 519 -42 q 550 -42 570 -30 q 590 -19 600 -1 q 609 17 613 38 q 616 58 616 75 l 616 75 l 616 104 l 539 104 l 539 88 q 539 64 534 51 q 529 38 510 38 l 510 38 q 491 38 486 52 q 480 65 480 86 l 480 86 l 480 104 l 403 104 l 403 87 q 403 64 398 51 q 392 38 373 38 l 373 38 q 354 38 349 53 q 344 67 344 88 l 344 88 l 344 104 l 267 104 l 267 75 q 267 58 271 38 q 274 18 284 0 q 293 -18 313 -30 q 333 -42 365 -42 l 365 -42 q 393 -42 411 -31 q 428 -21 441 -4 l 441 -4 q 456 -23 475 -32 q 493 -42 519 -42 z"},"ൡ":{"ha":1292,"x_min":38,"x_max":1267,"o":"m 353 -571 l 353 -571 q 432 -571 484 -545 q 535 -520 576 -471 l 576 -471 l 589 -395 l 613 -233 l 613 0 l 495 0 l 495 -291 q 495 -359 485 -393 q 475 -427 455 -445 l 455 -445 q 438 -462 415 -470 q 391 -479 352 -479 l 352 -479 q 292 -479 246 -451 q 200 -423 174 -370 q 147 -317 147 -242 l 147 -242 l 147 -231 q 147 -174 159 -140 q 170 -106 190 -91 q 209 -76 234 -76 l 234 -76 q 254 -76 268 -85 q 282 -95 290 -114 q 297 -134 297 -163 l 297 -163 q 297 -208 280 -230 q 262 -252 226 -252 l 226 -252 q 193 -252 163 -233 q 133 -215 104 -180 l 104 -180 l 89 -262 q 115 -292 159 -315 q 202 -339 254 -339 l 254 -339 q 304 -339 340 -319 q 375 -299 394 -261 q 412 -223 412 -170 l 412 -170 q 412 -112 391 -71 q 370 -31 331 -9 q 292 12 237 12 l 237 12 q 185 12 140 -13 q 94 -39 66 -95 q 38 -151 38 -242 l 38 -242 q 38 -351 80 -424 q 121 -497 193 -534 q 264 -571 353 -571 z m 774 -571 l 774 -571 q 861 -571 924 -540 q 986 -509 1024 -456 q 1061 -404 1073 -338 l 1073 -338 q 1079 -312 1082 -284 q 1084 -257 1084 -229 l 1084 -229 q 1084 -145 1060 -91 q 1035 -38 989 -13 q 943 12 877 12 l 877 12 q 813 12 771 -13 q 729 -39 709 -82 q 689 -125 689 -177 l 689 -177 q 689 -280 758 -336 q 827 -393 948 -393 l 948 -393 q 966 -393 980 -392 q 994 -392 1005 -390 l 1005 -390 l 1033 -388 q 1106 -376 1159 -335 q 1211 -295 1239 -233 q 1267 -172 1267 -96 l 1267 -96 q 1267 -33 1250 21 q 1232 75 1195 116 q 1158 156 1100 179 q 1041 201 961 201 l 961 201 q 917 201 879 195 q 840 188 808 177 l 808 177 l 842 89 q 869 99 897 104 q 924 108 960 108 l 960 108 q 1016 108 1054 91 q 1091 73 1113 44 q 1134 15 1144 -22 q 1153 -59 1153 -98 l 1153 -98 q 1153 -147 1142 -184 q 1130 -221 1108 -247 q 1085 -273 1053 -290 l 1053 -290 l 1017 -296 q 1003 -302 986 -304 q 968 -306 952 -306 l 952 -306 q 903 -306 871 -290 q 838 -275 822 -246 q 805 -218 805 -177 l 805 -177 q 805 -148 813 -126 q 821 -104 838 -91 q 855 -78 882 -78 l 882 -78 q 926 -78 949 -113 q 971 -148 971 -230 l 971 -230 q 971 -263 967 -294 q 962 -325 953 -351 l 953 -351 l 947 -372 q 933 -405 909 -429 q 884 -453 850 -466 q 816 -479 771 -479 l 771 -479 q 741 -479 715 -472 q 689 -465 665 -446 l 665 -446 q 649 -433 638 -413 q 626 -393 620 -360 q 613 -327 613 -272 l 613 -272 l 613 -209 l 539 -463 q 565 -496 598 -520 q 630 -544 673 -557 q 716 -571 774 -571 z"},"ൢ":{"ha":0,"x_min":-813,"x_max":-31,"o":"m -584 -24 l -584 -24 q -532 -24 -487 -7 q -442 9 -412 51 l -412 51 l -374 159 l -374 333 l -472 333 l -472 183 q -472 141 -479 115 q -487 89 -505 74 l -505 74 q -518 62 -538 56 q -559 50 -588 50 l -588 50 q -615 50 -642 58 q -669 66 -689 84 q -710 101 -719 132 l -719 132 q -722 143 -723 155 q -724 166 -724 183 l -724 183 q -724 232 -706 249 q -689 266 -669 266 l -669 266 q -646 266 -632 253 q -619 240 -619 212 l -619 212 q -619 185 -632 172 q -646 158 -671 158 l -671 158 q -698 158 -720 173 q -742 187 -764 210 l -764 210 l -783 152 q -754 125 -720 107 q -686 88 -650 88 l -650 88 q -590 88 -560 121 q -531 154 -531 209 l -531 209 q -531 268 -564 303 q -598 337 -667 337 l -667 337 q -734 337 -773 294 q -812 250 -812 174 l -812 174 q -812 111 -781 67 q -750 22 -698 -1 q -646 -24 -584 -24 z m -258 -24 l -258 -24 q -194 -24 -142 0 q -91 24 -61 69 q -31 113 -31 175 l -31 175 q -31 261 -71 299 q -111 337 -178 337 l -178 337 q -224 337 -254 319 q -284 300 -298 270 q -313 239 -313 204 l -313 204 q -313 164 -298 135 q -284 105 -256 90 q -228 74 -188 74 l -188 74 q -157 74 -132 89 q -108 104 -89 132 q -70 160 -59 199 l -59 199 l -96 200 q -105 174 -122 157 q -140 140 -166 140 l -166 140 q -196 140 -210 157 q -225 174 -225 203 l -225 203 q -225 232 -212 249 q -200 266 -174 266 l -174 266 q -148 266 -134 243 q -120 220 -120 174 l -120 174 q -120 166 -120 157 q -121 147 -122 138 l -122 138 l -130 114 q -139 93 -159 79 q -179 65 -203 58 q -228 50 -255 50 l -255 50 q -285 50 -306 56 q -327 62 -340 74 l -340 74 q -359 91 -367 117 q -375 143 -374 188 l -374 188 l -457 141 q -455 82 -427 46 q -399 10 -354 -7 q -310 -24 -258 -24 z"},"ൣ":{"ha":0,"x_min":-813,"x_max":89,"o":"m -584 -24 l -584 -24 q -532 -24 -487 -7 q -442 9 -412 51 l -412 51 l -374 159 l -374 333 l -472 333 l -472 183 q -472 141 -479 115 q -487 89 -505 74 l -505 74 q -518 62 -538 56 q -559 50 -588 50 l -588 50 q -615 50 -642 58 q -669 66 -689 84 q -710 101 -719 132 l -719 132 q -722 143 -723 155 q -724 166 -724 183 l -724 183 q -724 232 -706 249 q -689 266 -669 266 l -669 266 q -646 266 -632 253 q -619 240 -619 212 l -619 212 q -619 185 -632 172 q -646 158 -671 158 l -671 158 q -698 158 -720 173 q -742 187 -764 210 l -764 210 l -783 152 q -754 125 -720 107 q -686 88 -650 88 l -650 88 q -590 88 -560 121 q -531 154 -531 209 l -531 209 q -531 268 -564 303 q -598 337 -667 337 l -667 337 q -734 337 -773 294 q -812 250 -812 174 l -812 174 q -812 111 -781 67 q -750 22 -698 -1 q -646 -24 -584 -24 z m -258 -24 l -258 -24 q -197 -24 -146 -1 q -95 21 -64 65 q -34 109 -34 175 l -34 175 q -34 230 -51 266 q -69 302 -100 320 q -132 337 -176 337 l -176 337 q -226 337 -256 320 q -286 302 -299 273 q -313 244 -313 212 l -313 212 q -313 148 -269 109 q -225 70 -132 70 l -132 70 q -120 70 -107 71 q -95 71 -81 73 l -81 73 q -39 78 1 99 q 40 119 65 158 q 89 197 89 260 l 89 260 q 89 290 83 316 q 76 341 66 358 l 66 358 l -16 330 q -9 316 -5 297 q -2 278 -2 259 l -2 259 q -2 218 -17 189 q -32 160 -69 145 l -69 145 l -89 143 q -100 140 -111 139 q -122 137 -133 137 l -133 137 q -177 137 -201 157 q -225 177 -225 212 l -225 212 q -225 236 -212 251 q -200 266 -174 266 l -174 266 q -149 266 -135 243 q -121 220 -121 172 l -121 172 q -121 161 -122 149 q -123 136 -127 125 l -127 125 l -134 105 q -145 86 -164 74 q -184 62 -207 56 q -231 50 -255 50 l -255 50 q -285 50 -306 56 q -327 62 -340 74 l -340 74 q -359 91 -367 117 q -375 143 -374 188 l -374 188 l -456 141 q -455 97 -438 66 q -422 34 -394 15 q -366 -5 -331 -14 q -296 -24 -258 -24 z"},"൦":{"ha":555,"x_min":38,"x_max":517,"o":"m 278 -39 l 278 -39 q 205 -39 151 -68 q 97 -97 68 -151 q 38 -206 38 -282 l 38 -282 q 38 -358 68 -412 q 98 -467 152 -496 q 206 -525 277 -525 l 277 -525 q 352 -525 406 -495 q 460 -466 489 -412 q 517 -358 517 -282 l 517 -282 q 517 -207 487 -152 q 457 -98 404 -68 q 350 -39 278 -39 z m 278 -130 l 278 -130 q 312 -130 339 -146 q 366 -162 382 -196 q 398 -230 398 -283 l 398 -283 q 398 -360 364 -397 q 329 -435 277 -435 l 277 -435 q 227 -435 192 -398 q 157 -361 157 -281 l 157 -281 q 157 -204 192 -167 q 226 -130 278 -130 z"},"൧":{"ha":873,"x_min":11,"x_max":816,"o":"m 375 109 l 375 201 l 243 201 q 179 201 139 193 q 98 184 72 168 l 72 168 q 42 149 27 122 q 11 94 11 58 l 11 58 q 11 21 26 -8 q 41 -38 72 -58 l 72 -58 q 88 -69 109 -75 q 129 -82 159 -86 q 188 -90 231 -90 l 231 -90 l 422 -90 l 445 0 l 242 0 q 202 0 185 2 q 168 4 156 10 l 156 10 q 142 16 136 27 q 130 38 130 53 l 130 53 q 130 80 151 94 l 151 94 q 163 102 184 106 q 205 109 246 109 l 246 109 l 375 109 z m 569 -571 l 569 -571 q 630 -571 675 -555 q 719 -539 749 -510 l 749 -510 q 786 -476 801 -426 q 816 -377 816 -299 l 816 -299 l 816 0 l 324 0 l 324 -294 q 324 -350 331 -389 q 338 -429 353 -458 q 367 -487 390 -510 l 390 -510 q 420 -538 465 -554 q 509 -571 569 -571 z m 570 -480 l 570 -480 q 539 -480 517 -471 q 494 -462 479 -446 l 479 -446 q 461 -426 452 -392 q 443 -359 443 -293 l 443 -293 l 443 -90 l 697 -90 l 697 -285 q 697 -355 688 -390 q 679 -426 661 -446 l 661 -446 q 646 -462 623 -471 q 600 -480 570 -480 z"},"൨":{"ha":826,"x_min":37,"x_max":808,"o":"m 331 -571 l 331 -571 q 408 -571 463 -548 q 517 -526 552 -486 q 586 -447 603 -396 q 619 -346 619 -291 l 619 -291 q 619 -232 606 -187 q 592 -142 569 -105 q 545 -69 515 -33 l 515 -33 l 528 -90 l 808 -90 l 808 0 l 452 0 l 406 -64 q 431 -88 452 -118 q 473 -149 486 -188 q 498 -228 498 -280 l 498 -280 q 498 -340 478 -385 q 457 -430 420 -454 q 382 -479 331 -479 l 331 -479 q 278 -479 240 -454 q 201 -430 180 -385 q 159 -341 159 -282 l 159 -282 q 159 -232 171 -192 q 183 -152 205 -119 q 227 -86 259 -56 l 259 -56 l 177 11 q 138 -22 106 -64 q 74 -107 56 -161 q 37 -216 37 -284 l 37 -284 q 37 -340 54 -391 q 71 -443 107 -483 q 143 -524 199 -547 q 255 -571 331 -571 z"},"൩":{"ha":1044,"x_min":37,"x_max":1026,"o":"m 280 -571 l 280 -571 q 322 -571 351 -561 q 380 -551 403 -533 q 425 -515 446 -489 l 446 -489 l 433 -489 q 466 -532 507 -551 q 548 -571 606 -571 l 606 -571 q 681 -571 734 -536 q 787 -501 815 -440 q 843 -379 843 -300 l 843 -300 q 843 -242 832 -197 q 820 -153 798 -114 q 775 -75 740 -34 l 740 -34 l 723 0 l 677 0 l 633 -57 q 663 -95 683 -130 q 702 -166 712 -205 q 722 -245 722 -294 l 722 -294 q 722 -354 706 -395 q 689 -436 661 -458 q 632 -480 595 -480 l 595 -480 q 569 -480 552 -471 q 535 -462 523 -447 l 523 -447 q 510 -429 505 -400 q 499 -372 499 -323 l 499 -323 l 499 0 l 380 0 l 380 -323 q 380 -376 375 -402 q 370 -429 356 -448 l 356 -448 q 346 -462 329 -471 q 311 -480 285 -480 l 285 -480 q 251 -480 222 -459 q 193 -439 175 -398 q 157 -357 157 -295 l 157 -295 q 157 -246 169 -204 q 180 -162 201 -125 q 222 -89 252 -56 l 252 -56 l 165 11 q 127 -30 98 -75 q 69 -121 53 -175 q 37 -230 37 -297 l 37 -297 q 37 -377 66 -438 q 94 -500 149 -535 q 203 -571 280 -571 z m 702 0 l 754 -90 l 1026 -90 l 1026 0 l 702 0 z"},"൪":{"ha":770,"x_min":37,"x_max":765,"o":"m 352 -571 l 352 -571 q 430 -571 487 -548 q 543 -526 588 -484 l 588 -484 q 642 -435 670 -368 q 697 -302 697 -227 l 697 -227 q 697 -149 673 -95 q 648 -42 600 -15 q 552 12 481 12 l 481 12 q 415 12 370 -14 q 324 -41 301 -85 q 277 -130 277 -185 l 277 -185 q 277 -251 305 -300 q 332 -349 385 -392 q 437 -435 512 -482 l 512 -482 q 564 -514 593 -534 q 622 -555 634 -575 q 645 -595 645 -622 l 645 -622 q 645 -639 639 -656 q 633 -674 623 -689 l 623 -689 l 731 -739 q 747 -715 756 -687 q 765 -659 765 -626 l 765 -626 q 765 -578 743 -543 q 721 -508 679 -477 q 636 -446 571 -408 l 571 -408 q 517 -374 478 -341 q 439 -308 418 -270 q 396 -232 396 -183 l 396 -183 q 396 -131 419 -104 q 442 -78 481 -78 l 481 -78 q 513 -78 534 -92 q 555 -107 565 -138 q 575 -169 575 -219 l 575 -219 q 575 -281 553 -341 q 530 -401 481 -439 l 481 -439 q 458 -459 427 -470 q 395 -481 356 -481 l 356 -481 q 293 -481 249 -457 q 204 -433 181 -388 q 158 -344 158 -282 l 158 -282 q 158 -231 170 -191 q 181 -152 204 -119 q 226 -86 257 -56 l 257 -56 l 178 11 q 138 -22 106 -64 q 74 -107 56 -161 q 37 -216 37 -284 l 37 -284 q 37 -341 56 -392 q 74 -444 112 -484 q 150 -524 210 -547 q 269 -571 352 -571 z"},"൫":{"ha":970,"x_min":42,"x_max":928,"o":"m 492 -727 l 492 -727 q 602 -727 684 -694 q 766 -662 820 -601 q 874 -541 901 -459 q 928 -378 928 -280 l 928 -280 q 928 -210 913 -135 q 897 -61 860 11 l 860 11 l 759 -31 q 777 -69 788 -109 q 799 -150 805 -192 q 810 -234 810 -276 l 810 -276 q 810 -353 791 -418 q 772 -483 733 -531 q 694 -580 634 -607 q 574 -634 492 -634 l 492 -634 q 391 -634 316 -590 q 241 -546 200 -462 q 159 -378 159 -257 l 159 -257 q 159 -188 173 -126 q 187 -65 218 -17 q 248 30 298 57 q 347 84 418 84 l 418 84 q 514 84 558 44 q 601 4 601 -65 l 601 -65 q 601 -104 589 -135 q 576 -167 548 -185 q 520 -204 475 -204 l 475 -204 l 463 -204 l 463 -293 l 479 -293 q 512 -293 533 -297 q 553 -302 567 -313 l 567 -313 q 579 -323 586 -337 q 592 -352 592 -373 l 592 -373 q 592 -410 570 -430 q 547 -451 503 -451 l 503 -451 q 459 -451 430 -426 q 400 -402 386 -360 q 372 -319 372 -267 l 372 -267 q 372 -206 389 -150 q 405 -94 439 -43 l 439 -43 l 337 8 q 297 -57 275 -125 q 252 -194 252 -273 l 252 -273 q 252 -354 283 -414 q 314 -475 372 -509 q 429 -543 508 -543 l 508 -543 q 575 -543 620 -521 q 665 -499 688 -462 q 711 -426 711 -379 l 711 -379 q 711 -351 701 -325 q 691 -299 671 -279 q 650 -259 615 -244 l 615 -244 l 602 -255 q 657 -231 689 -181 q 720 -132 720 -63 l 720 -63 q 720 16 685 70 q 649 123 582 150 q 515 177 420 177 l 420 177 q 304 177 219 127 q 134 77 88 -19 q 42 -115 42 -252 l 42 -252 q 42 -373 78 -462 q 113 -552 176 -610 q 238 -669 320 -698 q 401 -727 492 -727 z"},"൬":{"ha":1180,"x_min":36,"x_max":1140,"o":"m 583 -571 l 583 -571 q 640 -571 678 -550 q 715 -529 743 -490 l 743 -490 l 798 -304 l 798 0 l 680 0 l 680 -323 q 680 -373 675 -402 q 669 -432 654 -450 l 654 -450 q 642 -464 625 -472 q 608 -480 583 -480 l 583 -480 q 562 -480 544 -471 q 525 -463 513 -448 l 513 -448 q 498 -429 492 -400 q 485 -371 485 -316 l 485 -316 l 485 0 l 367 0 l 367 -326 q 367 -374 363 -401 q 358 -428 345 -447 l 345 -447 q 334 -462 318 -471 q 302 -480 277 -480 l 277 -480 q 246 -480 219 -459 q 191 -439 174 -398 q 157 -357 157 -295 l 157 -295 q 157 -246 168 -204 q 179 -162 200 -125 q 221 -89 252 -56 l 252 -56 l 165 11 q 126 -30 97 -75 q 68 -121 52 -175 q 36 -230 36 -297 l 36 -297 q 36 -377 64 -439 q 92 -501 145 -536 q 198 -571 272 -571 l 272 -571 q 330 -571 366 -550 q 402 -530 432 -491 l 432 -491 l 420 -488 q 452 -531 493 -551 q 533 -571 583 -571 z m 903 -571 l 903 -571 q 1015 -571 1078 -486 q 1140 -402 1140 -228 l 1140 -228 q 1140 -88 1105 8 q 1069 103 993 152 q 916 201 789 201 l 789 201 q 763 201 735 199 q 706 197 679 192 l 679 192 l 688 100 q 707 105 730 107 q 753 108 778 108 l 778 108 q 851 108 899 84 q 946 59 972 14 q 998 -31 1008 -92 q 1018 -154 1018 -227 l 1018 -227 q 1018 -314 1003 -369 q 987 -425 960 -452 q 932 -480 895 -480 l 895 -480 q 870 -480 853 -472 q 835 -464 823 -447 l 823 -447 q 808 -427 803 -396 q 798 -366 798 -310 l 798 -310 l 798 -10 l 689 -10 l 689 -319 l 732 -489 q 766 -533 807 -552 q 847 -571 903 -571 z"},"൭":{"ha":723,"x_min":37,"x_max":683,"o":"m 368 -571 l 368 -571 q 449 -571 508 -545 q 567 -520 606 -472 q 645 -424 664 -357 q 683 -290 683 -206 l 683 -206 q 683 -111 661 -35 q 639 40 595 93 q 550 146 483 174 q 415 201 324 201 l 324 201 q 295 201 266 199 q 237 197 208 192 l 208 192 l 217 100 q 237 104 262 106 q 286 108 312 108 l 312 108 q 383 108 431 85 q 479 61 508 19 q 536 -24 549 -82 q 561 -140 561 -208 l 561 -208 q 561 -343 508 -411 q 455 -479 359 -479 l 359 -479 q 294 -479 246 -447 q 198 -415 172 -361 q 146 -308 146 -240 l 146 -240 l 146 -230 q 146 -173 158 -139 q 169 -105 189 -90 q 209 -76 233 -76 l 233 -76 q 253 -76 267 -85 q 281 -95 289 -114 q 297 -134 297 -163 l 297 -163 q 297 -207 279 -229 q 261 -252 226 -252 l 226 -252 q 194 -252 165 -234 q 135 -216 106 -182 l 106 -182 l 88 -262 q 114 -292 157 -315 q 199 -339 252 -339 l 252 -339 q 303 -339 339 -319 q 374 -299 393 -261 q 411 -223 411 -170 l 411 -170 q 411 -112 390 -71 q 369 -31 331 -9 q 292 12 237 12 l 237 12 q 184 12 139 -13 q 93 -39 65 -94 q 37 -150 37 -239 l 37 -239 q 37 -342 79 -416 q 121 -490 196 -530 q 270 -571 368 -571 z"},"൮":{"ha":929,"x_min":37,"x_max":867,"o":"m 331 -571 l 331 -571 q 408 -571 463 -548 q 517 -526 552 -486 q 586 -447 603 -396 q 619 -346 619 -291 l 619 -291 q 619 -232 606 -187 q 592 -142 569 -105 q 545 -69 515 -33 l 515 -33 l 528 -90 l 748 -90 l 748 -559 l 867 -559 l 867 -163 l 794 0 l 452 0 l 406 -64 q 431 -88 452 -118 q 473 -149 486 -188 q 498 -228 498 -280 l 498 -280 q 498 -340 478 -385 q 457 -430 420 -454 q 382 -479 331 -479 l 331 -479 q 278 -479 240 -454 q 201 -430 180 -385 q 159 -341 159 -282 l 159 -282 q 159 -232 171 -192 q 183 -152 205 -119 q 227 -86 259 -56 l 259 -56 l 177 11 q 138 -22 106 -64 q 74 -107 56 -161 q 37 -216 37 -284 l 37 -284 q 37 -340 54 -391 q 71 -443 107 -483 q 143 -524 199 -547 q 255 -571 331 -571 z m 551 201 l 551 201 q 523 201 494 199 q 465 196 439 190 l 439 190 l 452 99 q 470 103 494 106 q 517 108 539 108 l 539 108 q 602 108 642 95 q 682 81 705 58 q 727 35 737 5 q 746 -25 747 -58 l 747 -58 l 867 -229 l 867 -125 q 867 -57 859 -9 q 851 39 834 72 q 816 105 788 131 l 788 131 q 750 164 692 183 q 633 201 551 201 z"},"൯":{"ha":1085,"x_min":37,"x_max":1080,"o":"m 281 -571 l 281 -571 q 322 -571 353 -561 q 384 -551 409 -532 q 434 -513 458 -484 l 458 -484 l 499 -236 l 499 0 l 380 0 l 380 -322 q 380 -375 375 -402 q 370 -429 356 -448 l 356 -448 q 346 -462 329 -471 q 311 -480 285 -480 l 285 -480 q 251 -480 222 -459 q 193 -438 175 -397 q 157 -356 157 -295 l 157 -295 q 157 -246 169 -204 q 180 -162 201 -125 q 222 -89 252 -56 l 252 -56 l 165 11 q 127 -30 98 -75 q 69 -121 53 -175 q 37 -230 37 -297 l 37 -297 q 37 -377 66 -438 q 94 -500 149 -535 q 203 -571 281 -571 z m 662 -571 l 662 -571 q 741 -571 800 -548 q 858 -526 903 -483 l 903 -483 q 956 -434 984 -367 q 1012 -301 1012 -227 l 1012 -227 q 1012 -149 988 -95 q 963 -42 915 -15 q 867 12 797 12 l 797 12 q 730 12 685 -14 q 639 -41 616 -85 q 592 -130 592 -185 l 592 -185 q 592 -251 620 -300 q 647 -349 700 -392 q 752 -435 828 -482 l 828 -482 q 879 -514 908 -534 q 937 -555 949 -575 q 960 -595 960 -622 l 960 -622 q 960 -639 955 -656 q 949 -674 938 -689 l 938 -689 l 1046 -739 q 1062 -715 1071 -687 q 1080 -659 1080 -626 l 1080 -626 q 1080 -578 1058 -543 q 1036 -508 994 -477 q 951 -446 887 -408 l 887 -408 q 833 -374 794 -341 q 754 -308 733 -270 q 711 -232 711 -183 l 711 -183 q 711 -131 734 -104 q 757 -78 796 -78 l 796 -78 q 828 -78 849 -92 q 870 -107 880 -138 q 890 -169 890 -219 l 890 -219 q 890 -282 867 -341 q 844 -400 795 -438 l 795 -438 q 771 -458 739 -469 q 707 -481 663 -481 l 663 -481 q 627 -481 600 -473 q 572 -465 551 -447 l 551 -447 q 534 -432 522 -411 q 510 -390 505 -356 q 499 -323 499 -271 l 499 -271 l 499 -43 l 390 -43 l 390 -301 l 425 -461 q 450 -494 482 -518 q 513 -543 557 -557 q 601 -571 662 -571 z"},"൰":{"ha":1015,"x_min":-32,"x_max":978,"o":"m 197 -559 l 316 -559 l 316 -149 l 313 -114 q 313 -30 300 26 q 286 81 256 120 l 256 120 q 226 159 177 180 q 127 201 57 201 l 57 201 q 35 201 13 199 q -10 197 -32 191 l -32 191 l -22 100 q -8 104 8 106 q 24 108 42 108 l 42 108 q 86 108 115 96 q 143 84 160 65 l 160 65 q 181 40 189 3 q 197 -34 197 -97 l 197 -97 l 197 -559 z m 741 12 l 741 12 q 684 12 644 -7 q 604 -27 571 -69 l 571 -69 l 584 -72 q 551 -29 512 -8 q 472 12 419 12 l 419 12 q 380 12 351 1 q 321 -10 299 -31 q 277 -52 258 -82 l 258 -82 l 223 -258 l 224 -551 l 316 -546 l 316 -237 q 316 -185 322 -156 q 327 -128 343 -109 l 343 -109 q 354 -95 372 -87 q 390 -79 417 -79 l 417 -79 q 443 -79 461 -87 q 478 -96 490 -111 l 490 -111 q 507 -130 513 -159 q 519 -188 519 -245 l 519 -245 l 519 -559 l 638 -559 l 638 -249 q 638 -190 642 -161 q 646 -132 661 -113 l 661 -113 q 674 -96 693 -87 q 712 -79 732 -79 l 732 -79 q 768 -79 797 -101 q 825 -124 842 -165 q 858 -207 858 -266 l 858 -266 q 858 -315 847 -356 q 836 -397 815 -434 q 793 -471 763 -503 l 763 -503 l 849 -570 q 889 -529 918 -483 q 946 -438 962 -383 q 978 -328 978 -259 l 978 -259 q 978 -182 951 -120 q 923 -59 871 -23 q 818 12 741 12 z"},"൱":{"ha":883,"x_min":37,"x_max":843,"o":"m 281 -571 l 281 -571 q 323 -571 352 -561 q 381 -551 404 -532 q 427 -514 449 -487 l 449 -487 l 499 -236 l 499 0 l 380 0 l 380 -322 q 380 -375 375 -402 q 370 -429 356 -448 l 356 -448 q 346 -462 329 -471 q 311 -480 285 -480 l 285 -480 q 251 -480 222 -459 q 193 -439 175 -398 q 157 -357 157 -295 l 157 -295 q 157 -246 169 -204 q 180 -162 201 -125 q 222 -89 252 -56 l 252 -56 l 165 11 q 127 -30 98 -75 q 69 -121 53 -175 q 37 -230 37 -297 l 37 -297 q 37 -377 66 -438 q 94 -500 149 -535 q 203 -571 281 -571 z m 604 -571 l 604 -571 q 679 -571 733 -534 q 786 -497 815 -421 q 843 -345 843 -228 l 843 -228 q 843 -88 808 8 q 772 103 695 152 q 618 201 492 201 l 492 201 q 465 201 437 199 q 408 197 379 192 l 379 192 l 388 100 q 408 104 432 106 q 455 108 481 108 l 481 108 q 555 108 602 84 q 649 59 675 14 q 701 -31 711 -92 q 721 -154 721 -227 l 721 -227 q 721 -315 706 -370 q 690 -426 662 -453 q 634 -480 597 -480 l 597 -480 q 572 -480 554 -472 q 536 -464 524 -447 l 524 -447 q 509 -428 504 -398 q 499 -369 499 -311 l 499 -311 l 499 -10 l 390 -10 l 390 -313 l 433 -489 q 467 -532 508 -551 q 548 -571 604 -571 z"},"൲":{"ha":1370,"x_min":37,"x_max":1351,"o":"m 1181 -559 l 1181 -559 q 1242 -559 1279 -538 q 1316 -517 1334 -483 q 1351 -449 1351 -410 l 1351 -410 q 1351 -368 1336 -337 q 1321 -307 1294 -287 l 1294 -287 q 1275 -273 1252 -264 q 1229 -256 1198 -252 q 1166 -249 1122 -249 l 1122 -249 l 927 -249 l 929 -339 l 1127 -339 q 1162 -339 1181 -342 q 1200 -346 1211 -353 l 1211 -353 q 1226 -361 1233 -374 q 1240 -387 1240 -410 l 1240 -410 q 1240 -437 1225 -454 q 1210 -471 1182 -471 l 1182 -471 q 1150 -471 1133 -451 q 1116 -431 1116 -396 l 1116 -396 q 1116 -363 1127 -339 q 1138 -315 1156 -294 l 1156 -294 l 1048 -288 q 1033 -310 1022 -342 q 1010 -375 1010 -408 l 1010 -408 q 1010 -458 1032 -491 q 1054 -525 1094 -542 q 1133 -559 1181 -559 z m 281 -571 l 281 -571 q 323 -571 353 -561 q 382 -552 407 -533 q 431 -514 456 -485 l 456 -485 l 499 -233 l 499 0 l 381 0 l 381 -322 q 381 -375 376 -402 q 370 -429 357 -448 l 357 -448 q 346 -462 329 -471 q 312 -480 285 -480 l 285 -480 q 252 -480 223 -459 q 193 -439 176 -398 q 158 -357 158 -295 l 158 -295 q 158 -246 169 -204 q 180 -162 201 -125 q 222 -89 252 -56 l 252 -56 l 166 11 q 127 -30 98 -75 q 69 -121 53 -175 q 37 -230 37 -297 l 37 -297 q 37 -377 66 -438 q 94 -500 149 -535 q 204 -571 281 -571 z m 650 -571 l 650 -571 q 717 -571 773 -548 q 829 -526 871 -483 q 912 -440 935 -377 q 958 -315 958 -235 l 958 -235 q 958 -147 932 -92 q 905 -37 858 -12 q 811 12 747 12 l 747 12 q 680 12 640 -12 q 599 -36 581 -74 q 562 -112 562 -154 l 562 -154 q 562 -204 582 -240 q 601 -276 634 -298 l 634 -298 q 656 -313 683 -322 q 709 -331 747 -335 q 784 -339 839 -339 l 839 -339 l 1078 -339 l 1078 -249 l 845 -249 q 789 -249 760 -244 q 731 -239 710 -224 l 710 -224 q 695 -214 687 -197 q 678 -180 678 -155 l 678 -155 q 678 -122 696 -100 q 714 -79 751 -79 l 751 -79 q 779 -79 799 -95 q 819 -111 830 -146 q 841 -181 841 -237 l 841 -237 q 841 -252 840 -268 q 839 -284 837 -297 l 837 -297 l 832 -325 q 825 -365 803 -400 q 780 -435 743 -457 q 705 -480 650 -480 l 650 -480 q 622 -480 597 -472 q 572 -465 552 -448 l 552 -448 q 534 -434 523 -413 q 511 -393 505 -360 q 499 -328 499 -277 l 499 -277 l 499 -209 l 429 -221 l 423 -464 q 447 -495 478 -519 q 508 -543 550 -557 q 592 -571 650 -571 z"},"൳":{"ha":728,"x_min":37,"x_max":706,"o":"m 234 12 l 234 12 q 178 12 133 -14 q 88 -41 63 -93 q 37 -145 37 -220 l 37 -220 q 37 -306 66 -365 q 95 -425 150 -462 l 150 -462 q 187 -486 229 -499 q 270 -513 324 -519 q 378 -525 450 -525 l 450 -525 l 706 -525 l 706 -431 l 470 -431 q 397 -431 350 -426 q 302 -422 270 -412 q 238 -402 212 -384 l 212 -384 q 187 -366 172 -340 q 156 -314 149 -282 l 149 -282 l 149 -259 q 147 -249 147 -238 q 146 -228 146 -214 l 146 -214 q 146 -165 157 -134 q 168 -104 188 -90 q 207 -76 231 -76 l 231 -76 q 252 -76 267 -85 q 281 -95 289 -114 q 296 -133 296 -163 l 296 -163 q 296 -207 278 -229 q 260 -252 225 -252 l 225 -252 q 193 -252 164 -234 q 134 -216 106 -182 l 106 -182 l 93 -267 q 119 -294 160 -316 q 201 -339 252 -339 l 252 -339 q 303 -339 338 -319 q 373 -299 392 -261 q 411 -223 411 -170 l 411 -170 q 411 -112 391 -71 q 370 -31 331 -9 q 291 12 234 12 z"},"൴":{"ha":905,"x_min":37,"x_max":868,"o":"m 464 -790 l 583 -790 l 583 -222 q 583 -187 585 -163 q 587 -140 593 -125 q 598 -110 606 -100 l 606 -100 q 616 -88 630 -82 q 644 -77 663 -77 l 663 -77 q 691 -77 710 -92 q 728 -107 738 -137 q 747 -167 747 -213 l 747 -213 q 747 -266 734 -310 q 720 -354 693 -388 q 666 -423 626 -445 q 585 -468 532 -478 l 532 -478 l 504 -477 q 490 -478 475 -479 q 459 -480 443 -480 l 443 -480 q 378 -480 324 -464 q 269 -448 229 -417 q 189 -387 168 -343 q 146 -299 146 -243 l 146 -243 l 146 -228 q 146 -172 158 -138 q 169 -105 189 -90 q 208 -76 233 -76 l 233 -76 q 253 -76 267 -85 q 281 -95 289 -114 q 296 -133 296 -163 l 296 -163 q 296 -208 279 -230 q 261 -252 226 -252 l 226 -252 q 193 -252 164 -234 q 135 -216 106 -182 l 106 -182 l 94 -267 q 119 -294 160 -316 q 201 -339 252 -339 l 252 -339 q 303 -339 338 -319 q 373 -299 392 -261 q 411 -223 411 -170 l 411 -170 q 411 -112 390 -71 q 369 -31 331 -9 q 292 12 237 12 l 237 12 q 184 12 139 -13 q 93 -39 65 -92 q 37 -146 37 -232 l 37 -232 q 37 -312 65 -374 q 93 -437 147 -481 q 200 -525 275 -548 q 349 -571 442 -571 l 442 -571 q 462 -571 480 -570 q 498 -570 515 -569 l 515 -569 l 552 -566 q 620 -557 678 -530 q 735 -503 778 -458 q 821 -414 845 -353 q 868 -293 868 -218 l 868 -218 q 868 -148 845 -96 q 822 -44 776 -16 q 730 12 662 12 l 662 12 q 617 12 583 0 q 548 -12 524 -34 l 524 -34 q 503 -54 490 -80 q 477 -106 471 -144 q 464 -183 464 -241 l 464 -241 l 464 -790 z"},"൵":{"ha":1199,"x_min":38,"x_max":1194,"o":"m 353 -571 l 353 -571 q 432 -571 484 -545 q 536 -520 576 -470 l 576 -470 l 590 -396 l 613 -233 l 613 0 l 495 0 l 495 -291 q 495 -359 485 -393 q 475 -427 455 -445 l 455 -445 q 438 -462 415 -470 q 391 -479 352 -479 l 352 -479 q 292 -479 246 -451 q 200 -423 174 -370 q 147 -317 147 -242 l 147 -242 l 147 -231 q 147 -174 159 -139 q 170 -105 190 -90 q 209 -76 234 -76 l 234 -76 q 254 -76 268 -85 q 282 -95 290 -114 q 297 -133 297 -163 l 297 -163 q 297 -208 280 -230 q 262 -252 226 -252 l 226 -252 q 193 -252 163 -233 q 133 -215 104 -180 l 104 -180 l 89 -262 q 115 -292 159 -315 q 202 -339 254 -339 l 254 -339 q 304 -339 340 -319 q 375 -299 394 -261 q 412 -223 412 -170 l 412 -170 q 412 -112 391 -71 q 370 -31 331 -9 q 292 12 237 12 l 237 12 q 185 12 140 -13 q 94 -39 66 -95 q 38 -151 38 -242 l 38 -242 q 38 -351 80 -424 q 121 -497 193 -534 q 264 -571 353 -571 z m 777 -571 l 777 -571 q 855 -571 914 -548 q 972 -526 1018 -483 l 1018 -483 q 1071 -434 1099 -367 q 1126 -301 1126 -227 l 1126 -227 q 1126 -149 1102 -95 q 1077 -42 1030 -15 q 982 12 911 12 l 911 12 q 845 12 800 -14 q 754 -41 731 -85 q 707 -130 707 -185 l 707 -185 q 707 -251 735 -300 q 762 -349 815 -392 q 867 -435 942 -482 l 942 -482 q 994 -514 1023 -534 q 1051 -555 1063 -575 q 1075 -595 1075 -622 l 1075 -622 q 1075 -639 1069 -656 q 1063 -674 1053 -689 l 1053 -689 l 1160 -739 q 1176 -715 1185 -687 q 1194 -659 1194 -626 l 1194 -626 q 1194 -578 1173 -543 q 1151 -508 1109 -477 q 1066 -446 1001 -408 l 1001 -408 q 947 -374 908 -341 q 868 -308 847 -270 q 826 -232 826 -183 l 826 -183 q 826 -131 849 -104 q 871 -78 910 -78 l 910 -78 q 943 -78 964 -92 q 984 -107 995 -138 q 1005 -169 1005 -219 l 1005 -219 q 1005 -282 982 -341 q 958 -400 909 -438 l 909 -438 q 886 -458 854 -469 q 821 -481 778 -481 l 778 -481 q 741 -481 714 -473 q 687 -465 666 -447 l 666 -447 q 649 -432 637 -411 q 625 -390 619 -356 q 613 -323 613 -271 l 613 -271 l 613 -43 l 504 -43 l 504 -301 l 539 -461 q 564 -494 596 -518 q 628 -543 672 -557 q 716 -571 777 -571 z"},"൶":{"ha":1321,"x_min":30,"x_max":1266,"o":"m 233 -356 l 233 -356 q 303 -356 348 -329 q 392 -303 413 -261 q 434 -220 434 -175 l 434 -175 q 434 -139 423 -110 q 412 -82 400 -65 l 400 -65 l 386 -90 l 703 -90 l 708 0 l 326 0 l 284 -56 q 297 -75 308 -101 q 319 -127 319 -164 l 319 -164 q 319 -209 298 -237 q 276 -266 234 -266 l 234 -266 q 205 -266 186 -253 q 167 -241 157 -218 q 147 -195 147 -167 l 147 -167 q 147 -125 161 -97 q 175 -69 195 -43 l 195 -43 l 107 10 q 72 -28 51 -71 q 30 -115 30 -172 l 30 -172 q 30 -227 56 -268 q 81 -310 127 -333 q 172 -356 233 -356 z m 953 -571 l 953 -571 q 1036 -571 1093 -551 q 1150 -532 1188 -498 l 1188 -498 q 1216 -473 1233 -440 q 1250 -408 1258 -364 q 1266 -321 1266 -263 l 1266 -263 l 1266 0 l 657 0 l 657 -265 q 657 -322 665 -364 q 673 -407 690 -440 q 707 -473 734 -498 l 734 -498 q 771 -533 823 -552 q 875 -571 953 -571 z m 891 -479 l 891 -479 q 862 -479 839 -462 q 815 -445 800 -416 l 800 -416 q 788 -392 782 -357 q 775 -323 775 -272 l 775 -272 l 775 -66 l 757 -68 q 812 -118 856 -173 q 900 -228 925 -285 q 950 -342 950 -397 l 950 -397 q 950 -422 945 -440 q 940 -458 927 -468 q 914 -479 891 -479 z m 1068 -378 l 1068 -378 q 1068 -325 1049 -275 q 1029 -225 993 -175 q 957 -126 909 -74 l 909 -74 l 891 -85 q 915 -88 942 -89 q 969 -90 984 -90 l 984 -90 l 1148 -90 l 1148 -265 q 1148 -330 1136 -372 q 1124 -415 1098 -442 q 1071 -469 1027 -485 l 1027 -485 l 1030 -489 q 1045 -471 1057 -443 q 1068 -416 1068 -378 z"},"൷":{"ha":1686,"x_min":30,"x_max":1666,"o":"m 233 -356 l 233 -356 q 303 -356 348 -329 q 392 -303 413 -261 q 434 -220 434 -175 l 434 -175 q 434 -139 423 -110 q 412 -82 400 -65 l 400 -65 l 386 -90 l 649 -90 l 699 0 l 326 0 l 284 -56 q 297 -75 308 -101 q 319 -127 319 -164 l 319 -164 q 319 -209 298 -237 q 276 -266 234 -266 l 234 -266 q 205 -266 186 -253 q 167 -241 157 -218 q 147 -195 147 -167 l 147 -167 q 147 -125 161 -97 q 175 -69 195 -43 l 195 -43 l 107 10 q 72 -28 51 -71 q 30 -115 30 -172 l 30 -172 q 30 -227 56 -268 q 81 -310 127 -333 q 172 -356 233 -356 z m 783 -571 l 783 -571 q 824 -571 854 -561 q 883 -552 908 -533 q 932 -514 958 -485 l 958 -485 l 1001 -267 l 1001 -230 l 882 -230 l 882 -322 q 882 -375 877 -402 q 872 -429 858 -448 l 858 -448 q 848 -462 831 -471 q 813 -480 787 -480 l 787 -480 q 753 -480 724 -459 q 695 -439 677 -398 q 659 -358 659 -297 l 659 -297 q 659 -227 682 -169 q 704 -112 748 -57 l 748 -57 l 703 0 l 635 0 l 608 -73 q 587 -104 571 -138 q 555 -173 547 -213 q 539 -253 539 -300 l 539 -300 q 539 -378 568 -439 q 596 -501 651 -536 q 705 -571 783 -571 z m 1163 -571 l 1163 -571 q 1231 -571 1288 -548 q 1345 -526 1387 -483 q 1429 -440 1453 -377 q 1476 -315 1476 -235 l 1476 -235 q 1476 -147 1450 -92 q 1424 -37 1377 -12 q 1329 12 1265 12 l 1265 12 q 1199 12 1158 -12 q 1117 -36 1099 -74 q 1081 -112 1081 -154 l 1081 -154 q 1081 -204 1100 -240 q 1119 -276 1153 -298 l 1153 -298 q 1175 -313 1202 -322 q 1228 -331 1265 -335 q 1302 -339 1356 -339 l 1356 -339 l 1428 -339 l 1428 -249 l 1363 -249 q 1308 -249 1279 -244 q 1250 -239 1229 -224 l 1229 -224 q 1214 -214 1206 -197 q 1197 -180 1197 -155 l 1197 -155 q 1197 -122 1215 -100 q 1232 -79 1268 -79 l 1268 -79 q 1297 -79 1318 -95 q 1338 -112 1349 -146 q 1359 -181 1359 -237 l 1359 -237 q 1359 -252 1358 -268 q 1357 -284 1355 -297 l 1355 -297 l 1350 -325 q 1343 -364 1320 -399 q 1297 -435 1258 -457 q 1218 -480 1160 -480 l 1160 -480 q 1124 -480 1100 -473 q 1075 -466 1053 -448 l 1053 -448 q 1036 -435 1025 -414 q 1013 -393 1007 -360 q 1001 -328 1001 -277 l 1001 -277 l 1001 -244 l 930 -243 l 927 -466 q 951 -497 983 -520 q 1014 -544 1059 -557 q 1103 -571 1163 -571 z m 1540 -448 l 1655 -469 q 1660 -456 1663 -437 q 1666 -419 1666 -400 l 1666 -400 q 1666 -362 1652 -334 q 1637 -306 1611 -287 l 1611 -287 q 1582 -267 1544 -258 q 1506 -249 1441 -249 l 1441 -249 l 1423 -249 l 1423 -339 l 1435 -339 q 1465 -339 1485 -342 q 1505 -345 1518 -353 l 1518 -353 q 1533 -360 1540 -375 q 1547 -390 1547 -410 l 1547 -410 q 1547 -419 1545 -429 q 1543 -440 1540 -448 l 1540 -448 z"},"൸":{"ha":2108,"x_min":9,"x_max":2054,"o":"m 1352 -571 l 1352 -571 q 1382 -571 1408 -564 q 1433 -558 1455 -545 q 1476 -532 1495 -512 q 1514 -493 1529 -468 l 1529 -468 l 1498 -465 q 1524 -500 1559 -523 q 1594 -547 1640 -559 q 1685 -571 1741 -571 l 1741 -571 q 1823 -571 1881 -551 q 1938 -532 1976 -498 l 1976 -498 q 2003 -473 2021 -440 q 2038 -408 2046 -364 q 2054 -321 2054 -263 l 2054 -263 l 2054 0 l 1563 0 l 1563 -85 q 1613 -133 1653 -185 q 1692 -237 1715 -291 q 1738 -345 1738 -397 l 1738 -397 q 1738 -422 1733 -440 q 1727 -458 1714 -468 q 1700 -479 1677 -479 l 1677 -479 q 1649 -479 1626 -463 q 1603 -447 1589 -419 l 1589 -419 q 1575 -392 1571 -358 q 1566 -324 1566 -272 l 1566 -272 l 1566 -230 l 1447 -230 l 1447 -312 q 1447 -365 1443 -395 q 1438 -426 1425 -445 l 1425 -445 q 1415 -462 1398 -470 q 1380 -479 1355 -479 l 1355 -479 q 1332 -479 1315 -471 q 1297 -463 1287 -447 l 1287 -447 q 1274 -427 1269 -397 q 1264 -367 1264 -312 l 1264 -312 l 1264 -240 q 1264 -191 1258 -154 q 1252 -118 1240 -91 q 1228 -65 1210 -45 l 1210 -45 q 1185 -18 1147 -3 q 1108 12 1053 12 l 1053 12 q 999 12 960 -3 q 921 -18 896 -45 l 896 -45 q 878 -65 866 -92 q 854 -119 848 -155 q 841 -191 841 -239 l 841 -239 l 841 -314 q 841 -368 837 -397 q 832 -426 819 -445 l 819 -445 q 809 -462 792 -470 q 774 -479 750 -479 l 750 -479 q 727 -479 710 -471 q 692 -463 681 -447 l 681 -447 q 668 -427 664 -397 q 659 -367 659 -312 l 659 -312 l 659 -235 q 659 -163 646 -120 q 632 -77 604 -47 l 604 -47 q 576 -18 539 -3 q 501 12 449 12 l 449 12 q 386 12 347 -11 q 308 -35 280 -74 l 280 -74 l 294 -70 q 272 -43 247 -24 q 222 -6 193 3 q 163 12 126 12 l 126 12 q 91 12 64 5 q 36 -2 9 -17 l 9 -17 l 44 -102 q 62 -93 83 -86 q 103 -80 128 -80 l 128 -80 q 150 -80 170 -88 q 190 -96 203 -113 l 203 -113 q 218 -132 222 -161 q 226 -190 226 -248 l 226 -248 l 226 -555 l 345 -559 l 345 -237 q 345 -186 352 -157 q 358 -128 373 -109 l 373 -109 q 383 -96 402 -88 q 420 -80 441 -80 l 441 -80 q 468 -80 487 -89 q 505 -98 516 -115 l 516 -115 q 529 -135 534 -165 q 539 -195 539 -252 l 539 -252 l 539 -319 q 539 -368 545 -404 q 551 -440 563 -467 q 575 -494 593 -514 l 593 -514 q 618 -541 656 -556 q 694 -571 749 -571 l 749 -571 q 803 -571 842 -556 q 881 -542 907 -514 l 907 -514 q 925 -495 937 -468 q 949 -441 955 -405 q 961 -369 961 -320 l 961 -320 l 961 -248 q 961 -194 966 -163 q 971 -133 983 -114 l 983 -114 q 994 -97 1012 -88 q 1029 -80 1052 -80 l 1052 -80 q 1077 -80 1094 -88 q 1111 -96 1122 -112 l 1122 -112 q 1134 -132 1139 -162 q 1144 -192 1144 -245 l 1144 -245 l 1144 -319 q 1144 -368 1150 -404 q 1156 -440 1169 -467 q 1181 -494 1199 -514 l 1199 -514 q 1224 -541 1262 -556 q 1300 -571 1352 -571 z m 1855 -378 l 1855 -378 q 1855 -325 1836 -275 q 1816 -225 1781 -175 q 1745 -126 1697 -74 l 1697 -74 l 1679 -85 q 1702 -88 1729 -89 q 1756 -90 1772 -90 l 1772 -90 l 1936 -90 l 1936 -265 q 1936 -330 1924 -372 q 1911 -415 1885 -442 q 1859 -469 1815 -485 l 1815 -485 l 1817 -489 q 1832 -471 1844 -443 q 1855 -416 1855 -378 z"},"൹":{"ha":1099,"x_min":37,"x_max":1077,"o":"m 281 -571 l 281 -571 q 322 -571 352 -561 q 381 -552 406 -533 q 430 -514 456 -485 l 456 -485 l 499 -233 l 499 0 l 380 0 l 380 -322 q 380 -375 375 -402 q 370 -429 356 -448 l 356 -448 q 346 -462 329 -471 q 311 -480 285 -480 l 285 -480 q 251 -480 222 -459 q 193 -439 175 -398 q 157 -357 157 -295 l 157 -295 q 157 -246 169 -204 q 180 -162 201 -125 q 222 -89 252 -56 l 252 -56 l 165 11 q 127 -30 98 -75 q 69 -121 53 -175 q 37 -230 37 -297 l 37 -297 q 37 -377 66 -438 q 94 -500 149 -535 q 203 -571 281 -571 z m 649 -571 l 649 -571 q 716 -571 773 -548 q 829 -526 870 -483 q 911 -440 934 -377 q 957 -315 957 -235 l 957 -235 q 957 -147 931 -92 q 905 -37 858 -12 q 811 12 746 12 l 746 12 q 680 12 639 -12 q 598 -36 580 -74 q 562 -112 562 -154 l 562 -154 q 562 -204 582 -240 q 601 -276 634 -298 l 634 -298 q 656 -313 683 -322 q 709 -331 747 -335 q 784 -339 838 -339 l 838 -339 l 1077 -339 l 1077 -249 l 844 -249 q 789 -249 760 -244 q 731 -239 710 -224 l 710 -224 q 695 -214 687 -197 q 678 -180 678 -155 l 678 -155 q 678 -122 696 -100 q 713 -79 750 -79 l 750 -79 q 779 -79 799 -95 q 819 -111 830 -146 q 841 -181 841 -237 l 841 -237 q 841 -252 840 -268 q 839 -284 837 -297 l 837 -297 l 832 -325 q 824 -365 802 -400 q 780 -435 742 -457 q 704 -480 650 -480 l 650 -480 q 622 -480 597 -472 q 572 -465 551 -448 l 551 -448 q 533 -434 522 -413 q 510 -393 505 -360 q 499 -328 499 -277 l 499 -277 l 499 -209 l 428 -221 l 423 -464 q 446 -495 477 -519 q 507 -543 550 -557 q 592 -571 649 -571 z"},"ൺ":{"ha":1476,"x_min":38,"x_max":1440,"o":"m 353 -571 l 353 -571 q 432 -571 484 -545 q 535 -520 575 -473 l 575 -473 l 545 -485 q 576 -529 620 -550 q 664 -571 717 -571 l 717 -571 q 781 -571 822 -546 q 862 -522 893 -478 l 893 -478 l 891 -445 l 935 -310 l 935 0 l 817 0 l 817 -321 q 817 -374 812 -403 q 806 -432 790 -450 l 790 -450 q 779 -464 761 -472 q 742 -480 715 -480 l 715 -480 q 691 -480 673 -471 q 655 -463 642 -448 l 642 -448 q 626 -429 620 -400 q 614 -372 614 -314 l 614 -314 l 614 0 l 495 0 l 495 -290 q 495 -359 485 -393 q 475 -427 455 -445 l 455 -445 q 438 -462 414 -470 q 390 -479 352 -479 l 352 -479 q 292 -479 246 -451 q 200 -424 174 -370 q 147 -317 147 -242 l 147 -242 l 147 -231 q 147 -174 159 -139 q 170 -105 190 -90 q 209 -76 234 -76 l 234 -76 q 254 -76 268 -85 q 282 -95 290 -114 q 297 -133 297 -163 l 297 -163 q 297 -208 280 -230 q 262 -252 226 -252 l 226 -252 q 193 -252 163 -233 q 133 -215 104 -180 l 104 -180 l 89 -262 q 115 -292 159 -315 q 202 -339 254 -339 l 254 -339 q 304 -339 340 -319 q 375 -299 394 -261 q 412 -223 412 -170 l 412 -170 q 412 -112 391 -71 q 370 -31 331 -9 q 292 12 237 12 l 237 12 q 185 12 140 -13 q 94 -39 66 -95 q 38 -151 38 -242 l 38 -242 q 38 -351 80 -424 q 121 -497 193 -534 q 264 -571 353 -571 z m 1235 12 l 1235 12 q 1170 12 1125 -15 q 1080 -42 1057 -93 q 1034 -145 1034 -219 l 1034 -219 q 1034 -268 1048 -315 q 1062 -362 1093 -408 q 1123 -454 1172 -499 l 1172 -499 l 1188 -526 q 1223 -560 1243 -588 q 1263 -616 1263 -646 l 1263 -646 q 1263 -672 1248 -688 q 1232 -705 1196 -705 l 1196 -705 q 1180 -705 1163 -702 q 1146 -700 1135 -696 l 1135 -696 l 1113 -782 q 1133 -788 1166 -792 q 1198 -797 1231 -797 l 1231 -797 q 1291 -797 1324 -776 q 1356 -756 1369 -726 q 1381 -696 1381 -667 l 1381 -667 q 1381 -617 1355 -571 q 1328 -526 1279 -479 l 1279 -479 l 1262 -460 q 1224 -425 1200 -384 q 1176 -344 1165 -301 q 1153 -258 1153 -215 l 1153 -215 q 1153 -167 1163 -136 q 1172 -106 1191 -92 q 1210 -78 1235 -78 l 1235 -78 q 1277 -78 1298 -110 q 1318 -142 1318 -217 l 1318 -217 q 1318 -262 1307 -307 q 1296 -353 1272 -391 q 1248 -430 1210 -453 l 1210 -453 q 1190 -466 1166 -474 q 1142 -482 1104 -482 l 1104 -482 q 1067 -482 1039 -474 q 1010 -466 988 -447 l 988 -447 q 972 -433 960 -412 q 948 -391 942 -358 q 935 -325 935 -273 l 935 -273 l 935 -85 l 825 -85 l 825 -275 l 862 -461 q 887 -494 919 -518 q 950 -543 995 -557 q 1040 -571 1102 -571 l 1102 -571 q 1146 -571 1184 -563 q 1222 -555 1254 -539 l 1254 -539 q 1258 -538 1262 -536 q 1265 -534 1269 -531 l 1269 -531 q 1327 -501 1365 -453 q 1402 -405 1421 -346 q 1440 -287 1440 -225 l 1440 -225 q 1440 -110 1388 -49 q 1335 12 1235 12 z"},"ൻ":{"ha":1040,"x_min":37,"x_max":1003,"o":"m 280 -571 l 280 -571 q 322 -571 352 -561 q 382 -552 407 -532 q 432 -513 456 -485 l 456 -485 l 499 -244 l 499 0 l 380 0 l 380 -322 q 380 -375 375 -402 q 370 -429 356 -448 l 356 -448 q 346 -462 329 -471 q 311 -480 285 -480 l 285 -480 q 251 -480 222 -459 q 193 -439 175 -398 q 157 -357 157 -295 l 157 -295 q 157 -246 169 -204 q 180 -162 201 -125 q 222 -89 252 -56 l 252 -56 l 165 11 q 127 -30 98 -75 q 69 -121 53 -175 q 37 -230 37 -297 l 37 -297 q 37 -377 66 -438 q 94 -500 149 -535 q 203 -571 280 -571 z m 798 12 l 798 12 q 733 12 688 -15 q 643 -42 620 -93 q 597 -145 597 -219 l 597 -219 q 597 -268 611 -315 q 625 -362 656 -408 q 686 -454 735 -499 l 735 -499 l 752 -526 q 786 -560 806 -588 q 826 -616 826 -646 l 826 -646 q 826 -672 811 -688 q 795 -705 760 -705 l 760 -705 q 743 -705 727 -702 q 710 -700 698 -696 l 698 -696 l 677 -782 q 697 -788 729 -792 q 761 -797 794 -797 l 794 -797 q 854 -797 887 -776 q 919 -756 932 -726 q 944 -696 944 -667 l 944 -667 q 944 -617 918 -571 q 891 -526 842 -479 l 842 -479 l 825 -460 q 788 -425 764 -384 q 739 -344 728 -301 q 716 -258 716 -215 l 716 -215 q 716 -167 726 -136 q 736 -106 755 -92 q 773 -78 799 -78 l 799 -78 q 840 -78 861 -110 q 882 -142 882 -217 l 882 -217 q 882 -262 871 -307 q 859 -353 836 -391 q 812 -430 774 -453 l 774 -453 q 753 -466 729 -474 q 705 -482 668 -482 l 668 -482 q 631 -482 603 -474 q 574 -466 552 -447 l 552 -447 q 535 -433 524 -412 q 512 -391 506 -358 q 499 -325 499 -273 l 499 -273 l 499 -85 l 389 -85 l 389 -275 l 425 -461 q 450 -494 482 -518 q 513 -543 558 -557 q 603 -571 665 -571 l 665 -571 q 710 -571 748 -563 q 785 -555 818 -539 l 818 -539 q 822 -538 826 -536 q 829 -534 832 -531 l 832 -531 q 890 -501 928 -453 q 965 -405 984 -346 q 1003 -287 1003 -225 l 1003 -225 q 1003 -110 951 -49 q 899 12 798 12 z"},"ർ":{"ha":725,"x_min":37,"x_max":688,"o":"m 484 12 l 484 12 q 418 12 373 -15 q 328 -42 305 -93 q 282 -145 282 -219 l 282 -219 q 282 -268 296 -315 q 310 -362 341 -408 q 371 -454 420 -499 l 420 -499 l 437 -526 q 471 -560 491 -588 q 511 -616 511 -646 l 511 -646 q 511 -672 496 -688 q 480 -705 445 -705 l 445 -705 q 429 -705 412 -702 q 394 -700 383 -696 l 383 -696 l 362 -782 q 382 -788 414 -792 q 446 -797 479 -797 l 479 -797 q 539 -797 572 -776 q 604 -756 617 -726 q 629 -696 629 -667 l 629 -667 q 629 -617 603 -571 q 576 -526 527 -479 l 527 -479 l 510 -460 q 473 -425 449 -384 q 424 -344 413 -301 q 401 -258 401 -215 l 401 -215 q 401 -167 411 -136 q 421 -106 440 -92 q 459 -78 484 -78 l 484 -78 q 525 -78 546 -110 q 567 -142 567 -217 l 567 -217 q 567 -251 561 -285 q 554 -319 541 -351 q 528 -384 508 -410 q 487 -437 459 -454 l 459 -454 q 438 -467 415 -474 q 391 -482 352 -482 l 352 -482 q 289 -482 246 -456 q 202 -431 180 -386 q 158 -341 158 -282 l 158 -282 q 158 -231 170 -191 q 181 -152 204 -119 q 226 -86 257 -56 l 257 -56 l 178 11 q 138 -22 106 -64 q 74 -106 56 -160 q 37 -214 37 -284 l 37 -284 q 37 -342 56 -394 q 74 -446 113 -485 q 151 -525 210 -548 q 269 -571 349 -571 l 349 -571 q 394 -571 432 -563 q 470 -556 503 -540 l 503 -540 q 507 -539 511 -536 q 514 -534 517 -532 l 517 -532 q 575 -501 613 -452 q 650 -404 669 -345 q 688 -287 688 -224 l 688 -224 q 688 -109 636 -48 q 584 12 484 12 z"},"ൽ":{"ha":1184,"x_min":37,"x_max":1147,"o":"m 719 -571 l 719 -571 q 777 -571 820 -565 q 863 -559 897 -548 q 930 -538 959 -523 l 959 -523 l 987 -511 q 1068 -462 1108 -386 q 1147 -311 1147 -220 l 1147 -220 q 1147 -110 1095 -49 q 1043 12 942 12 l 942 12 q 877 12 833 -15 q 788 -42 765 -93 q 741 -145 741 -219 l 741 -219 q 741 -268 755 -315 q 769 -362 800 -408 q 830 -454 879 -499 l 879 -499 l 894 -524 q 930 -558 950 -587 q 970 -616 970 -646 l 970 -646 q 970 -672 955 -688 q 939 -705 904 -705 l 904 -705 q 888 -705 871 -702 q 854 -700 842 -696 l 842 -696 l 821 -782 q 841 -788 873 -792 q 904 -797 939 -797 l 939 -797 q 999 -797 1031 -776 q 1063 -756 1076 -726 q 1088 -696 1088 -667 l 1088 -667 q 1088 -617 1062 -571 q 1036 -526 987 -479 l 987 -479 l 970 -460 q 932 -425 908 -384 q 883 -344 872 -301 q 861 -258 861 -215 l 861 -215 q 861 -167 871 -136 q 880 -106 899 -92 q 918 -78 944 -78 l 944 -78 q 984 -78 1005 -110 q 1026 -142 1026 -215 l 1026 -215 q 1026 -261 1012 -305 q 998 -350 973 -386 q 947 -422 909 -443 l 909 -443 l 876 -454 q 841 -469 803 -474 q 764 -480 720 -480 l 720 -480 q 678 -480 638 -474 q 597 -468 561 -453 l 561 -453 l 534 -446 q 480 -415 445 -356 q 410 -297 410 -209 l 410 -209 q 410 -160 423 -131 q 435 -102 455 -90 q 475 -78 497 -78 l 497 -78 q 521 -78 541 -90 q 561 -102 573 -133 q 585 -165 585 -221 l 585 -221 q 585 -277 569 -324 q 553 -372 524 -407 q 495 -443 456 -463 l 456 -463 l 435 -471 q 417 -477 398 -480 q 379 -483 358 -483 l 358 -483 q 291 -483 247 -457 q 202 -431 180 -385 q 158 -340 158 -281 l 158 -281 q 158 -231 170 -191 q 182 -152 204 -119 q 226 -86 257 -57 l 257 -57 l 177 11 q 137 -23 106 -64 q 74 -106 56 -160 q 37 -214 37 -284 l 37 -284 q 37 -339 54 -390 q 71 -442 108 -482 q 145 -523 204 -547 q 262 -571 346 -571 l 346 -571 q 397 -571 438 -561 q 479 -551 516 -530 l 516 -530 l 539 -516 q 615 -471 660 -397 q 704 -323 704 -223 l 704 -223 q 704 -146 680 -93 q 656 -41 610 -14 q 563 12 495 12 l 495 12 q 431 12 385 -15 q 339 -42 315 -93 q 291 -145 291 -215 l 291 -215 q 291 -277 309 -328 q 327 -380 364 -422 q 400 -465 455 -497 l 455 -497 l 476 -515 q 520 -543 580 -557 q 640 -571 719 -571 z"},"ൾ":{"ha":1023,"x_min":37,"x_max":986,"o":"m 777 -797 l 777 -797 q 837 -797 870 -776 q 902 -756 915 -726 q 927 -696 927 -667 l 927 -667 q 927 -617 900 -571 q 873 -526 825 -479 l 825 -479 l 808 -460 q 770 -425 746 -384 q 722 -344 711 -301 q 699 -258 699 -215 l 699 -215 q 699 -167 709 -136 q 718 -106 737 -92 q 756 -78 782 -78 l 782 -78 q 823 -78 844 -110 q 864 -142 864 -217 l 864 -217 q 864 -251 859 -284 q 853 -318 841 -350 q 828 -382 808 -409 q 788 -436 760 -454 l 760 -454 q 740 -467 716 -474 q 692 -482 658 -482 l 658 -482 q 625 -482 597 -473 q 568 -465 548 -449 l 548 -449 q 514 -423 503 -377 q 491 -331 491 -267 l 491 -267 l 491 -231 q 491 -192 486 -158 q 480 -125 469 -97 q 458 -69 438 -48 l 438 -48 q 412 -19 373 -3 q 333 12 276 12 l 276 12 q 203 12 149 -21 q 95 -54 66 -114 q 37 -175 37 -259 l 37 -259 q 37 -328 53 -383 q 68 -439 97 -485 q 126 -531 167 -572 l 167 -572 l 252 -506 q 221 -473 200 -436 q 179 -399 168 -356 q 157 -314 157 -264 l 157 -264 q 157 -202 172 -161 q 187 -121 213 -100 q 239 -80 272 -80 l 272 -80 q 301 -80 320 -89 q 338 -99 349 -116 l 349 -116 q 362 -136 367 -168 q 371 -200 371 -245 l 371 -245 l 371 -284 q 371 -371 393 -425 q 414 -480 454 -513 l 454 -513 q 492 -544 540 -557 q 588 -571 658 -571 l 658 -571 q 700 -571 735 -563 q 770 -555 800 -542 l 800 -542 l 816 -533 q 872 -503 910 -455 q 948 -407 967 -348 q 986 -289 986 -225 l 986 -225 q 986 -110 934 -49 q 881 12 781 12 l 781 12 q 716 12 671 -15 q 626 -42 603 -93 q 580 -145 580 -219 l 580 -219 q 580 -268 594 -315 q 608 -362 639 -408 q 669 -454 718 -499 l 718 -499 l 734 -526 q 768 -560 789 -588 q 809 -616 809 -646 l 809 -646 q 809 -672 794 -688 q 778 -705 742 -705 l 742 -705 q 726 -705 709 -702 q 692 -700 681 -696 l 681 -696 l 659 -782 q 679 -788 712 -792 q 744 -797 777 -797 z"},"ൿ":{"ha":1186,"x_min":30,"x_max":1156,"o":"m 511 -571 l 511 -571 q 594 -571 646 -534 q 697 -498 722 -433 q 747 -368 747 -281 l 747 -281 q 747 -184 719 -119 q 691 -54 638 -21 q 585 12 512 12 l 512 12 q 454 12 410 -8 q 365 -28 336 -63 l 336 -63 q 304 -103 289 -159 q 274 -216 274 -282 l 274 -282 q 274 -420 337 -495 q 399 -571 511 -571 z m 511 -481 l 511 -481 q 450 -481 420 -432 q 390 -383 390 -280 l 390 -280 q 390 -212 404 -167 q 417 -122 444 -100 q 470 -78 510 -78 l 510 -78 q 549 -78 576 -99 q 602 -121 616 -166 q 630 -211 630 -280 l 630 -280 q 630 -350 617 -394 q 603 -439 577 -460 q 550 -481 511 -481 z m 211 12 l 211 12 q 123 12 77 -33 q 30 -78 30 -157 l 30 -157 q 30 -208 53 -243 q 75 -279 112 -300 l 112 -300 q 136 -313 164 -322 q 192 -331 233 -335 q 273 -339 334 -339 l 334 -339 l 899 -339 q 962 -339 1008 -330 q 1054 -321 1091 -294 l 1091 -294 q 1120 -272 1138 -240 q 1156 -208 1156 -159 l 1156 -159 q 1156 -81 1112 -34 q 1067 12 977 12 l 977 12 q 886 12 840 -36 q 794 -85 794 -157 l 794 -157 q 794 -193 802 -223 q 809 -254 824 -286 l 824 -286 q 825 -289 826 -293 q 826 -298 827 -302 l 827 -302 q 840 -329 857 -362 q 873 -395 896 -438 l 896 -438 q 923 -489 941 -525 q 958 -562 967 -590 q 975 -619 975 -644 l 975 -644 q 975 -671 960 -688 q 944 -705 909 -705 l 909 -705 q 893 -705 876 -702 q 859 -700 848 -696 l 848 -696 l 826 -782 q 847 -788 879 -792 q 911 -797 944 -797 l 944 -797 q 1004 -797 1037 -776 q 1069 -755 1081 -725 q 1093 -695 1093 -667 l 1093 -667 q 1093 -640 1089 -615 q 1084 -590 1073 -561 q 1061 -532 1043 -495 q 1025 -458 997 -407 l 997 -407 q 981 -377 969 -351 q 956 -326 945 -304 l 945 -304 q 943 -297 940 -290 q 936 -284 933 -278 l 933 -278 q 921 -249 914 -222 q 907 -195 907 -163 l 907 -163 q 907 -132 917 -113 q 927 -95 943 -86 q 958 -78 975 -78 l 975 -78 q 1008 -78 1025 -97 q 1041 -117 1041 -154 l 1041 -154 q 1041 -180 1032 -197 q 1023 -215 1008 -226 l 1008 -226 q 988 -241 960 -245 q 932 -249 902 -249 l 902 -249 l 308 -249 q 257 -249 229 -244 q 200 -240 178 -226 l 178 -226 q 163 -216 154 -199 q 144 -183 144 -159 l 144 -159 q 144 -133 153 -114 q 162 -96 181 -87 q 200 -78 228 -78 l 228 -78 q 255 -78 281 -87 q 307 -97 338 -121 l 338 -121 l 392 -44 q 362 -23 334 -10 q 305 2 276 7 q 246 12 211 12 z"},"!":{"ha":281,"x_min":66,"x_max":213,"o":"m 187 -224 l 94 -224 l 70 -714 l 210 -714 l 187 -224 z m 140 13 l 140 13 q 108 13 87 -6 q 66 -25 66 -64 l 66 -64 q 66 -104 87 -122 q 107 -140 140 -140 l 140 -140 q 172 -140 193 -122 q 213 -104 213 -64 l 213 -64 q 213 -25 193 -6 q 172 13 140 13 z"},"\"":{"ha":445,"x_min":66,"x_max":380,"o":"m 168 -542 l 86 -542 l 66 -800 l 188 -800 l 168 -542 z m 360 -542 l 277 -542 l 257 -800 l 380 -800 l 360 -542 z"},"#":{"ha":607,"x_min":29,"x_max":578,"o":"m 183 0 l 95 0 l 132 -203 l 29 -203 l 29 -289 l 149 -289 l 175 -424 l 60 -424 l 60 -511 l 191 -511 l 230 -713 l 319 -713 l 281 -511 l 386 -511 l 425 -713 l 513 -713 l 474 -511 l 578 -511 l 578 -424 l 458 -424 l 432 -289 l 548 -289 l 548 -203 l 415 -203 l 376 0 l 287 0 l 325 -203 l 222 -203 l 183 0 z m 264 -424 l 238 -289 l 343 -289 l 369 -424 l 264 -424 z"},"%":{"ha":820,"x_min":37,"x_max":783,"o":"m 283 0 l 187 0 l 536 -714 l 632 -714 l 283 0 z m 186 -276 l 186 -276 q 112 -276 75 -335 q 37 -395 37 -500 l 37 -500 q 37 -608 73 -666 q 109 -724 187 -724 l 187 -724 q 261 -724 300 -665 q 338 -607 338 -501 l 338 -501 q 338 -394 301 -335 q 264 -276 186 -276 z m 186 -361 l 186 -361 q 213 -361 226 -395 q 238 -429 238 -500 l 238 -500 q 238 -571 226 -605 q 213 -639 187 -639 l 187 -639 q 161 -639 149 -605 q 136 -571 136 -500 l 136 -500 q 136 -429 149 -395 q 161 -361 186 -361 z m 631 9 l 631 9 q 558 9 521 -50 q 483 -109 483 -215 l 483 -215 q 483 -322 519 -380 q 554 -439 632 -439 l 632 -439 q 707 -439 745 -380 q 783 -321 783 -216 l 783 -216 q 783 -108 747 -49 q 710 9 631 9 z m 633 -76 l 633 -76 q 659 -76 672 -110 q 685 -144 685 -215 l 685 -215 q 685 -286 672 -319 q 659 -353 633 -353 l 633 -353 q 607 -353 595 -319 q 583 -286 583 -215 l 583 -215 q 583 -144 595 -110 q 607 -76 633 -76 z"},"'":{"ha":254,"x_min":66,"x_max":188,"o":"m 168 -542 l 86 -542 l 66 -800 l 188 -800 l 168 -542 z"},"(":{"ha":326,"x_min":42,"x_max":296,"o":"m 42 -280 l 42 -280 q 42 -372 59 -467 q 76 -562 110 -648 q 143 -735 191 -800 l 191 -800 l 296 -800 q 252 -730 220 -644 q 188 -558 171 -465 q 153 -373 153 -280 l 153 -280 q 153 -188 170 -96 q 186 -4 218 83 q 250 169 296 244 l 296 244 l 191 244 q 140 174 107 87 q 74 -1 58 -95 q 42 -189 42 -280 z"},")":{"ha":326,"x_min":29,"x_max":284,"o":"m 284 -276 l 284 -276 q 284 -184 267 -89 q 250 6 217 93 q 183 179 135 244 l 135 244 l 30 244 q 75 173 107 88 q 138 2 155 -91 q 172 -184 172 -276 l 172 -276 q 172 -370 156 -461 q 140 -553 108 -639 q 76 -725 29 -800 l 29 -800 l 135 -800 q 185 -730 218 -643 q 251 -556 268 -462 q 284 -368 284 -276 z"},"*":{"ha":536,"x_min":34,"x_max":501,"o":"m 210 -800 l 324 -800 l 305 -620 l 486 -671 l 501 -562 l 331 -549 l 442 -403 l 343 -349 l 266 -508 l 195 -349 l 93 -403 l 203 -549 l 34 -562 l 51 -671 l 229 -621 l 210 -800 z"},"+":{"ha":529,"x_min":41,"x_max":488,"o":"m 311 -113 l 217 -113 l 217 -306 l 41 -306 l 41 -399 l 217 -399 l 217 -594 l 311 -594 l 311 -399 l 488 -399 l 488 -306 l 311 -306 l 311 -113 z"},",":{"ha":272,"x_min":34,"x_max":206,"o":"m 81 -116 l 199 -116 l 206 -105 q 197 -65 184 -25 q 171 15 157 54 q 142 93 125 130 l 125 130 l 34 130 q 44 90 53 47 q 62 3 70 -39 q 77 -82 81 -116 l 81 -116 z"},"-":{"ha":317,"x_min":33,"x_max":284,"o":"m 284 -217 l 33 -217 l 33 -320 l 284 -320 l 284 -217 z"},".":{"ha":272,"x_min":63,"x_max":209,"o":"m 136 13 l 136 13 q 104 13 84 -6 q 63 -25 63 -64 l 63 -64 q 63 -104 84 -122 q 104 -140 136 -140 l 136 -140 q 168 -140 189 -122 q 209 -105 209 -64 l 209 -64 q 209 -24 189 -5 q 168 13 136 13 z"},"/":{"ha":410,"x_min":18,"x_max":392,"o":"m 127 244 l 18 244 l 283 -800 l 392 -800 l 127 244 z"},":":{"ha":272,"x_min":63,"x_max":209,"o":"m 136 13 l 136 13 q 104 13 84 -6 q 63 -25 63 -64 l 63 -64 q 63 -104 83 -122 q 103 -140 136 -140 l 136 -140 q 168 -140 189 -122 q 209 -105 209 -64 l 209 -64 q 209 -24 189 -5 q 168 13 136 13 z m 136 -397 l 136 -397 q 104 -397 84 -415 q 63 -434 63 -473 l 63 -473 q 63 -514 83 -532 q 103 -550 136 -550 l 136 -550 q 169 -550 189 -532 q 209 -515 209 -474 l 209 -474 q 209 -434 189 -415 q 168 -397 136 -397 z"},";":{"ha":274,"x_min":34,"x_max":209,"o":"m 81 -116 l 199 -116 l 206 -105 q 197 -65 184 -25 q 171 15 157 54 q 142 93 125 130 l 125 130 l 34 130 q 44 90 53 47 q 62 3 70 -39 q 77 -81 81 -116 l 81 -116 z m 135 -397 l 135 -397 q 103 -397 83 -415 q 62 -434 62 -473 l 62 -473 q 62 -514 83 -532 q 103 -550 135 -550 l 135 -550 q 168 -550 189 -532 q 209 -515 209 -474 l 209 -474 q 209 -434 188 -415 q 167 -397 135 -397 z"},"<":{"ha":529,"x_min":40,"x_max":488,"o":"m 488 -215 l 488 -113 l 40 -320 l 40 -383 l 488 -607 l 488 -505 l 169 -354 l 488 -215 z"},"=":{"ha":529,"x_min":42,"x_max":487,"o":"m 487 -203 l 42 -203 l 42 -295 l 487 -295 l 487 -203 z m 487 -409 l 42 -409 l 42 -501 l 487 -501 l 487 -409 z"},">":{"ha":529,"x_min":40,"x_max":488,"o":"m 488 -320 l 40 -113 l 40 -215 l 359 -354 l 40 -505 l 40 -607 l 488 -383 l 488 -320 z"},"?":{"ha":424,"x_min":36,"x_max":397,"o":"m 210 -724 l 210 -724 q 302 -724 350 -676 q 397 -628 397 -551 l 397 -551 q 397 -509 388 -479 q 378 -449 358 -422 q 337 -395 304 -360 l 304 -360 q 279 -334 265 -316 q 251 -298 245 -281 q 239 -265 239 -246 l 239 -246 l 239 -224 l 135 -224 l 135 -254 q 135 -286 143 -312 q 151 -338 169 -362 q 187 -387 216 -414 l 216 -414 q 242 -439 256 -458 q 270 -478 276 -497 q 281 -517 281 -543 l 281 -543 q 281 -581 257 -601 q 232 -621 192 -621 l 192 -621 q 162 -621 134 -613 q 105 -605 76 -590 l 76 -590 l 36 -681 q 78 -702 119 -713 q 159 -724 210 -724 z m 191 13 l 191 13 q 159 13 138 -6 q 117 -25 117 -64 l 117 -64 q 117 -104 138 -122 q 159 -140 191 -140 l 191 -140 q 223 -140 244 -122 q 264 -105 264 -64 l 264 -64 q 264 -24 244 -5 q 223 13 191 13 z"},"[":{"ha":331,"x_min":71,"x_max":294,"o":"m 294 244 l 71 244 l 71 -800 l 294 -800 l 294 -710 l 180 -710 l 180 154 l 294 154 l 294 244 z"},"\\":{"ha":410,"x_min":18,"x_max":392,"o":"m 392 244 l 283 244 l 18 -800 l 127 -800 l 392 244 z"},"]":{"ha":332,"x_min":37,"x_max":260,"o":"m 260 244 l 37 244 l 37 154 l 151 154 l 151 -710 l 37 -710 l 37 -800 l 260 -800 l 260 244 z"},"^":{"ha":563,"x_min":28,"x_max":535,"o":"m 130 -286 l 28 -286 l 244 -717 l 306 -717 l 535 -286 l 431 -286 l 276 -585 l 130 -286 z"},"_":{"ha":401,"x_min":-2,"x_max":403,"o":"m 403 156 l -2 156 l -2 90 l 403 90 l 403 156 z"},"{":{"ha":377,"x_min":26,"x_max":340,"o":"m 340 150 l 340 244 q 268 244 226 224 q 184 204 166 167 q 148 130 148 79 l 148 79 l 148 -137 q 148 -187 117 -208 q 85 -230 26 -230 l 26 -230 l 26 -328 q 86 -328 117 -349 q 148 -371 148 -420 l 148 -420 l 148 -635 q 148 -687 166 -723 q 184 -760 226 -780 q 268 -800 340 -800 l 340 -800 l 340 -706 q 298 -705 279 -684 q 260 -664 260 -618 l 260 -618 l 260 -400 q 260 -350 232 -320 q 204 -291 148 -282 l 148 -282 l 148 -276 q 204 -267 232 -238 q 260 -209 260 -159 l 260 -159 l 260 62 q 260 93 268 112 q 276 131 294 140 q 312 149 340 150 l 340 150 z"},"|":{"ha":551,"x_min":228,"x_max":323,"o":"m 323 244 l 228 244 l 228 -800 l 323 -800 l 323 244 z"},"}":{"ha":377,"x_min":37,"x_max":350,"o":"m 37 -706 l 37 -800 q 110 -800 152 -780 q 193 -760 211 -723 q 228 -686 228 -635 l 228 -635 l 228 -421 q 228 -371 260 -349 q 291 -328 350 -328 l 350 -328 l 350 -230 q 291 -229 260 -208 q 228 -187 228 -138 l 228 -138 l 228 79 q 228 131 210 168 q 192 204 151 224 q 109 244 37 244 l 37 244 l 37 150 q 79 149 98 129 q 116 108 116 62 l 116 62 l 116 -159 q 116 -209 145 -238 q 173 -267 228 -276 l 228 -276 l 228 -282 q 173 -291 145 -320 q 116 -350 116 -400 l 116 -400 l 116 -618 q 116 -649 108 -668 q 100 -687 83 -696 q 65 -706 37 -706 l 37 -706 z"},"~":{"ha":529,"x_min":40,"x_max":488,"o":"m 249 -308 l 249 -308 q 215 -324 193 -329 q 171 -335 151 -335 l 151 -335 q 122 -335 94 -318 q 65 -302 40 -276 l 40 -276 l 40 -375 q 64 -401 93 -414 q 121 -428 156 -428 l 156 -428 q 185 -428 213 -421 q 240 -415 279 -397 l 279 -397 q 312 -382 335 -376 q 358 -370 381 -370 l 381 -370 q 408 -370 437 -386 q 465 -403 488 -429 l 488 -429 l 488 -329 q 465 -304 437 -290 q 408 -277 373 -277 l 373 -277 q 344 -277 317 -284 q 289 -291 249 -308 z"}," ":{"ha":277,"x_min":0,"x_max":0,"o":""},"­":{"ha":317,"x_min":33,"x_max":284,"o":"m 284 -217 l 33 -217 l 33 -320 l 284 -320 l 284 -217 z"},"–":{"ha":500,"x_min":40,"x_max":460,"o":"m 460 -216 l 40 -216 l 40 -320 l 460 -320 l 460 -216 z"},"—":{"ha":1000,"x_min":40,"x_max":960,"o":"m 960 -216 l 40 -216 l 40 -320 l 960 -320 l 960 -216 z"},"‘":{"ha":249,"x_min":38,"x_max":210,"o":"m 163 -555 l 45 -555 l 38 -566 q 47 -606 60 -645 q 73 -685 89 -724 q 104 -764 119 -800 l 119 -800 l 210 -800 q 200 -761 191 -717 q 182 -673 175 -631 q 168 -590 163 -555 l 163 -555 z"},"’":{"ha":249,"x_min":38,"x_max":210,"o":"m 85 -800 l 203 -800 l 210 -789 q 201 -750 188 -710 q 175 -670 160 -631 q 145 -592 129 -555 l 129 -555 l 38 -555 q 45 -584 52 -616 q 59 -648 65 -681 q 71 -714 76 -744 q 81 -775 85 -800 l 85 -800 z"},"“":{"ha":454,"x_min":38,"x_max":415,"o":"m 369 -555 l 250 -555 l 244 -566 q 253 -606 266 -646 q 278 -686 294 -725 q 309 -764 325 -800 l 325 -800 l 415 -800 q 406 -760 397 -717 q 387 -674 380 -632 q 373 -591 369 -555 l 369 -555 z m 163 -555 l 45 -555 l 38 -566 q 48 -606 61 -646 q 73 -686 89 -725 q 104 -764 120 -800 l 120 -800 l 210 -800 q 201 -761 192 -717 q 182 -674 175 -632 q 168 -590 163 -555 l 163 -555 z"},"”":{"ha":454,"x_min":38,"x_max":415,"o":"m 290 -800 l 408 -800 l 415 -790 q 406 -750 393 -710 q 380 -670 365 -631 q 350 -592 334 -555 l 334 -555 l 244 -555 q 254 -596 263 -639 q 271 -682 279 -723 q 286 -764 290 -800 l 290 -800 z m 85 -800 l 203 -800 l 210 -790 q 201 -750 188 -710 q 175 -670 160 -631 q 145 -592 129 -555 l 129 -555 l 38 -555 q 45 -584 52 -616 q 59 -648 65 -681 q 71 -714 76 -744 q 81 -775 85 -800 l 85 -800 z"},"…":{"ha":807,"x_min":63,"x_max":744,"o":"m 136 13 l 136 13 q 104 13 84 -6 q 63 -25 63 -64 l 63 -64 q 63 -104 84 -122 q 104 -140 136 -140 l 136 -140 q 168 -140 189 -122 q 210 -105 210 -64 l 210 -64 q 210 -24 189 -5 q 168 13 136 13 z m 403 13 l 403 13 q 371 13 351 -6 q 330 -25 330 -64 l 330 -64 q 330 -104 351 -122 q 371 -140 403 -140 l 403 -140 q 435 -140 456 -122 q 477 -105 477 -64 l 477 -64 q 477 -24 456 -5 q 435 13 403 13 z m 671 13 l 671 13 q 639 13 618 -6 q 597 -25 597 -64 l 597 -64 q 597 -104 618 -122 q 638 -140 671 -140 l 671 -140 q 703 -140 724 -122 q 744 -105 744 -64 l 744 -64 q 744 -24 724 -5 q 703 13 671 13 z"},"×":{"ha":529,"x_min":53,"x_max":475,"o":"m 263 -418 l 410 -564 l 475 -501 l 328 -353 l 473 -207 l 410 -142 l 263 -288 l 117 -143 l 54 -207 l 198 -353 l 53 -498 l 117 -564 l 263 -418 z"},"÷":{"ha":529,"x_min":41,"x_max":488,"o":"m 488 -306 l 41 -306 l 41 -399 l 488 -399 l 488 -306 z m 264 -109 l 264 -109 q 236 -109 219 -126 q 201 -144 201 -179 l 201 -179 q 201 -215 219 -232 q 236 -249 264 -249 l 264 -249 q 292 -249 309 -232 q 326 -215 326 -179 l 326 -179 q 326 -144 309 -126 q 291 -109 264 -109 z m 264 -456 l 264 -456 q 236 -456 219 -473 q 201 -490 201 -526 l 201 -526 q 201 -562 219 -578 q 236 -595 264 -595 l 264 -595 q 292 -595 309 -578 q 326 -562 326 -526 l 326 -526 q 326 -490 309 -473 q 291 -456 264 -456 z"},"−":{"ha":529,"x_min":41,"x_max":488,"o":"m 488 -306 l 41 -306 l 41 -399 l 488 -399 l 488 -306 z"},"₹":{"ha":529,"x_min":57,"x_max":479,"o":"m 371 0 l 230 0 l 57 -264 l 72 -353 l 101 -353 q 147 -353 169 -362 q 191 -371 203 -388 l 203 -388 q 216 -406 222 -431 q 228 -456 228 -489 l 228 -489 q 228 -532 220 -557 q 212 -582 197 -598 l 197 -598 q 184 -612 165 -618 q 145 -624 111 -624 l 111 -624 l 57 -624 l 57 -714 l 479 -714 l 479 -624 l 295 -624 q 316 -605 330 -571 q 343 -538 343 -486 l 343 -486 q 343 -424 325 -380 q 306 -336 268 -308 q 230 -280 173 -268 l 173 -268 l 174 -284 l 371 0 z m 479 -448 l 57 -448 l 57 -538 l 479 -538 l 479 -448 z"},"꠰":{"ha":256,"x_min":69,"x_max":187,"o":"m 69 0 l 69 -559 l 187 -559 l 187 0 l 69 0 z"},"꠱":{"ha":456,"x_min":69,"x_max":387,"o":"m 69 0 l 69 -559 l 187 -559 l 187 0 l 69 0 z m 269 0 l 269 -559 l 387 -559 l 387 0 l 269 0 z"},"꠲":{"ha":656,"x_min":69,"x_max":588,"o":"m 69 0 l 69 -559 l 187 -559 l 187 0 l 69 0 z m 269 0 l 269 -559 l 387 -559 l 387 0 l 269 0 z m 469 0 l 469 -559 l 588 -559 l 588 0 l 469 0 z"},"॑":{"ha":0,"x_min":-322,"x_max":-235,"o":"m -322 -653 l -322 -864 l -235 -864 l -235 -653 l -322 -653 z"},"॒":{"ha":0,"x_min":-499,"x_max":-58,"o":"m -58 105 l -58 187 l -499 187 l -499 105 l -58 105 z"},"।":{"ha":348,"x_min":151,"x_max":271,"o":"m 271 49 l 151 49 l 151 -603 l 271 -603 l 271 49 z"},"॥":{"ha":596,"x_min":151,"x_max":520,"o":"m 520 49 l 400 49 l 400 -603 l 520 -603 l 520 49 z m 272 49 l 151 49 l 151 -603 l 272 -603 l 272 49 z"},"᳚":{"ha":0,"x_min":-385,"x_max":-172,"o":"m -385 -653 l -385 -864 l -306 -864 l -306 -653 l -385 -653 z m -251 -653 l -251 -864 l -172 -864 l -172 -653 l -251 -653 z"},"̇":{"ha":0,"x_min":-333,"x_max":-206,"o":"m -333 -701 l -333 -701 q -333 -736 -314 -751 q -296 -766 -269 -766 l -269 -766 q -242 -766 -224 -751 q -206 -736 -206 -701 l -206 -701 q -206 -666 -224 -651 q -242 -636 -269 -636 l -269 -636 q -296 -636 -314 -651 q -333 -666 -333 -701 z"},"̣":{"ha":0,"x_min":-332,"x_max":-206,"o":"m -332 136 l -332 136 q -332 100 -314 86 q -296 71 -269 71 l -269 71 q -242 71 -224 86 q -206 100 -206 136 l -206 136 q -206 171 -224 186 q -242 201 -269 201 l -269 201 q -296 201 -314 186 q -332 171 -332 136 z"},"‐":{"ha":317,"x_min":33,"x_max":284,"o":"m 284 -217 l 33 -217 l 33 -320 l 284 -320 l 284 -217 z"},"​":{"ha":0,"x_min":0,"x_max":0,"o":""},"‌":{"ha":0,"x_min":0,"x_max":0,"o":""},"‍":{"ha":0,"x_min":-161,"x_max":161,"o":"m 29 244 l -29 244 l -29 -565 l -121 -474 l -161 -514 l -40 -631 l -161 -748 l -121 -788 l 0 -669 l 121 -788 l 161 -748 l 40 -631 l 161 -514 l 121 -474 l 29 -565 l 29 244 z"},"◌":{"ha":562,"x_min":57,"x_max":504,"o":"m 89 -231 l 89 -231 q 57 -231 57 -264 l 57 -264 q 57 -295 89 -295 l 89 -295 q 121 -295 121 -264 l 121 -264 q 121 -231 89 -231 z m 138 -95 l 138 -95 q 106 -95 106 -127 l 106 -127 q 106 -158 138 -158 l 138 -158 q 169 -158 169 -127 l 169 -127 q 169 -95 138 -95 z m 281 -40 l 281 -40 q 249 -40 249 -72 l 249 -72 q 249 -104 281 -104 l 281 -104 q 312 -104 312 -72 l 312 -72 q 312 -40 281 -40 z m 138 -369 l 138 -369 q 106 -369 106 -401 l 106 -401 q 106 -432 138 -432 l 138 -432 q 169 -432 169 -401 l 169 -401 q 169 -369 138 -369 z m 423 -95 l 423 -95 q 391 -95 391 -127 l 391 -127 q 391 -158 423 -158 l 423 -158 q 455 -158 455 -127 l 455 -127 q 455 -95 423 -95 z m 281 -424 l 281 -424 q 249 -424 249 -456 l 249 -456 q 249 -487 281 -487 l 281 -487 q 312 -487 312 -456 l 312 -456 q 312 -424 281 -424 z m 472 -231 l 472 -231 q 441 -231 441 -264 l 441 -264 q 441 -295 472 -295 l 472 -295 q 504 -295 504 -264 l 504 -264 q 504 -231 472 -231 z m 423 -369 l 423 -369 q 391 -369 391 -401 l 391 -401 q 391 -432 423 -432 l 423 -432 q 455 -432 455 -401 l 455 -401 q 455 -369 423 -369 z"},"«":{"ha":547,"x_min":37,"x_max":510,"o":"m 37 -263 l 37 -276 l 203 -488 l 289 -442 l 164 -270 l 289 -99 l 203 -52 l 37 -263 z m 258 -263 l 258 -276 l 424 -488 l 510 -442 l 385 -270 l 510 -99 l 424 -52 l 258 -263 z"},"»":{"ha":547,"x_min":38,"x_max":510,"o":"m 510 -276 l 510 -263 l 344 -52 l 258 -99 l 383 -270 l 258 -442 l 344 -488 l 510 -276 z m 290 -276 l 290 -263 l 123 -52 l 38 -99 l 162 -270 l 38 -442 l 123 -488 l 290 -276 z"},"̈":{"ha":0,"x_min":-149,"x_max":150,"o":"m -149 -681 l -149 -681 q -149 -713 -132 -727 q -115 -741 -91 -741 l -91 -741 q -67 -741 -50 -726 q -33 -712 -33 -681 l -33 -681 q -33 -652 -50 -636 q -67 -621 -91 -621 l -91 -621 q -115 -621 -132 -636 q -149 -652 -149 -681 z m 34 -681 l 34 -681 q 34 -713 51 -727 q 67 -741 92 -741 l 92 -741 q 116 -741 133 -726 q 150 -712 150 -681 l 150 -681 q 150 -652 133 -636 q 116 -621 91 -621 l 91 -621 q 67 -621 51 -636 q 34 -652 34 -681 z"},"̀":{"ha":0,"x_min":-472,"x_max":-235,"o":"m -472 -766 l -334 -766 q -322 -744 -304 -716 q -287 -688 -268 -662 q -249 -637 -235 -618 l -235 -618 l -235 -606 l -316 -606 q -333 -619 -355 -638 q -377 -658 -399 -680 q -422 -702 -441 -722 q -461 -742 -472 -756 l -472 -756 l -472 -766 z"},"́":{"ha":0,"x_min":-316,"x_max":-79,"o":"m -79 -766 l -79 -756 q -90 -742 -109 -722 q -128 -703 -150 -681 q -173 -659 -195 -639 q -217 -620 -235 -606 l -235 -606 l -316 -606 l -316 -618 q -300 -640 -281 -665 q -263 -691 -246 -717 q -229 -744 -217 -766 l -217 -766 l -79 -766 z"},"̋":{"ha":0,"x_min":-129,"x_max":250,"o":"m 250 -766 l 250 -756 q 242 -742 226 -722 q 209 -702 188 -680 q 167 -659 146 -639 q 124 -620 108 -606 l 108 -606 l 44 -606 l 44 -618 q 59 -640 76 -667 q 92 -695 107 -721 q 121 -747 130 -766 l 130 -766 l 250 -766 z m 77 -766 l 77 -756 q 69 -742 53 -722 q 37 -702 16 -680 q -5 -659 -27 -640 q -49 -621 -67 -606 l -67 -606 l -129 -606 l -129 -618 q -114 -641 -98 -668 q -82 -695 -67 -721 q -53 -747 -43 -766 l -43 -766 l 77 -766 z"},"̄":{"ha":0,"x_min":-148,"x_max":149,"o":"m -148 -699 l 150 -699 l 150 -610 l -148 -610 l -148 -699 z"},"˙":{"ha":213,"x_min":40,"x_max":173,"o":"m 107 -752 l 107 -752 q 136 -752 155 -736 q 173 -720 173 -685 l 173 -685 q 173 -650 155 -634 q 136 -618 107 -618 l 107 -618 q 77 -618 59 -634 q 40 -650 40 -685 l 40 -685 q 40 -721 59 -736 q 77 -752 107 -752 z"},"°":{"ha":405,"x_min":41,"x_max":363,"o":"m 202 -414 l 202 -414 q 155 -414 119 -433 q 83 -453 62 -488 q 41 -523 41 -569 l 41 -569 q 41 -615 62 -649 q 83 -684 119 -704 q 155 -724 202 -724 l 202 -724 q 250 -724 286 -704 q 322 -685 343 -650 q 363 -615 363 -569 l 363 -569 q 363 -523 343 -488 q 322 -453 286 -433 q 250 -414 202 -414 z m 203 -489 l 203 -489 q 238 -489 260 -511 q 281 -533 281 -569 l 281 -569 q 281 -606 260 -627 q 238 -649 203 -649 l 203 -649 q 167 -649 146 -627 q 124 -605 124 -569 l 124 -569 q 124 -532 146 -510 q 168 -489 203 -489 z"},"A":{"ha":607,"x_min":0,"x_max":606,"o":"m 606 0 l 475 0 l 419 -190 l 187 -190 l 132 0 l 0 0 l 230 -716 l 376 -716 l 606 0 z m 391 -298 l 335 -492 q 330 -510 324 -531 q 318 -553 313 -575 q 307 -597 303 -615 l 303 -615 q 299 -596 293 -572 q 287 -549 282 -527 q 276 -506 272 -493 l 272 -493 l 216 -298 l 391 -298 z"},"Á":{"ha":607,"x_min":0,"x_max":606,"o":"m 606 0 l 475 0 l 419 -190 l 187 -190 l 132 0 l 0 0 l 230 -716 l 376 -716 l 606 0 z m 391 -298 l 335 -492 q 330 -510 324 -531 q 318 -553 313 -575 q 307 -597 303 -615 l 303 -615 q 299 -596 293 -572 q 287 -549 282 -527 q 276 -506 272 -493 l 272 -493 l 216 -298 l 391 -298 z m 475 -938 l 475 -928 q 464 -914 445 -894 q 426 -875 404 -853 q 381 -831 359 -811 q 337 -792 319 -778 l 319 -778 l 238 -778 l 238 -790 q 254 -812 273 -837 q 291 -863 308 -889 q 325 -916 337 -938 l 337 -938 l 475 -938 z"},"Ă":{"ha":607,"x_min":0,"x_max":606,"o":"m 606 0 l 475 0 l 419 -190 l 187 -190 l 132 0 l 0 0 l 230 -716 l 376 -716 l 606 0 z m 391 -298 l 335 -492 q 330 -510 324 -531 q 318 -553 313 -575 q 307 -597 303 -615 l 303 -615 q 299 -596 293 -572 q 287 -549 282 -527 q 276 -506 272 -493 l 272 -493 l 216 -298 l 391 -298 z m 397 -932 l 469 -932 q 467 -886 445 -851 q 423 -817 387 -797 q 350 -778 301 -778 l 301 -778 q 228 -778 185 -819 q 141 -860 138 -932 l 138 -932 l 209 -932 q 211 -905 223 -891 q 235 -877 256 -872 q 277 -867 303 -867 l 303 -867 q 326 -867 347 -872 q 367 -878 381 -892 q 395 -906 397 -932 l 397 -932 z"},"Â":{"ha":607,"x_min":0,"x_max":606,"o":"m 606 0 l 475 0 l 419 -190 l 187 -190 l 132 0 l 0 0 l 230 -716 l 376 -716 l 606 0 z m 391 -298 l 335 -492 q 330 -510 324 -531 q 318 -553 313 -575 q 307 -597 303 -615 l 303 -615 q 299 -596 293 -572 q 287 -549 282 -527 q 276 -506 272 -493 l 272 -493 l 216 -298 l 391 -298 z m 236 -938 l 369 -938 q 382 -916 402 -889 q 421 -863 443 -836 q 465 -810 483 -790 l 483 -790 l 483 -778 l 405 -778 q 382 -794 355 -816 q 327 -839 302 -866 l 302 -866 q 277 -839 250 -816 q 223 -794 200 -778 l 200 -778 l 123 -778 l 123 -790 q 141 -810 163 -836 q 184 -863 204 -890 q 224 -917 236 -938 l 236 -938 z"},"Ä":{"ha":607,"x_min":0,"x_max":606,"o":"m 606 0 l 475 0 l 419 -190 l 187 -190 l 132 0 l 0 0 l 230 -716 l 376 -716 l 606 0 z m 391 -298 l 335 -492 q 330 -510 324 -531 q 318 -553 313 -575 q 307 -597 303 -615 l 303 -615 q 299 -596 293 -572 q 287 -549 282 -527 q 276 -506 272 -493 l 272 -493 l 216 -298 l 391 -298 z m 153 -853 l 153 -853 q 153 -885 170 -899 q 187 -913 211 -913 l 211 -913 q 235 -913 252 -898 q 269 -884 269 -853 l 269 -853 q 269 -824 252 -808 q 235 -793 211 -793 l 211 -793 q 187 -793 170 -808 q 153 -824 153 -853 z m 336 -853 l 336 -853 q 336 -885 353 -899 q 369 -913 394 -913 l 394 -913 q 418 -913 435 -898 q 452 -884 452 -853 l 452 -853 q 452 -824 435 -808 q 418 -793 393 -793 l 393 -793 q 369 -793 353 -808 q 336 -824 336 -853 z"}}}
